{
classes = (
{
automatic = 1;
code = "A B C D E F G H I J K L M N O P Q R S T U V W X Y Z";
name = Uppercase;
}
);
copyright = "Copyright (c) 2014, Impallari Type (www.impallari.com), with Reserved Font Name Libre Clarendon.";
customParameters = (
{
name = openTypeOS2Type;
value = (
);
},
{
name = licenseURL;
value = "http://scripts.sil.org/OFL";
},
{
name = license;
value = "This Font Software is licensed under the SIL Open Font License, Version 1.1. This license is available with a FAQ at: http://scripts.sil.org/OFL";
},
{
name = trademark;
value = "Libre Clarendon is a trademark of Impallari Type.";
},
{
name = description;
value = "Libre Clarendon fonts in 20 Styles. 4 Widths (Condensed Narrow Normal Wide) in 5 weigths each (Ligth Regular Medium Bold and Black).\012An integrated and comprehensive Clarendon family in a wide range of weights and widths that can be used for both Text and Display settings. Loosely based in 1874 Fann Street Foundry Specimens.";
},
{
name = vendorID;
value = IMPA;
}
);
date = "2015-04-01 21:56:56 +0000";
designer = "Pablo Impallari, Rodrigo Fuenzalida";
designerURL = "http://www.impallari.com/";
familyName = "Libre Clarendon";
featurePrefixes = (
{
automatic = 1;
code = "languagesystem DFLT dflt;\012languagesystem latn dflt;\012";
name = Languagesystems;
}
);
features = (
{
automatic = 1;
code = "pos @Uppercase <5 0 10 0>;\012";
name = cpsp;
}
);
fontMaster = (
{
alignmentZones = (
"{665, 10}",
"{450, 10}",
"{0, -10}",
"{-216, -10}"
);
ascender = 665;
capHeight = 630;
customParameters = (
{
name = typoAscender;
value = 924;
},
{
name = typoDescender;
value = "-326";
},
{
name = typoLineGap;
value = 0;
},
{
name = winAscent;
value = 924;
},
{
name = winDescent;
value = "-326";
}
);
descender = "-216";
horizontalStems = (
35
);
id = "E9E6D55E-9446-45F2-B66C-3272698B0216";
verticalStems = (
40
);
weight = Light;
weightValue = 40;
width = Condensed;
xHeight = 450;
},
{
alignmentZones = (
"{665, 10}",
"{450, 10}",
"{0, -10}",

glyphs = (
{
glyphname = A;
lastChange = "2015-04-01 21:56:09 +0000";
layers = (
{
guideLines = (
{
angle = 90;
position = "{221, 79}";
}
);
layerId = "E9E6D55E-9446-45F2-B66C-3272698B0216";
name = "Light Condensed";
paths = (
{
closed = 1;
nodes = (
"8 0 LINE",
"182 0 LINE",
"182 30 LINE",
"146 30 LINE SMOOTH",
"118 30 OFFCURVE",
"107 39 OFFCURVE",
"107 58 CURVE SMOOTH",
"107 64 OFFCURVE",
"108 71 OFFCURVE",
"110 79 CURVE SMOOTH",
"219 561 LINE",
"224 561 LINE",
"325 79 LINE SMOOTH",
"327 70 OFFCURVE",
"328 63 OFFCURVE",
"328 56 CURVE SMOOTH",
"328 38 OFFCURVE",
"319 30 OFFCURVE",
"295 30 CURVE SMOOTH",
"259 30 LINE",
"259 0 LINE",
"445 0 LINE",
"445 30 LINE",
"412 30 LINE SMOOTH",
"389 30 OFFCURVE",
"378 40 OFFCURVE",
"370 80 CURVE SMOOTH",
"255 629 LINE",
"201 629 LINE",
"74 79 LINE SMOOTH",
"65 40 OFFCURVE",
"58 30 OFFCURVE",
"32 30 CURVE SMOOTH",
"8 30 LINE"
);
},
{
closed = 1;
nodes = (
"137 234 LINE",
"303 234 LINE",
"297 264 LINE",
"144 264 LINE"
);
}
);
width = 449;
},
{
layerId = "B25F85BC-C782-4067-8484-07202F80B8CD";
name = Condensed;
paths = (
{
closed = 1;
nodes = (
"11 0 LINE",
"229 0 LINE",
"229 90 LINE",
"195 90 LINE SMOOTH",
"178 90 OFFCURVE",
"171 97 OFFCURVE",
"171 112 CURVE SMOOTH",
"171 120 OFFCURVE",
"172 126 OFFCURVE",
"174 135 CURVE SMOOTH",
"257 504 LINE",
"261 504 LINE",
"345 130 LINE SMOOTH",
"346 124 OFFCURVE",
"347 119 OFFCURVE",
"347 113 CURVE SMOOTH",
"347 99 OFFCURVE",
"339 90 OFFCURVE",
"324 90 CURVE SMOOTH",
"273 90 LINE",
"273 0 LINE",
"558 0 LINE",
"558 90 LINE",
"549 90 LINE SMOOTH",
"516 91 OFFCURVE",
"503 101 OFFCURVE",
"495 130 CURVE SMOOTH",
"357 630 LINE",
"197 630 LINE",
"67 119 LINE SMOOTH",
"61 97 OFFCURVE",
"50 90 OFFCURVE",
"31 90 CURVE SMOOTH",
"11 90 LINE"
);
},
{
closed = 1;
nodes = (
"180 224 LINE",
"339 224 LINE",
"321 301 LINE",
"196 301 LINE"
);
}
);
width = 567;
},
{
layerId = "B817C739-5D48-43E8-AAEE-CE891513D7BC";
name = "Bold Condensed";
paths = (
{
closed = 1;
nodes = (
"5 0 LINE",
"236 0 LINE",
"236 108 LINE",
"227 108 LINE SMOOTH",
"202 108 OFFCURVE",
"193 117 OFFCURVE",
"193 134 CURVE SMOOTH",
"193 140 OFFCURVE",
"194 146 OFFCURVE",
"195 153 CURVE SMOOTH",
"238 400 LINE",
"243 400 LINE",
"286 158 LINE SMOOTH",
"287 152 OFFCURVE",
"288 146 OFFCURVE",
"288 140 CURVE SMOOTH",
"288 119 OFFCURVE",
"277 108 OFFCURVE",
"258 108 CURVE SMOOTH",
"250 108 LINE",
"250 0 LINE",
"506 0 LINE",
"506 108 LINE",
"502 108 LINE SMOOTH",
"487 108 OFFCURVE",
"479 115 OFFCURVE",
"471 148 CURVE SMOOTH",
"358 630 LINE",
"170 630 LINE",
"47 142 LINE SMOOTH",
"40 116 OFFCURVE",
"31 108 OFFCURVE",
"9 108 CURVE SMOOTH",
"5 108 LINE"
);
},
{
closed = 1;
nodes = (
"187 174 LINE",
"294 174 LINE",
"283 284 LINE",
"200 284 LINE"
);
}
);
width = 511;
},
{
layerId = UUID0;
name = "Light Extended";
paths = (
{
closed = 1;
nodes = (
"0 0 LINE",
"249 0 LINE",
"249 36 LINE",
"173 36 LINE SMOOTH",
"157 36 OFFCURVE",
"148 46 OFFCURVE",
"148 58 CURVE SMOOTH",
"148 61 OFFCURVE",
"149 65 OFFCURVE",
"150 68 CURVE SMOOTH",
"351 583 LINE",
"355 583 LINE",
"561 68 LINE SMOOTH",
"562 65 OFFCURVE",
"563 61 OFFCURVE",
"563 58 CURVE SMOOTH",
"563 46 OFFCURVE",
"554 36 OFFCURVE",
"534 36 CURVE SMOOTH",
"462 36 LINE",
"462 0 LINE",
"722 0 LINE",
"722 36 LINE",
"650 36 LINE SMOOTH",
"631 36 OFFCURVE",
"623 44 OFFCURVE",
"613 68 CURVE SMOOTH",
"390 630 LINE",
"326 630 LINE",
"109 68 LINE SMOOTH",
"99 42 OFFCURVE",
"87 36 OFFCURVE",
"65 36 CURVE SMOOTH",
"0 36 LINE"
);
},
{
closed = 1;
nodes = (
"206 240 LINE",
"518 240 LINE",
"518 276 LINE",
"206 276 LINE"
);
}
);
width = 722;
},
{
layerId = "4355E1B8-19E6-44BD-A1D7-6E3C2DECA4C8";
name = Extended;
paths = (
{
closed = 1;
nodes = (
"10 0 LINE",
"339 0 LINE",
"339 90 LINE",
"246 90 LINE SMOOTH",
"223 90 OFFCURVE",
"210 101 OFFCURVE",
"210 122 CURVE SMOOTH",
"210 128 OFFCURVE",
"211 137 OFFCURVE",
"215 146 CURVE SMOOTH",
"364 519 LINE",
"369 519 LINE",
"503 146 LINE SMOOTH",
"507 134 OFFCURVE",
"509 124 OFFCURVE",
"509 116 CURVE SMOOTH",
"509 98 OFFCURVE",
"500 90 OFFCURVE",
"478 90 CURVE SMOOTH",
"394 90 LINE",
"394 0 LINE",
"753 0 LINE",
"753 90 LINE",
"740 90 LINE SMOOTH",
"691 91 OFFCURVE",
"676 103 OFFCURVE",
"659 146 CURVE SMOOTH",
"468 630 LINE",
"308 630 LINE",
"108 146 LINE SMOOTH",
"89 101 OFFCURVE",
"77 90 OFFCURVE",
"43 90 CURVE SMOOTH",
"10 90 LINE"
);
},
{
closed = 1;
nodes = (
"234 210 LINE",
"488 210 LINE",
"458 300 LINE",
"268 300 LINE"
);
}
);
width = 763;
},
{
layerId = "14C77FDB-037D-4842-9381-6D9ED15DD48C";
name = "Bold Extended";
paths = (
{
closed = 1;
nodes = (
"9 0 LINE",
"344 0 LINE",
"344 152 LINE",
"300 152 LINE SMOOTH",
"278 152 OFFCURVE",
"268 165 OFFCURVE",
"268 181 CURVE SMOOTH",
"268 187 OFFCURVE",
"269 194 OFFCURVE",
"272 202 CURVE SMOOTH",
"370 454 LINE",
"374 454 LINE",
"476 192 LINE SMOOTH",
"478 186 OFFCURVE",
"479 181 OFFCURVE",
"479 176 CURVE SMOOTH",
"479 161 OFFCURVE",
"470 152 OFFCURVE",
"451 152 CURVE SMOOTH",
"390 152 LINE",
"390 0 LINE",
"806 0 LINE",
"806 152 LINE",
"798 152 LINE SMOOTH",
"764 153 OFFCURVE",
"751 163 OFFCURVE",
"737 192 CURVE SMOOTH",
"526 630 LINE",
"280 630 LINE",
"89 187 LINE SMOOTH",
"77 160 OFFCURVE",
"68 152 OFFCURVE",
"40 152 CURVE SMOOTH",
"9 152 LINE"
);
},
{
closed = 1;
nodes = (
"264 208 LINE",
"483 208 LINE",
"447 331 LINE",
"300 331 LINE"
);
}
);
width = 815;
}
);
unicode = 0041;
},
{
glyphname = B;
lastChange = "2015-04-01 21:56:09 +0000";
layers = (
{
layerId = "E9E6D55E-9446-45F2-B66C-3272698B0216";
name = "Light Condensed";
paths = (
{
closed = 1;
nodes = (
"297 335 LINE",
"355 362 OFFCURVE",
"383 414 OFFCURVE",
"383 480 CURVE SMOOTH",
"383 567 OFFCURVE",
"334 630 OFFCURVE",
"201 630 CURVE SMOOTH",
"13 630 LINE",
"13 600 LINE",
"39 600 LINE SMOOTH",
"70 600 OFFCURVE",
"85 587 OFFCURVE",
"85 558 CURVE SMOOTH",
"85 70 LINE SMOOTH",
"85 43 OFFCURVE",
"70 29 OFFCURVE",
"40 29 CURVE SMOOTH",
"13 29 LINE",
"13 -1 LINE",
"211 -1 LINE SMOOTH",
"335 -1 OFFCURVE",
"403 62 OFFCURVE",
"403 168 CURVE SMOOTH",
"403 246 OFFCURVE",
"366 304 OFFCURVE",
"297 330 CURVE"
);
},
{
closed = 1;
nodes = (
"301 595 OFFCURVE",
"338 548 OFFCURVE",
"338 468 CURVE SMOOTH",
"338 395 OFFCURVE",
"307 348 OFFCURVE",
"192 348 CURVE SMOOTH",
"126 348 LINE",
"126 595 LINE",
"202 595 LINE SMOOTH"
);
},
{
closed = 1;
nodes = (
"126 34 LINE",
"126 313 LINE",
"202 313 LINE SMOOTH",
"308 313 OFFCURVE",
"358 266 OFFCURVE",
"358 172 CURVE SMOOTH",
"358 81 OFFCURVE",
"310 34 OFFCURVE",
"212 34 CURVE SMOOTH"
);
}
);
width = 428;
},
{
layerId = "B25F85BC-C782-4067-8484-07202F80B8CD";
name = Condensed;
paths = (
{
closed = 1;
nodes = (
"355 324 LINE",
"439 342 OFFCURVE",
"471 402 OFFCURVE",
"471 475 CURVE SMOOTH",
"471 568 OFFCURVE",
"418 630 OFFCURVE",
"249 630 CURVE SMOOTH",
"15 630 LINE",
"15 540 LINE",
"51 540 LINE SMOOTH",
"70 540 OFFCURVE",
"77 528 OFFCURVE",
"77 508 CURVE SMOOTH",
"77 120 LINE SMOOTH",
"77 98 OFFCURVE",
"67 89 OFFCURVE",
"53 89 CURVE SMOOTH",
"15 89 LINE",
"15 -1 LINE",
"289 -1 LINE SMOOTH",
"413 -1 OFFCURVE",
"481 61 OFFCURVE",
"481 169 CURVE SMOOTH",
"481 271 OFFCURVE",
"420 309 OFFCURVE",
"355 320 CURVE"
);
},
{
closed = 1;
nodes = (
"308 541 OFFCURVE",
"331 522 OFFCURVE",
"331 464 CURVE SMOOTH",
"331 405 OFFCURVE",
"308 378 OFFCURVE",
"250 378 CURVE SMOOTH",
"215 378 LINE",
"215 541 LINE",
"250 541 LINE SMOOTH"
);
},
{
closed = 1;
nodes = (
"215 89 LINE",
"215 278 LINE",
"250 278 LINE SMOOTH",
"313 278 OFFCURVE",
"337 251 OFFCURVE",
"337 181 CURVE SMOOTH",
"337 123 OFFCURVE",
"320 89 OFFCURVE",
"250 89 CURVE SMOOTH"
);
}
);
width = 506;
},
{
layerId = "B817C739-5D48-43E8-AAEE-CE891513D7BC";
name = "Bold Condensed";
paths = (
{
closed = 1;
nodes = (
"335 324 LINE",
"412 339 OFFCURVE",
"448 386 OFFCURVE",
"448 470 CURVE SMOOTH",
"448 583 OFFCURVE",
"383 630 OFFCURVE",
"229 630 CURVE SMOOTH",
"7 630 LINE",
"7 522 LINE",
"25 522 LINE SMOOTH",
"43 522 OFFCURVE",
"51 512 OFFCURVE",
"51 490 CURVE SMOOTH",
"51 138 LINE SMOOTH",
"51 118 OFFCURVE",
"42 107 OFFCURVE",
"26 107 CURVE SMOOTH",
"7 107 LINE",
"7 -1 LINE",
"269 -1 LINE SMOOTH",
"389 -1 OFFCURVE",
"458 61 OFFCURVE",
"458 168 CURVE SMOOTH",
"458 252 OFFCURVE",
"415 306 OFFCURVE",
"335 320 CURVE"
);
},
{
closed = 1;
nodes = (
"265 523 OFFCURVE",
"278 503 OFFCURVE",
"278 452 CURVE SMOOTH",
"278 397 OFFCURVE",
"263 372 OFFCURVE",
"230 372 CURVE SMOOTH",
"215 372 LINE",
"215 523 LINE",
"230 523 LINE SMOOTH"
);
},
{
closed = 1;
nodes = (
"215 107 LINE",
"215 264 LINE",
"235 264 LINE SMOOTH",
"264 264 OFFCURVE",
"277 239 OFFCURVE",
"277 186 CURVE SMOOTH",
"277 132 OFFCURVE",
"264 107 OFFCURVE",
"235 107 CURVE SMOOTH"
);
}
);
width = 470;
},
{
layerId = UUID0;
name = "Light Extended";
paths = (
{
closed = 1;
nodes = (
"533 333 LINE",
"593 358 OFFCURVE",
"628 405 OFFCURVE",
"628 476 CURVE SMOOTH",
"628 576 OFFCURVE",
"559 631 OFFCURVE",
"416 631 CURVE SMOOTH",
"30 631 LINE",
"30 595 LINE",
"99 595 LINE SMOOTH",
"122 595 OFFCURVE",
"130 587 OFFCURVE",
"130 563 CURVE SMOOTH",
"130 65 LINE SMOOTH",
"130 47 OFFCURVE",
"121 36 OFFCURVE",
"104 36 CURVE SMOOTH",
"31 36 LINE",
"31 0 LINE",
"426 0 LINE SMOOTH",
"577 0 OFFCURVE",
"648 59 OFFCURVE",
"648 170 CURVE SMOOTH",
"648 254 OFFCURVE",
"607 311 OFFCURVE",
"533 331 CURVE"
);
},
{
closed = 1;
nodes = (
"532 590 OFFCURVE",
"583 551 OFFCURVE",
"583 471 CURVE SMOOTH",
"583 388 OFFCURVE",
"530 349 OFFCURVE",
"407 349 CURVE SMOOTH",
"171 349 LINE",
"171 590 LINE",
"417 590 LINE SMOOTH"
);
},
{
closed = 1;
nodes = (
"171 41 LINE",
"171 312 LINE",
"417 312 LINE SMOOTH",
"543 312 OFFCURVE",
"599 266 OFFCURVE",
"599 171 CURVE SMOOTH",
"599 82 OFFCURVE",
"549 41 OFFCURVE",
"427 41 CURVE SMOOTH"
);
}
);
width = 698;
},
{
hints = (
{
place = "{363.920892, 0.000000}";
}
);
layerId = "4355E1B8-19E6-44BD-A1D7-6E3C2DECA4C8";
name = Extended;
paths = (
{
closed = 1;
nodes = (
"626 324 LINE",
"702 340 OFFCURVE",
"742 392 OFFCURVE",
"742 470 CURVE SMOOTH",
"742 579 OFFCURVE",
"673 633 OFFCURVE",
"530 633 CURVE SMOOTH",
"22 633 LINE",
"22 543 LINE",
"98 543 LINE SMOOTH",
"116 543 OFFCURVE",
"124 533 OFFCURVE",
"124 511 CURVE SMOOTH",
"124 120 LINE SMOOTH",
"124 100 OFFCURVE",
"116 89 OFFCURVE",
"100 89 CURVE SMOOTH",
"22 89 LINE",
"22 -1 LINE",
"550 -1 LINE SMOOTH",
"672 -1 OFFCURVE",
"752 70 OFFCURVE",
"752 167 CURVE SMOOTH",
"752 242 OFFCURVE",
"701 307 OFFCURVE",
"626 320 CURVE"
);
},
{
closed = 1;
nodes = (
"567 544 OFFCURVE",
"602 515 OFFCURVE",
"602 463 CURVE SMOOTH",
"602 411 OFFCURVE",
"561 378 OFFCURVE",
"487 378 CURVE SMOOTH",
"262 378 LINE",
"262 544 LINE",
"497 544 LINE SMOOTH"
);
},
{
closed = 1;
nodes = (
"262 89 LINE",
"262 278 LINE",
"487 278 LINE SMOOTH",
"573 278 OFFCURVE",
"608 247 OFFCURVE",
"608 182 CURVE SMOOTH",
"608 116 OFFCURVE",
"571 89 OFFCURVE",
"467 89 CURVE SMOOTH"
);
}
);
width = 802;
},
{
layerId = "14C77FDB-037D-4842-9381-6D9ED15DD48C";
name = "Bold Extended";
paths = (
{
closed = 1;
nodes = (
"661 341 LINE",
"736 369 OFFCURVE",
"771 420 OFFCURVE",
"771 487 CURVE SMOOTH",
"771 579 OFFCURVE",
"704 631 OFFCURVE",
"578 631 CURVE SMOOTH",
"17 631 LINE",
"17 479 LINE",
"80 479 LINE SMOOTH",
"98 479 OFFCURVE",
"106 469 OFFCURVE",
"106 447 CURVE SMOOTH",
"106 183 LINE SMOOTH",
"106 163 OFFCURVE",
"97 152 OFFCURVE",
"81 152 CURVE SMOOTH",
"17 152 LINE",
"17 0 LINE",
"578 0 LINE SMOOTH",
"703 0 OFFCURVE",
"781 72 OFFCURVE",
"781 173 CURVE SMOOTH",
"781 248 OFFCURVE",
"737 310 OFFCURVE",
"661 337 CURVE"
);
},
{
closed = 1;
nodes = (
"511 480 OFFCURVE",
"527 464 OFFCURVE",
"527 432 CURVE SMOOTH",
"527 399 OFFCURVE",
"510 383 OFFCURVE",
"475 383 CURVE SMOOTH",
"356 383 LINE",
"356 480 LINE",
"479 480 LINE SMOOTH"
);
},
{
closed = 1;
nodes = (
"356 152 LINE",
"356 235 LINE",
"484 235 LINE SMOOTH",
"512 235 OFFCURVE",
"526 218 OFFCURVE",
"526 194 CURVE SMOOTH",
"526 170 OFFCURVE",
"512 152 OFFCURVE",
"484 152 CURVE SMOOTH"
);
}
);
width = 816;
}
);
leftMetricsKey = H;
unicode = 0042;
},
{
glyphname = C;
lastChange = "2015-04-01 22:29:27 +0000";
layers = (
{
layerId = "E9E6D55E-9446-45F2-B66C-3272698B0216";
name = "Light Condensed";
paths = (
{
closed = 1;
nodes = (
"120 28 OFFCURVE",
"76 104 OFFCURVE",
"76 314 CURVE SMOOTH",
"76 522 OFFCURVE",
"120 597 OFFCURVE",
"225 597 CURVE SMOOTH",
"299 597 OFFCURVE",
"350 560 OFFCURVE",
"350 401 CURVE",
"381 401 LINE",
"381 630 LINE",
"360 630 LINE",
"354 571 LINE",
"350 571 LINE",
"322 614 OFFCURVE",
"288 634 OFFCURVE",
"225 634 CURVE SMOOTH",
"87 634 OFFCURVE",
"30 537 OFFCURVE",
"30 313 CURVE SMOOTH",
"30 92 OFFCURVE",
"85 -10 OFFCURVE",
"218 -10 CURVE SMOOTH",
"330 -10 OFFCURVE",
"385 62 OFFCURVE",
"385 232 CURVE",
"350 232 LINE",
"350 68 OFFCURVE",
"296 28 OFFCURVE",
"222 28 CURVE SMOOTH"
);
}
);
width = 415;
},
{
layerId = "B25F85BC-C782-4067-8484-07202F80B8CD";
name = Condensed;
paths = (
{
closed = 1;
nodes = (
"214 93 OFFCURVE",
"187 137 OFFCURVE",
"187 312 CURVE SMOOTH",
"187 472 OFFCURVE",
"210 536 OFFCURVE",
"265 536 CURVE SMOOTH",
"317 536 OFFCURVE",
"326 477 OFFCURVE",
"326 384 CURVE",
"427 384 LINE",
"427 630 LINE",
"345 630 LINE",
"333 574 LINE",
"329 574 LINE",
"310 615 OFFCURVE",
"272 640 OFFCURVE",
"212 640 CURVE SMOOTH",
"102 640 OFFCURVE",
"35 556 OFFCURVE",
"35 321 CURVE SMOOTH",
"35 84 OFFCURVE",
"102 -10 OFFCURVE",
"243 -10 CURVE SMOOTH",
"382 -10 OFFCURVE",
"427 81 OFFCURVE",
"427 272 CURVE",
"328 272 LINE",
"328 124 OFFCURVE",
"302 93 OFFCURVE",
"262 93 CURVE SMOOTH"
);
}
);
width = 457;
},
{
layerId = "B817C739-5D48-43E8-AAEE-CE891513D7BC";
name = "Bold Condensed";
paths = (
{
closed = 1;
nodes = (
"219 128 OFFCURVE",
"214 148 OFFCURVE",
"214 294 CURVE SMOOTH",
"214 482 OFFCURVE",
"222 502 OFFCURVE",
"246 502 CURVE SMOOTH",
"268 502 OFFCURVE",
"277 486 OFFCURVE",
"277 354 CURVE",
"428 354 LINE",
"428 630 LINE",
"307 630 LINE",
"301 588 LINE",
"297 588 LINE",
"284 621 OFFCURVE",
"251 640 OFFCURVE",
"193 640 CURVE SMOOTH",
"77 640 OFFCURVE",
"16 558 OFFCURVE",
"16 327 CURVE SMOOTH",
"16 85 OFFCURVE",
"82 -10 OFFCURVE",
"231 -10 CURVE SMOOTH",
"373 -10 OFFCURVE",
"428 77 OFFCURVE",
"428 292 CURVE",
"277 292 LINE",
"277 154 OFFCURVE",
"272 128 OFFCURVE",
"244 128 CURVE SMOOTH"
);
}
);
width = 448;
},
{
background = {
paths = (
{
closed = 0;
nodes = (
"626 441 LINE",
"656 441 LINE",
"656 665 LINE",
"628 665 LINE",
"622 609 LINE",
"618 609 LINE"
);
}
);
};
guideLines = (
{
position = "{541, 240}";
}
);
layerId = UUID0;
name = "Light Extended";
paths = (
{
closed = 1;
nodes = (
"212 31 OFFCURVE",
"124 135 OFFCURVE",
"124 315 CURVE SMOOTH",
"124 497 OFFCURVE",
"213 601 OFFCURVE",
"390 601 CURVE SMOOTH",
"517 601 OFFCURVE",
"597 547 OFFCURVE",
"624 408 CURVE",
"656 408 LINE",
"656 630 LINE",
"628 630 LINE",
"616 534 LINE",
"612 534 LINE",
"575 596 OFFCURVE",
"504 642 OFFCURVE",
"384 642 CURVE SMOOTH",
"189 642 OFFCURVE",
"75 521 OFFCURVE",
"75 315 CURVE SMOOTH",
"75 112 OFFCURVE",
"186 -10 OFFCURVE",
"382 -10 CURVE SMOOTH",
"559 -10 OFFCURVE",
"666 89 OFFCURVE",
"666 242 CURVE",
"623 242 LINE",
"623 110 OFFCURVE",
"539 31 OFFCURVE",
"387 31 CURVE SMOOTH"
);
}
);
width = 731;
},
{
layerId = "4355E1B8-19E6-44BD-A1D7-6E3C2DECA4C8";
name = Extended;
paths = (
{
closed = 1;
nodes = (
"294 93 OFFCURVE",
"204 142 OFFCURVE",
"204 314 CURVE SMOOTH",
"204 455 OFFCURVE",
"268 537 OFFCURVE",
"400 537 CURVE SMOOTH",
"504 537 OFFCURVE",
"567 487 OFFCURVE",
"577 384 CURVE",
"680 384 LINE",
"680 630 LINE",
"577 630 LINE",
"566 573 LINE",
"562 573 LINE",
"528 615 OFFCURVE",
"475 640 OFFCURVE",
"387 640 CURVE SMOOTH",
"187 640 OFFCURVE",
"56 509 OFFCURVE",
"56 312 CURVE SMOOTH",
"56 124 OFFCURVE",
"174 -10 OFFCURVE",
"388 -10 CURVE SMOOTH",
"597 -10 OFFCURVE",
"686 119 OFFCURVE",
"686 272 CURVE",
"583 272 LINE",
"583 150 OFFCURVE",
"517 93 OFFCURVE",
"401 93 CURVE SMOOTH"
);
}
);
width = 741;
},
{
layerId = "14C77FDB-037D-4842-9381-6D9ED15DD48C";
name = "Bold Extended";
paths = (
{
closed = 1;
nodes = (
"331 175 OFFCURVE",
"300 216 OFFCURVE",
"300 313 CURVE SMOOTH",
"300 402 OFFCURVE",
"327 455 OFFCURVE",
"404 455 CURVE SMOOTH",
"468 455 OFFCURVE",
"500 419 OFFCURVE",
"500 346 CURVE",
"710 346 LINE",
"710 630 LINE",
"527 630 LINE",
"515 589 LINE",
"511 589 LINE",
"488 617 OFFCURVE",
"441 640 OFFCURVE",
"352 640 CURVE SMOOTH",
"147 640 OFFCURVE",
"17 518 OFFCURVE",
"17 317 CURVE SMOOTH",
"17 123 OFFCURVE",
"138 -10 OFFCURVE",
"378 -10 CURVE SMOOTH",
"632 -10 OFFCURVE",
"716 139 OFFCURVE",
"716 302 CURVE",
"503 302 LINE",
"503 216 OFFCURVE",
"473 175 OFFCURVE",
"402 175 CURVE SMOOTH"
);
}
);
width = 731;
}
);
leftMetricsKey = O;
unicode = 0043;
},
{
glyphname = D;
lastChange = "2015-04-01 21:56:09 +0000";
layers = (
{
layerId = "E9E6D55E-9446-45F2-B66C-3272698B0216";
name = "Light Condensed";
paths = (
{
closed = 1;
nodes = (
"13 0 LINE",
"224 0 LINE SMOOTH",
"336 0 OFFCURVE",
"432 94 OFFCURVE",
"432 319 CURVE SMOOTH",
"432 539 OFFCURVE",
"339 630 OFFCURVE",
"214 630 CURVE SMOOTH",
"13 630 LINE",
"13 600 LINE",
"47 600 LINE SMOOTH",
"74 600 OFFCURVE",
"85 577 OFFCURVE",
"85 538 CURVE SMOOTH",
"85 91 LINE SMOOTH",
"85 53 OFFCURVE",
"73 30 OFFCURVE",
"47 30 CURVE SMOOTH",
"13 30 LINE"
);
},
{
closed = 1;
nodes = (
"127 598 LINE",
"214 598 LINE SMOOTH",
"326 598 OFFCURVE",
"387 489 OFFCURVE",
"387 316 CURVE SMOOTH",
"387 136 OFFCURVE",
"321 32 OFFCURVE",
"225 32 CURVE SMOOTH",
"127 32 LINE"
);
}
);
width = 452;
},
{
layerId = "B25F85BC-C782-4067-8484-07202F80B8CD";
name = Condensed;
paths = (
{
closed = 1;
nodes = (
"15 0 LINE",
"277 0 LINE SMOOTH",
"434 0 OFFCURVE",
"518 120 OFFCURVE",
"518 315 CURVE SMOOTH",
"518 509 OFFCURVE",
"434 630 OFFCURVE",
"278 630 CURVE SMOOTH",
"15 630 LINE",
"15 540 LINE",
"50 540 LINE SMOOTH",
"71 540 OFFCURVE",
"77 527 OFFCURVE",
"77 508 CURVE SMOOTH",
"77 122 LINE SMOOTH",
"77 103 OFFCURVE",
"71 90 OFFCURVE",
"50 90 CURVE SMOOTH",
"15 90 LINE"
);
},
{
closed = 1;
nodes = (
"215 540 LINE",
"281 540 LINE SMOOTH",
"340 540 OFFCURVE",
"369 490 OFFCURVE",
"369 310 CURVE SMOOTH",
"369 137 OFFCURVE",
"343 90 OFFCURVE",
"282 90 CURVE SMOOTH",
"215 90 LINE"
);
}
);
width = 553;
},
{
layerId = "B817C739-5D48-43E8-AAEE-CE891513D7BC";
name = "Bold Condensed";
paths = (
{
closed = 1;
nodes = (
"7 0 LINE",
"244 0 LINE SMOOTH",
"378 0 OFFCURVE",
"485 94 OFFCURVE",
"485 320 CURVE SMOOTH",
"485 539 OFFCURVE",
"383 630 OFFCURVE",
"234 630 CURVE SMOOTH",
"7 630 LINE",
"7 522 LINE",
"24 522 LINE SMOOTH",
"44 522 OFFCURVE",
"51 511 OFFCURVE",
"51 490 CURVE SMOOTH",
"51 139 LINE SMOOTH",
"51 119 OFFCURVE",
"43 108 OFFCURVE",
"24 108 CURVE SMOOTH",
"7 108 LINE"
);
},
{
closed = 1;
nodes = (
"231 517 LINE",
"256 517 LINE SMOOTH",
"285 517 OFFCURVE",
"294 493 OFFCURVE",
"294 322 CURVE SMOOTH",
"294 131 OFFCURVE",
"283 113 OFFCURVE",
"257 113 CURVE SMOOTH",
"231 113 LINE"
);
}
);
width = 499;
},
{
layerId = UUID0;
name = "Light Extended";
paths = (
{
closed = 1;
nodes = (
"31 0 LINE",
"377 0 LINE SMOOTH",
"583 0 OFFCURVE",
"711 97 OFFCURVE",
"711 312 CURVE SMOOTH",
"711 529 OFFCURVE",
"581 630 OFFCURVE",
"378 630 CURVE SMOOTH",
"30 630 LINE",
"30 594 LINE",
"103 594 LINE SMOOTH",
"124 594 OFFCURVE",
"130 581 OFFCURVE",
"130 562 CURVE SMOOTH",
"130 68 LINE SMOOTH",
"130 49 OFFCURVE",
"124 36 OFFCURVE",
"103 36 CURVE SMOOTH",
"31 36 LINE"
);
},
{
closed = 1;
nodes = (
"178 594 LINE",
"378 594 LINE SMOOTH",
"551 594 OFFCURVE",
"662 526 OFFCURVE",
"662 315 CURVE SMOOTH",
"662 99 OFFCURVE",
"545 36 OFFCURVE",
"377 36 CURVE SMOOTH",
"178 36 LINE"
);
}
);
width = 786;
},
{
layerId = "4355E1B8-19E6-44BD-A1D7-6E3C2DECA4C8";
name = Extended;
paths = (
{
closed = 1;
nodes = (
"22 0 LINE",
"419 0 LINE SMOOTH",
"642 0 OFFCURVE",
"770 120 OFFCURVE",
"770 314 CURVE SMOOTH",
"770 509 OFFCURVE",
"642 630 OFFCURVE",
"420 630 CURVE SMOOTH",
"22 630 LINE",
"22 540 LINE",
"97 540 LINE SMOOTH",
"118 540 OFFCURVE",
"124 527 OFFCURVE",
"124 508 CURVE SMOOTH",
"124 122 LINE SMOOTH",
"124 103 OFFCURVE",
"118 90 OFFCURVE",
"97 90 CURVE SMOOTH",
"22 90 LINE"
);
},
{
closed = 1;
nodes = (
"262 540 LINE",
"423 540 LINE SMOOTH",
"559 540 OFFCURVE",
"621 479 OFFCURVE",
"621 311 CURVE SMOOTH",
"621 146 OFFCURVE",
"562 90 OFFCURVE",
"424 90 CURVE SMOOTH",
"262 90 LINE"
);
}
);
width = 825;
},
{
layerId = "14C77FDB-037D-4842-9381-6D9ED15DD48C";
name = "Bold Extended";
paths = (
{
closed = 1;
nodes = (
"17 0 LINE",
"441 0 LINE SMOOTH",
"691 0 OFFCURVE",
"827 103 OFFCURVE",
"827 314 CURVE SMOOTH",
"827 527 OFFCURVE",
"689 630 OFFCURVE",
"442 630 CURVE SMOOTH",
"17 630 LINE",
"17 478 LINE",
"79 478 LINE SMOOTH",
"100 478 OFFCURVE",
"106 465 OFFCURVE",
"106 446 CURVE SMOOTH",
"106 184 LINE SMOOTH",
"106 165 OFFCURVE",
"100 152 OFFCURVE",
"79 152 CURVE SMOOTH",
"17 152 LINE"
);
},
{
closed = 1;
nodes = (
"356 466 LINE",
"442 466 LINE SMOOTH",
"511 466 OFFCURVE",
"544 427 OFFCURVE",
"544 309 CURVE SMOOTH",
"544 184 OFFCURVE",
"507 152 OFFCURVE",
"442 152 CURVE SMOOTH",
"356 152 LINE"
);
}
);
width = 844;
}
);
leftMetricsKey = H;
unicode = 0044;
},
{
glyphname = E;
lastChange = "2015-04-01 21:56:09 +0000";
layers = (
{
layerId = "E9E6D55E-9446-45F2-B66C-3272698B0216";
name = "Light Condensed";
paths = (
{
closed = 1;
nodes = (
"13 0 LINE",
"378 0 LINE",
"378 209 LINE",
"346 209 LINE",
"346 53 OFFCURVE",
"329 30 OFFCURVE",
"284 30 CURVE SMOOTH",
"128 30 LINE",
"128 303 LINE",
"201 303 LINE SMOOTH",
"238 303 OFFCURVE",
"242 284 OFFCURVE",
"244 180 CURVE",
"276 180 LINE",
"276 446 LINE",
"244 446 LINE",
"242 354 OFFCURVE",
"238 335 OFFCURVE",
"201 335 CURVE SMOOTH",
"128 335 LINE",
"128 600 LINE",
"284 600 LINE SMOOTH",
"327 600 OFFCURVE",
"346 577 OFFCURVE",
"346 438 CURVE",
"378 438 LINE",
"378 630 LINE",
"16 630 LINE",
"16 600 LINE",
"39 600 LINE SMOOTH",
"72 600 OFFCURVE",
"85 585 OFFCURVE",
"85 558 CURVE SMOOTH",
"85 71 LINE SMOOTH",
"85 45 OFFCURVE",
"71 30 OFFCURVE",
"40 30 CURVE SMOOTH",
"13 30 LINE"
);
}
);
width = 428;
},
{
layerId = "B25F85BC-C782-4067-8484-07202F80B8CD";
name = Condensed;
paths = (
{
closed = 1;
nodes = (
"15 0 LINE",
"493 0 LINE",
"493 272 LINE",
"374 272 LINE",
"374 112 OFFCURVE",
"361 90 OFFCURVE",
"314 90 CURVE SMOOTH",
"215 90 LINE",
"215 268 LINE",
"220 268 LINE SMOOTH",
"256 268 OFFCURVE",
"262 246 OFFCURVE",
"262 168 CURVE",
"333 168 LINE",
"333 448 LINE",
"262 448 LINE",
"262 366 OFFCURVE",
"257 350 OFFCURVE",
"220 350 CURVE SMOOTH",
"215 350 LINE",
"215 540 LINE",
"312 540 LINE SMOOTH",
"354 540 OFFCURVE",
"374 507 OFFCURVE",
"374 354 CURVE",
"493 354 LINE",
"493 630 LINE",
"15 630 LINE",
"15 540 LINE",
"51 540 LINE SMOOTH",
"71 540 OFFCURVE",
"77 529 OFFCURVE",
"77 504 CURVE SMOOTH",
"77 123 LINE SMOOTH",
"77 102 OFFCURVE",
"71 90 OFFCURVE",
"52 90 CURVE SMOOTH",
"15 90 LINE"
);
}
);
width = 533;
},
{
layerId = "B817C739-5D48-43E8-AAEE-CE891513D7BC";
name = "Bold Condensed";
paths = (
{
closed = 1;
nodes = (
"7 0 LINE",
"474 0 LINE",
"474 296 LINE",
"323 296 LINE",
"323 130 OFFCURVE",
"306 108 OFFCURVE",
"274 108 CURVE SMOOTH",
"231 108 LINE",
"231 304 LINE",
"234 304 LINE",
"245 304 OFFCURVE",
"248 297 OFFCURVE",
"248 211 CURVE",
"305 211 LINE",
"305 428 LINE",
"248 428 LINE",
"248 347 OFFCURVE",
"245 336 OFFCURVE",
"234 336 CURVE SMOOTH",
"231 336 LINE",
"231 522 LINE",
"271 522 LINE SMOOTH",
"306 522 OFFCURVE",
"323 499 OFFCURVE",
"323 342 CURVE",
"474 342 LINE",
"474 630 LINE",
"7 630 LINE",
"7 522 LINE",
"25 522 LINE SMOOTH",
"45 522 OFFCURVE",
"51 511 OFFCURVE",
"51 486 CURVE SMOOTH",
"51 141 LINE SMOOTH",
"51 120 OFFCURVE",
"44 108 OFFCURVE",
"26 108 CURVE SMOOTH",
"7 108 LINE"
);
}
);
width = 509;
},
{
layerId = UUID0;
name = "Light Extended";
paths = (
{
closed = 1;
nodes = (
"31 0 LINE",
"623 0 LINE",
"623 211 LINE",
"591 211 LINE",
"591 78 OFFCURVE",
"586 36 OFFCURVE",
"529 36 CURVE SMOOTH",
"178 36 LINE",
"178 303 LINE",
"386 303 LINE SMOOTH",
"423 303 OFFCURVE",
"427 284 OFFCURVE",
"429 190 CURVE",
"461 190 LINE",
"461 446 LINE",
"429 446 LINE",
"427 354 OFFCURVE",
"423 335 OFFCURVE",
"386 335 CURVE SMOOTH",
"178 335 LINE",
"178 594 LINE",
"529 594 LINE SMOOTH",
"586 594 OFFCURVE",
"591 549 OFFCURVE",
"591 418 CURVE",
"623 418 LINE",
"623 630 LINE",
"30 630 LINE",
"30 594 LINE",
"104 594 LINE SMOOTH",
"123 594 OFFCURVE",
"130 583 OFFCURVE",
"130 562 CURVE SMOOTH",
"130 67 LINE SMOOTH",
"130 47 OFFCURVE",
"122 36 OFFCURVE",
"105 36 CURVE SMOOTH",
"31 36 LINE"
);
}
);
width = 713;
},
{
layerId = "4355E1B8-19E6-44BD-A1D7-6E3C2DECA4C8";
name = Extended;
paths = (
{
closed = 1;
nodes = (
"22 0 LINE",
"709 0 LINE",
"709 269 LINE",
"591 269 LINE",
"591 132 OFFCURVE",
"570 90 OFFCURVE",
"493 90 CURVE SMOOTH",
"262 90 LINE",
"262 278 LINE",
"320 278 LINE SMOOTH",
"377 278 OFFCURVE",
"389 260 OFFCURVE",
"389 196 CURVE",
"485 196 LINE",
"485 448 LINE",
"389 448 LINE",
"389 376 OFFCURVE",
"378 360 OFFCURVE",
"320 360 CURVE SMOOTH",
"262 360 LINE",
"262 540 LINE",
"486 540 LINE SMOOTH",
"564 540 OFFCURVE",
"591 497 OFFCURVE",
"591 354 CURVE",
"709 354 LINE",
"709 630 LINE",
"22 630 LINE",
"22 540 LINE",
"98 540 LINE SMOOTH",
"118 540 OFFCURVE",
"124 529 OFFCURVE",
"124 504 CURVE SMOOTH",
"124 123 LINE SMOOTH",
"124 102 OFFCURVE",
"118 90 OFFCURVE",
"99 90 CURVE SMOOTH",
"22 90 LINE"
);
}
);
width = 753;
},
{
layerId = "14C77FDB-037D-4842-9381-6D9ED15DD48C";
name = "Bold Extended";
paths = (
{
closed = 1;
nodes = (
"17 0 LINE",
"740 0 LINE",
"740 284 LINE",
"520 284 LINE",
"520 167 OFFCURVE",
"498 152 OFFCURVE",
"452 152 CURVE SMOOTH",
"356 152 LINE",
"356 270 LINE",
"362 270 LINE SMOOTH",
"379 270 OFFCURVE",
"393 240 OFFCURVE",
"393 213 CURVE",
"499 213 LINE",
"499 415 LINE",
"393 415 LINE",
"393 371 OFFCURVE",
"380 362 OFFCURVE",
"363 362 CURVE SMOOTH",
"356 362 LINE",
"356 478 LINE",
"448 478 LINE SMOOTH",
"497 478 OFFCURVE",
"520 466 OFFCURVE",
"520 346 CURVE",
"740 346 LINE",
"740 630 LINE",
"17 630 LINE",
"17 478 LINE",
"80 478 LINE SMOOTH",
"100 478 OFFCURVE",
"106 467 OFFCURVE",
"106 442 CURVE SMOOTH",
"106 185 LINE SMOOTH",
"106 164 OFFCURVE",
"100 152 OFFCURVE",
"81 152 CURVE SMOOTH",
"17 152 LINE"
);
}
);
width = 770;
}
);
leftMetricsKey = H;
unicode = 0045;
},
{
glyphname = F;
lastChange = "2015-04-01 21:56:09 +0000";
layers = (
{
layerId = "E9E6D55E-9446-45F2-B66C-3272698B0216";
name = "Light Condensed";
paths = (
{
closed = 1;
nodes = (
"13 0 LINE",
"230 0 LINE",
"230 30 LINE",
"173 30 LINE SMOOTH",
"142 30 OFFCURVE",
"128 45 OFFCURVE",
"128 71 CURVE SMOOTH",
"128 296 LINE",
"191 296 LINE SMOOTH",
"228 296 OFFCURVE",
"232 277 OFFCURVE",
"234 191 CURVE",
"266 191 LINE",
"266 422 LINE",
"234 422 LINE",
"232 347 OFFCURVE",
"228 328 OFFCURVE",
"191 328 CURVE SMOOTH",
"128 328 LINE",
"128 600 LINE",
"274 600 LINE SMOOTH",
"317 600 OFFCURVE",
"336 577 OFFCURVE",
"336 438 CURVE",
"368 438 LINE",
"368 630 LINE",
"16 630 LINE",
"16 600 LINE",
"39 600 LINE SMOOTH",
"72 600 OFFCURVE",
"85 585 OFFCURVE",
"85 558 CURVE SMOOTH",
"85 71 LINE SMOOTH",
"85 45 OFFCURVE",
"71 30 OFFCURVE",
"40 30 CURVE SMOOTH",
"13 30 LINE"
);
}
);
width = 408;
},
{
layerId = "B25F85BC-C782-4067-8484-07202F80B8CD";
name = Condensed;
paths = (
{
closed = 1;
nodes = (
"15 0 LINE",
"327 0 LINE",
"327 90 LINE",
"260 90 LINE SMOOTH",
"229 90 OFFCURVE",
"215 105 OFFCURVE",
"215 131 CURVE SMOOTH",
"215 275 LINE",
"220 275 LINE SMOOTH",
"256 275 OFFCURVE",
"262 256 OFFCURVE",
"262 186 CURVE",
"333 186 LINE",
"333 448 LINE",
"262 448 LINE",
"262 373 OFFCURVE",
"257 357 OFFCURVE",
"220 357 CURVE SMOOTH",
"215 357 LINE",
"215 540 LINE",
"308 540 LINE SMOOTH",
"353 540 OFFCURVE",
"374 517 OFFCURVE",
"374 361 CURVE",
"483 361 LINE",
"483 630 LINE",
"15 630 LINE",
"15 540 LINE",
"49 540 LINE SMOOTH",
"70 540 OFFCURVE",
"77 532 OFFCURVE",
"77 505 CURVE SMOOTH",
"77 121 LINE SMOOTH",
"77 98 OFFCURVE",
"67 90 OFFCURVE",
"52 90 CURVE SMOOTH",
"15 90 LINE"
);
}
);
width = 513;
},
{
layerId = "B817C739-5D48-43E8-AAEE-CE891513D7BC";
name = "Bold Condensed";
paths = (
{
closed = 1;
nodes = (
"7 0 LINE",
"327 0 LINE",
"327 108 LINE",
"260 108 LINE SMOOTH",
"245 108 OFFCURVE",
"231 123 OFFCURVE",
"231 149 CURVE SMOOTH",
"231 303 LINE",
"236 303 LINE SMOOTH",
"245 303 OFFCURVE",
"248 292 OFFCURVE",
"248 211 CURVE",
"305 211 LINE",
"305 428 LINE",
"248 428 LINE",
"248 341 OFFCURVE",
"243 335 OFFCURVE",
"236 335 CURVE SMOOTH",
"231 335 LINE",
"231 522 LINE",
"269 522 LINE SMOOTH",
"303 522 OFFCURVE",
"323 509 OFFCURVE",
"323 341 CURVE",
"474 341 LINE",
"474 630 LINE",
"7 630 LINE",
"7 522 LINE",
"23 522 LINE SMOOTH",
"43 522 OFFCURVE",
"51 514 OFFCURVE",
"51 487 CURVE SMOOTH",
"51 139 LINE SMOOTH",
"51 117 OFFCURVE",
"41 108 OFFCURVE",
"26 108 CURVE SMOOTH",
"7 108 LINE"
);
}
);
width = 509;
},
{
layerId = UUID0;
name = "Light Extended";
paths = (
{
closed = 1;
nodes = (
"31 0 LINE",
"274 0 LINE",
"274 36 LINE",
"207 36 LINE SMOOTH",
"192 36 OFFCURVE",
"178 51 OFFCURVE",
"178 77 CURVE SMOOTH",
"178 297 LINE",
"382 297 LINE SMOOTH",
"409 297 OFFCURVE",
"419 276 OFFCURVE",
"419 198 CURVE",
"451 198 LINE",
"451 429 LINE",
"419 429 LINE",
"419 345 OFFCURVE",
"409 329 OFFCURVE",
"382 329 CURVE SMOOTH",
"178 329 LINE",
"178 594 LINE",
"514 594 LINE SMOOTH",
"561 594 OFFCURVE",
"581 579 OFFCURVE",
"581 418 CURVE",
"613 418 LINE",
"613 630 LINE",
"30 630 LINE",
"30 594 LINE",
"102 594 LINE SMOOTH",
"122 594 OFFCURVE",
"130 586 OFFCURVE",
"130 558 CURVE SMOOTH",
"130 67 LINE SMOOTH",
"130 45 OFFCURVE",
"120 36 OFFCURVE",
"105 36 CURVE SMOOTH",
"31 36 LINE"
);
}
);
width = 693;
},
{
layerId = "4355E1B8-19E6-44BD-A1D7-6E3C2DECA4C8";
name = Extended;
paths = (
{
closed = 1;
nodes = (
"22 0 LINE",
"408 0 LINE",
"408 90 LINE",
"291 90 LINE SMOOTH",
"271 90 OFFCURVE",
"262 100 OFFCURVE",
"262 121 CURVE SMOOTH",
"262 270 LINE",
"326 270 LINE SMOOTH",
"376 270 OFFCURVE",
"389 249 OFFCURVE",
"389 191 CURVE",
"485 191 LINE",
"485 433 LINE",
"389 433 LINE",
"389 368 OFFCURVE",
"376 352 OFFCURVE",
"326 352 CURVE SMOOTH",
"262 352 LINE",
"262 540 LINE",
"478 540 LINE SMOOTH",
"548 540 OFFCURVE",
"581 505 OFFCURVE",
"581 371 CURVE",
"699 371 LINE",
"699 630 LINE",
"22 630 LINE",
"22 540 LINE",
"96 540 LINE SMOOTH",
"116 540 OFFCURVE",
"124 532 OFFCURVE",
"124 504 CURVE SMOOTH",
"124 121 LINE SMOOTH",
"124 99 OFFCURVE",
"114 90 OFFCURVE",
"99 90 CURVE SMOOTH",
"22 90 LINE"
);
}
);
width = 743;
},
{
layerId = "14C77FDB-037D-4842-9381-6D9ED15DD48C";
name = "Bold Extended";
paths = (
{
closed = 1;
nodes = (
"17 0 LINE",
"472 0 LINE",
"472 152 LINE",
"385 152 LINE SMOOTH",
"365 152 OFFCURVE",
"356 162 OFFCURVE",
"356 183 CURVE SMOOTH",
"356 264 LINE",
"363 264 LINE SMOOTH",
"380 264 OFFCURVE",
"393 241 OFFCURVE",
"393 213 CURVE",
"499 213 LINE",
"499 415 LINE",
"393 415 LINE",
"393 378 OFFCURVE",
"379 356 OFFCURVE",
"363 356 CURVE SMOOTH",
"356 356 LINE",
"356 478 LINE",
"458 478 LINE SMOOTH",
"504 478 OFFCURVE",
"520 443 OFFCURVE",
"520 347 CURVE",
"740 347 LINE",
"740 630 LINE",
"17 630 LINE",
"17 478 LINE",
"78 478 LINE SMOOTH",
"98 478 OFFCURVE",
"106 470 OFFCURVE",
"106 442 CURVE SMOOTH",
"106 183 LINE SMOOTH",
"106 161 OFFCURVE",
"96 152 OFFCURVE",
"81 152 CURVE SMOOTH",
"17 152 LINE"
);
}
);
width = 770;
}
);
leftMetricsKey = H;
unicode = 0046;
},
{
glyphname = G;
lastChange = "2015-04-01 21:56:09 +0000";
layers = (
{
layerId = "E9E6D55E-9446-45F2-B66C-3272698B0216";
name = "Light Condensed";
paths = (
{
closed = 1;
nodes = (
"117 28 OFFCURVE",
"76 109 OFFCURVE",
"76 313 CURVE SMOOTH",
"76 517 OFFCURVE",
"118 597 OFFCURVE",
"225 597 CURVE SMOOTH",
"313 597 OFFCURVE",
"350 538 OFFCURVE",
"350 400 CURVE",
"381 400 LINE",
"381 630 LINE",
"360 630 LINE",
"354 571 LINE",
"350 571 LINE",
"321 616 OFFCURVE",
"285 634 OFFCURVE",
"225 634 CURVE SMOOTH",
"88 634 OFFCURVE",
"30 539 OFFCURVE",
"30 315 CURVE SMOOTH",
"30 93 OFFCURVE",
"88 -10 OFFCURVE",
"212 -10 CURVE SMOOTH",
"313 -10 OFFCURVE",
"379 66 OFFCURVE",
"379 182 CURVE",
"344 182 LINE",
"344 78 OFFCURVE",
"304 28 OFFCURVE",
"222 28 CURVE SMOOTH"
);
},
{
closed = 1;
nodes = (
"265 271 LINE",
"298 271 LINE SMOOTH",
"329 271 OFFCURVE",
"344 258 OFFCURVE",
"344 229 CURVE SMOOTH",
"344 58 LINE",
"348 58 LINE",
"354 0 LINE",
"385 0 LINE",
"385 229 LINE SMOOTH",
"385 258 OFFCURVE",
"400 271 OFFCURVE",
"431 271 CURVE SMOOTH",
"450 271 LINE",
"450 301 LINE",
"265 301 LINE"
);
}
);
width = 450;
},
{
layerId = "B25F85BC-C782-4067-8484-07202F80B8CD";
name = Condensed;
paths = (
{
closed = 1;
nodes = (
"208 93 OFFCURVE",
"187 157 OFFCURVE",
"187 312 CURVE SMOOTH",
"187 474 OFFCURVE",
"211 536 OFFCURVE",
"275 536 CURVE SMOOTH",
"328 536 OFFCURVE",
"346 496 OFFCURVE",
"346 376 CURVE",
"452 376 LINE",
"452 630 LINE",
"365 630 LINE",
"353 574 LINE",
"349 574 LINE",
"327 619 OFFCURVE",
"289 640 OFFCURVE",
"227 640 CURVE SMOOTH",
"94 640 OFFCURVE",
"35 541 OFFCURVE",
"35 316 CURVE SMOOTH",
"35 97 OFFCURVE",
"92 -10 OFFCURVE",
"208 -10 CURVE SMOOTH",
"304 -10 OFFCURVE",
"367 71 OFFCURVE",
"367 194 CURVE",
"328 194 LINE",
"328 139 OFFCURVE",
"297 93 OFFCURVE",
"259 93 CURVE SMOOTH"
);
},
{
closed = 1;
nodes = (
"256 238 LINE",
"301 238 LINE SMOOTH",
"320 238 OFFCURVE",
"328 228 OFFCURVE",
"328 206 CURVE SMOOTH",
"328 51 LINE",
"332 51 LINE",
"352 0 LINE",
"461 0 LINE",
"461 206 LINE SMOOTH",
"461 227 OFFCURVE",
"469 238 OFFCURVE",
"484 238 CURVE SMOOTH",
"514 238 LINE",
"514 328 LINE",
"256 328 LINE"
);
}
);
width = 514;
},
{
layerId = "B817C739-5D48-43E8-AAEE-CE891513D7BC";
name = "Bold Condensed";
paths = (
{
closed = 1;
nodes = (
"220 128 OFFCURVE",
"215 155 OFFCURVE",
"215 309 CURVE SMOOTH",
"215 471 OFFCURVE",
"220 502 OFFCURVE",
"247 502 CURVE SMOOTH",
"272 502 OFFCURVE",
"278 472 OFFCURVE",
"278 348 CURVE",
"433 348 LINE",
"433 630 LINE",
"308 630 LINE",
"302 588 LINE",
"298 588 LINE",
"284 623 OFFCURVE",
"249 640 OFFCURVE",
"195 640 CURVE SMOOTH",
"70 640 OFFCURVE",
"17 545 OFFCURVE",
"17 320 CURVE SMOOTH",
"17 98 OFFCURVE",
"69 -10 OFFCURVE",
"176 -10 CURVE SMOOTH",
"280 -10 OFFCURVE",
"339 95 OFFCURVE",
"339 282 CURVE",
"280 172 LINE",
"280 142 OFFCURVE",
"270 128 OFFCURVE",
"248 128 CURVE SMOOTH"
);
},
{
closed = 1;
nodes = (
"236 216 LINE",
"254 216 LINE SMOOTH",
"272 216 OFFCURVE",
"280 206 OFFCURVE",
"280 184 CURVE SMOOTH",
"280 42 LINE",
"284 42 LINE",
"304 0 LINE",
"446 0 LINE",
"446 184 LINE SMOOTH",
"446 215 OFFCURVE",
"447 216 OFFCURVE",
"467 216 CURVE SMOOTH",
"480 216 LINE",
"480 324 LINE",
"236 324 LINE"
);
}
);
width = 480;
},
{
layerId = UUID0;
name = "Light Extended";
paths = (
{
closed = 1;
nodes = (
"216 31 OFFCURVE",
"124 130 OFFCURVE",
"124 315 CURVE SMOOTH",
"124 499 OFFCURVE",
"217 599 OFFCURVE",
"390 599 CURVE SMOOTH",
"524 599 OFFCURVE",
"598 538 OFFCURVE",
"624 406 CURVE",
"660 406 LINE",
"660 630 LINE",
"628 630 LINE",
"616 532 LINE",
"612 532 LINE",
"570 603 OFFCURVE",
"491 640 OFFCURVE",
"384 640 CURVE SMOOTH",
"189 640 OFFCURVE",
"75 519 OFFCURVE",
"75 314 CURVE SMOOTH",
"75 110 OFFCURVE",
"188 -10 OFFCURVE",
"382 -10 CURVE SMOOTH",
"554 -10 OFFCURVE",
"661 83 OFFCURVE",
"661 232 CURVE",
"618 232 LINE",
"618 104 OFFCURVE",
"535 31 OFFCURVE",
"388 31 CURVE SMOOTH"
);
},
{
closed = 1;
nodes = (
"498 294 LINE",
"591 294 LINE SMOOTH",
"610 294 OFFCURVE",
"618 284 OFFCURVE",
"618 262 CURVE SMOOTH",
"618 90 LINE",
"622 90 LINE",
"634 0 LINE",
"666 0 LINE",
"666 262 LINE SMOOTH",
"666 283 OFFCURVE",
"674 294 OFFCURVE",
"689 294 CURVE SMOOTH",
"746 294 LINE",
"746 330 LINE",
"498 330 LINE"
);
}
);
width = 766;
},
{
layerId = "4355E1B8-19E6-44BD-A1D7-6E3C2DECA4C8";
name = Extended;
paths = (
{
closed = 1;
nodes = (
"270 93 OFFCURVE",
"204 168 OFFCURVE",
"204 312 CURVE SMOOTH",
"204 460 OFFCURVE",
"271 537 OFFCURVE",
"400 537 CURVE SMOOTH",
"508 537 OFFCURVE",
"567 483 OFFCURVE",
"577 376 CURVE",
"680 376 LINE",
"680 630 LINE",
"577 630 LINE",
"566 573 LINE",
"562 573 LINE",
"525 618 OFFCURVE",
"468 640 OFFCURVE",
"387 640 CURVE SMOOTH",
"188 640 OFFCURVE",
"56 510 OFFCURVE",
"56 313 CURVE SMOOTH",
"56 120 OFFCURVE",
"181 -10 OFFCURVE",
"365 -10 CURVE SMOOTH",
"512 -10 OFFCURVE",
"635 95 OFFCURVE",
"635 221 CURVE",
"563 201 LINE",
"563 136 OFFCURVE",
"497 93 OFFCURVE",
"398 93 CURVE SMOOTH"
);
},
{
closed = 1;
nodes = (
"441 247 LINE",
"536 247 LINE SMOOTH",
"555 247 OFFCURVE",
"563 237 OFFCURVE",
"563 215 CURVE SMOOTH",
"563 62 LINE",
"567 62 LINE",
"601 0 LINE",
"701 0 LINE",
"701 215 LINE SMOOTH",
"701 231 OFFCURVE",
"712 247 OFFCURVE",
"724 247 CURVE SMOOTH",
"779 247 LINE",
"779 337 LINE",
"441 337 LINE"
);
}
);
width = 779;
},
{
layerId = "14C77FDB-037D-4842-9381-6D9ED15DD48C";
name = "Bold Extended";
paths = (
{
closed = 1;
nodes = (
"340 130 OFFCURVE",
"300 164 OFFCURVE",
"300 294 CURVE SMOOTH",
"300 407 OFFCURVE",
"330 455 OFFCURVE",
"404 455 CURVE SMOOTH",
"466 455 OFFCURVE",
"500 422 OFFCURVE",
"500 363 CURVE",
"710 363 LINE",
"710 630 LINE",
"527 630 LINE",
"515 589 LINE",
"511 589 LINE",
"484 622 OFFCURVE",
"428 640 OFFCURVE",
"350 640 CURVE SMOOTH",
"145 640 OFFCURVE",
"17 516 OFFCURVE",
"17 317 CURVE SMOOTH",
"17 122 OFFCURVE",
"139 -10 OFFCURVE",
"316 -10 CURVE SMOOTH",
"482 -10 OFFCURVE",
"616 105 OFFCURVE",
"616 246 CURVE",
"503 162 LINE",
"503 143 OFFCURVE",
"459 130 OFFCURVE",
"414 130 CURVE SMOOTH"
);
},
{
closed = 1;
nodes = (
"398 186 LINE",
"476 186 LINE SMOOTH",
"495 186 OFFCURVE",
"503 181 OFFCURVE",
"503 168 CURVE SMOOTH",
"503 45 LINE",
"507 45 LINE",
"557 0 LINE",
"737 0 LINE",
"737 154 LINE SMOOTH",
"737 185 OFFCURVE",
"738 186 OFFCURVE",
"760 186 CURVE SMOOTH",
"801 186 LINE",
"801 328 LINE",
"398 328 LINE"
);
}
);
width = 791;
}
);
leftMetricsKey = O;
unicode = 0047;
},
{
glyphname = H;
lastChange = "2015-04-01 21:56:09 +0000";
layers = (
{
layerId = "E9E6D55E-9446-45F2-B66C-3272698B0216";
name = "Light Condensed";
paths = (
{
closed = 1;
nodes = (
"13 0 LINE",
"199 0 LINE",
"199 30 LINE",
"162 30 LINE SMOOTH",
"138 30 OFFCURVE",
"127 45 OFFCURVE",
"127 71 CURVE",
"127 558 LINE",
"127 585 OFFCURVE",
"137 600 OFFCURVE",
"163 600 CURVE SMOOTH",
"199 600 LINE",
"199 630 LINE",
"13 630 LINE",
"13 600 LINE",
"49 600 LINE SMOOTH",
"75 600 OFFCURVE",
"85 585 OFFCURVE",
"85 558 CURVE SMOOTH",
"85 71 LINE SMOOTH",
"85 45 OFFCURVE",
"74 30 OFFCURVE",
"50 30 CURVE SMOOTH",
"13 30 LINE"
);
},
{
closed = 1;
nodes = (
"119 303 LINE",
"369 303 LINE",
"369 335 LINE",
"119 335 LINE"
);
},
{
closed = 1;
nodes = (
"289 0 LINE",
"474 0 LINE",
"474 30 LINE",
"438 30 LINE SMOOTH",
"414 30 OFFCURVE",
"403 45 OFFCURVE",
"403 71 CURVE SMOOTH",
"403 558 LINE SMOOTH",
"403 584 OFFCURVE",
"413 600 OFFCURVE",
"439 600 CURVE SMOOTH",
"474 600 LINE",
"474 630 LINE",
"289 630 LINE",
"289 600 LINE",
"325 600 LINE SMOOTH",
"351 600 OFFCURVE",
"361 585 OFFCURVE",
"361 558 CURVE",
"361 71 LINE",
"361 45 OFFCURVE",
"350 30 OFFCURVE",
"326 30 CURVE SMOOTH",
"289 30 LINE"
);
}
);
width = 487;
},
{
layerId = "B25F85BC-C782-4067-8484-07202F80B8CD";
name = Condensed;
paths = (
{
closed = 1;
nodes = (
"15 0 LINE",
"263 0 LINE",
"263 90 LINE",
"238 90 LINE SMOOTH",
"221 90 OFFCURVE",
"215 103 OFFCURVE",
"215 122 CURVE SMOOTH",
"215 508 LINE SMOOTH",
"215 527 OFFCURVE",
"221 540 OFFCURVE",
"238 540 CURVE SMOOTH",
"263 540 LINE",
"263 630 LINE",
"15 630 LINE",
"15 540 LINE",
"50 540 LINE SMOOTH",
"71 540 OFFCURVE",
"77 527 OFFCURVE",
"77 508 CURVE SMOOTH",
"77 122 LINE SMOOTH",
"77 103 OFFCURVE",
"71 90 OFFCURVE",
"50 90 CURVE SMOOTH",
"15 90 LINE"
);
},
{
closed = 1;
nodes = (
"116 271 LINE",
"418 271 LINE",
"418 371 LINE",
"116 371 LINE"
);
},
{
closed = 1;
nodes = (
"291 0 LINE",
"549 0 LINE",
"549 90 LINE",
"504 90 LINE SMOOTH",
"487 90 OFFCURVE",
"481 103 OFFCURVE",
"481 122 CURVE SMOOTH",
"481 508 LINE SMOOTH",
"481 527 OFFCURVE",
"487 540 OFFCURVE",
"504 540 CURVE SMOOTH",
"549 540 LINE",
"549 630 LINE",
"291 630 LINE",
"291 540 LINE",
"316 540 LINE SMOOTH",
"337 540 OFFCURVE",
"343 527 OFFCURVE",
"343 508 CURVE SMOOTH",
"343 122 LINE SMOOTH",
"343 103 OFFCURVE",
"337 90 OFFCURVE",
"316 90 CURVE SMOOTH",
"291 90 LINE"
);
}
);
width = 564;
},
{
layerId = "B817C739-5D48-43E8-AAEE-CE891513D7BC";
name = "Bold Condensed";
paths = (
{
closed = 1;
nodes = (
"7 0 LINE",
"251 0 LINE",
"251 108 LINE",
"244 108 LINE SMOOTH",
"235 108 OFFCURVE",
"231 111 OFFCURVE",
"231 121 CURVE SMOOTH",
"231 509 LINE SMOOTH",
"231 517 OFFCURVE",
"234 522 OFFCURVE",
"244 522 CURVE SMOOTH",
"251 522 LINE",
"251 630 LINE",
"7 630 LINE",
"7 522 LINE",
"25 522 LINE SMOOTH",
"44 522 OFFCURVE",
"51 511 OFFCURVE",
"51 490 CURVE SMOOTH",
"51 139 LINE SMOOTH",
"51 119 OFFCURVE",
"43 108 OFFCURVE",
"26 108 CURVE SMOOTH",
"7 108 LINE"
);
},
{
closed = 1;
nodes = (
"215 268 LINE",
"301 268 LINE",
"301 376 LINE",
"215 376 LINE"
);
},
{
closed = 1;
nodes = (
"265 0 LINE",
"509 0 LINE",
"509 108 LINE",
"490 108 LINE SMOOTH",
"473 108 OFFCURVE",
"465 119 OFFCURVE",
"465 139 CURVE SMOOTH",
"465 490 LINE SMOOTH",
"465 511 OFFCURVE",
"472 522 OFFCURVE",
"491 522 CURVE SMOOTH",
"509 522 LINE",
"509 630 LINE",
"265 630 LINE",
"265 522 LINE",
"272 522 LINE SMOOTH",
"282 522 OFFCURVE",
"285 517 OFFCURVE",
"285 509 CURVE SMOOTH",
"285 121 LINE SMOOTH",
"285 111 OFFCURVE",
"281 108 OFFCURVE",
"272 108 CURVE SMOOTH",
"265 108 LINE"
);
}
);
width = 516;
},
{
layerId = UUID0;
name = "Light Extended";
paths = (
{
closed = 1;
nodes = (
"31 0 LINE",
"277 0 LINE",
"277 36 LINE",
"201 36 LINE SMOOTH",
"184 36 OFFCURVE",
"178 49 OFFCURVE",
"178 68 CURVE SMOOTH",
"178 562 LINE SMOOTH",
"178 581 OFFCURVE",
"184 594 OFFCURVE",
"201 594 CURVE SMOOTH",
"278 594 LINE",
"278 630 LINE",
"30 630 LINE",
"30 594 LINE",
"103 594 LINE SMOOTH",
"124 594 OFFCURVE",
"130 581 OFFCURVE",
"130 562 CURVE SMOOTH",
"130 68 LINE SMOOTH",
"130 49 OFFCURVE",
"124 36 OFFCURVE",
"103 36 CURVE SMOOTH",
"31 36 LINE"
);
},
{
closed = 1;
nodes = (
"167 308 LINE",
"649 308 LINE",
"649 344 LINE",
"167 344 LINE"
);
},
{
closed = 1;
nodes = (
"525 0 LINE",
"771 0 LINE",
"771 36 LINE",
"695 36 LINE SMOOTH",
"678 36 OFFCURVE",
"672 49 OFFCURVE",
"672 68 CURVE SMOOTH",
"672 562 LINE SMOOTH",
"672 581 OFFCURVE",
"678 594 OFFCURVE",
"695 594 CURVE SMOOTH",
"772 594 LINE",
"772 630 LINE",
"524 630 LINE",
"524 594 LINE",
"597 594 LINE SMOOTH",
"618 594 OFFCURVE",
"624 581 OFFCURVE",
"624 562 CURVE SMOOTH",
"624 68 LINE SMOOTH",
"624 49 OFFCURVE",
"618 36 OFFCURVE",
"597 36 CURVE SMOOTH",
"525 36 LINE"
);
}
);
width = 802;
},
{
layerId = "4355E1B8-19E6-44BD-A1D7-6E3C2DECA4C8";
name = Extended;
paths = (
{
closed = 1;
nodes = (
"22 0 LINE",
"360 0 LINE",
"360 90 LINE",
"285 90 LINE SMOOTH",
"268 90 OFFCURVE",
"262 103 OFFCURVE",
"262 122 CURVE SMOOTH",
"262 508 LINE SMOOTH",
"262 527 OFFCURVE",
"268 540 OFFCURVE",
"285 540 CURVE SMOOTH",
"360 540 LINE",
"360 630 LINE",
"22 630 LINE",
"22 540 LINE",
"97 540 LINE SMOOTH",
"118 540 OFFCURVE",
"124 527 OFFCURVE",
"124 508 CURVE SMOOTH",
"124 122 LINE SMOOTH",
"124 103 OFFCURVE",
"118 90 OFFCURVE",
"97 90 CURVE SMOOTH",
"22 90 LINE"
);
},
{
closed = 1;
nodes = (
"222 271 LINE",
"654 271 LINE",
"654 371 LINE",
"222 371 LINE"
);
},
{
closed = 1;
nodes = (
"512 0 LINE",
"850 0 LINE",
"850 90 LINE",
"775 90 LINE SMOOTH",
"758 90 OFFCURVE",
"752 103 OFFCURVE",
"752 122 CURVE SMOOTH",
"752 508 LINE SMOOTH",
"752 527 OFFCURVE",
"758 540 OFFCURVE",
"775 540 CURVE SMOOTH",
"850 540 LINE",
"850 630 LINE",
"512 630 LINE",
"512 540 LINE",
"587 540 LINE SMOOTH",
"608 540 OFFCURVE",
"614 527 OFFCURVE",
"614 508 CURVE SMOOTH",
"614 122 LINE SMOOTH",
"614 103 OFFCURVE",
"608 90 OFFCURVE",
"587 90 CURVE SMOOTH",
"512 90 LINE"
);
}
);
width = 872;
},
{
layerId = "14C77FDB-037D-4842-9381-6D9ED15DD48C";
name = "Bold Extended";
paths = (
{
closed = 1;
nodes = (
"17 0 LINE",
"426 0 LINE",
"426 152 LINE",
"379 152 LINE SMOOTH",
"362 152 OFFCURVE",
"356 165 OFFCURVE",
"356 184 CURVE SMOOTH",
"356 446 LINE SMOOTH",
"356 465 OFFCURVE",
"362 478 OFFCURVE",
"379 478 CURVE SMOOTH",
"426 478 LINE",
"426 630 LINE",
"17 630 LINE",
"17 478 LINE",
"79 478 LINE SMOOTH",
"100 478 OFFCURVE",
"106 465 OFFCURVE",
"106 446 CURVE SMOOTH",
"106 184 LINE SMOOTH",
"106 165 OFFCURVE",
"100 152 OFFCURVE",
"79 152 CURVE SMOOTH",
"17 152 LINE"
);
},
{
closed = 1;
nodes = (
"229 238 LINE",
"640 238 LINE",
"640 391 LINE",
"229 391 LINE"
);
},
{
closed = 1;
nodes = (
"460 0 LINE",
"869 0 LINE",
"869 152 LINE",
"807 152 LINE SMOOTH",
"786 152 OFFCURVE",
"780 165 OFFCURVE",
"780 184 CURVE SMOOTH",
"780 446 LINE SMOOTH",
"780 465 OFFCURVE",
"786 478 OFFCURVE",
"807 478 CURVE SMOOTH",
"869 478 LINE",
"869 630 LINE",
"460 630 LINE",
"460 478 LINE",
"507 478 LINE SMOOTH",
"524 478 OFFCURVE",
"530 465 OFFCURVE",
"530 446 CURVE SMOOTH",
"530 184 LINE",
"530 165 OFFCURVE",
"524 152 OFFCURVE",
"507 152 CURVE SMOOTH",
"460 152 LINE"
);
}
);
width = 886;
}
);
unicode = 0048;
},
{
glyphname = I;
lastChange = "2015-04-01 21:56:09 +0000";
layers = (
{
layerId = "E9E6D55E-9446-45F2-B66C-3272698B0216";
name = "Light Condensed";
paths = (
{
closed = 1;
nodes = (
"13 0 LINE",
"198 0 LINE",
"198 30 LINE",
"171 30 LINE SMOOTH",
"140 30 OFFCURVE",
"126 45 OFFCURVE",
"126 71 CURVE SMOOTH",
"126 558 LINE SMOOTH",
"126 585 OFFCURVE",
"139 600 OFFCURVE",
"172 600 CURVE SMOOTH",
"198 600 LINE",
"198 630 LINE",
"13 630 LINE",
"13 600 LINE",
"39 600 LINE SMOOTH",
"72 600 OFFCURVE",
"85 585 OFFCURVE",
"85 558 CURVE SMOOTH",
"85 71 LINE SMOOTH",
"85 45 OFFCURVE",
"71 30 OFFCURVE",
"40 30 CURVE SMOOTH",
"13 30 LINE"
);
}
);
width = 211;
},
{
layerId = "B25F85BC-C782-4067-8484-07202F80B8CD";
name = Condensed;
paths = (
{
closed = 1;
nodes = (
"20 0 LINE",
"268 0 LINE",
"268 90 LINE",
"243 90 LINE SMOOTH",
"226 90 OFFCURVE",
"220 103 OFFCURVE",
"220 122 CURVE SMOOTH",
"220 508 LINE SMOOTH",
"220 527 OFFCURVE",
"226 540 OFFCURVE",
"243 540 CURVE SMOOTH",
"268 540 LINE",
"268 630 LINE",
"20 630 LINE",
"20 540 LINE",
"55 540 LINE SMOOTH",
"76 540 OFFCURVE",
"82 527 OFFCURVE",
"82 508 CURVE SMOOTH",
"82 122 LINE SMOOTH",
"82 103 OFFCURVE",
"76 90 OFFCURVE",
"55 90 CURVE SMOOTH",
"20 90 LINE"
);
}
);
width = 288;
},
{
layerId = "B817C739-5D48-43E8-AAEE-CE891513D7BC";
name = "Bold Condensed";
paths = (
{
closed = 1;
nodes = (
"7 0 LINE",
"276 0 LINE",
"276 108 LINE",
"257 108 LINE SMOOTH",
"240 108 OFFCURVE",
"232 119 OFFCURVE",
"232 139 CURVE SMOOTH",
"232 490 LINE SMOOTH",
"232 511 OFFCURVE",
"239 522 OFFCURVE",
"258 522 CURVE SMOOTH",
"276 522 LINE",
"276 630 LINE",
"7 630 LINE",
"7 522 LINE",
"25 522 LINE SMOOTH",
"44 522 OFFCURVE",
"51 511 OFFCURVE",
"51 490 CURVE SMOOTH",
"51 139 LINE SMOOTH",
"51 119 OFFCURVE",
"43 108 OFFCURVE",
"26 108 CURVE SMOOTH",
"7 108 LINE"
);
}
);
width = 283;
},
{
layerId = UUID0;
name = "Light Extended";
paths = (
{
closed = 1;
nodes = (
"31 0 LINE",
"277 0 LINE",
"277 36 LINE",
"201 36 LINE SMOOTH",
"184 36 OFFCURVE",
"178 49 OFFCURVE",
"178 68 CURVE SMOOTH",
"178 561 LINE SMOOTH",
"178 580 OFFCURVE",
"184 593 OFFCURVE",
"201 593 CURVE SMOOTH",
"278 593 LINE",
"278 629 LINE",
"30 629 LINE",
"30 593 LINE",
"103 593 LINE SMOOTH",
"124 593 OFFCURVE",
"130 580 OFFCURVE",
"130 561 CURVE SMOOTH",
"130 68 LINE SMOOTH",
"130 49 OFFCURVE",
"124 36 OFFCURVE",
"103 36 CURVE SMOOTH",
"31 36 LINE"
);
}
);
width = 308;
},
{
layerId = "4355E1B8-19E6-44BD-A1D7-6E3C2DECA4C8";
name = Extended;
paths = (
{
closed = 1;
nodes = (
"22 0 LINE",
"360 0 LINE",
"360 90 LINE",
"285 90 LINE SMOOTH",
"268 90 OFFCURVE",
"262 103 OFFCURVE",
"262 122 CURVE SMOOTH",
"262 508 LINE SMOOTH",
"262 527 OFFCURVE",
"268 540 OFFCURVE",
"285 540 CURVE SMOOTH",
"360 540 LINE",
"360 630 LINE",
"22 630 LINE",
"22 540 LINE",
"97 540 LINE SMOOTH",
"118 540 OFFCURVE",
"124 527 OFFCURVE",
"124 508 CURVE SMOOTH",
"124 122 LINE SMOOTH",
"124 103 OFFCURVE",
"118 90 OFFCURVE",
"97 90 CURVE SMOOTH",
"22 90 LINE"
);
}
);
width = 382;
},
{
layerId = "14C77FDB-037D-4842-9381-6D9ED15DD48C";
name = "Bold Extended";
paths = (
{
closed = 1;
nodes = (
"17 0 LINE",
"446 0 LINE",
"446 152 LINE",
"379 152 LINE SMOOTH",
"362 152 OFFCURVE",
"356 165 OFFCURVE",
"356 184 CURVE SMOOTH",
"356 446 LINE SMOOTH",
"356 465 OFFCURVE",
"362 478 OFFCURVE",
"379 478 CURVE SMOOTH",
"446 478 LINE",
"446 630 LINE",
"17 630 LINE",
"17 478 LINE",
"79 478 LINE SMOOTH",
"100 478 OFFCURVE",
"106 465 OFFCURVE",
"106 446 CURVE SMOOTH",
"106 184 LINE SMOOTH",
"106 165 OFFCURVE",
"100 152 OFFCURVE",
"79 152 CURVE SMOOTH",
"17 152 LINE"
);
}
);
width = 463;
}
);
leftMetricsKey = H;
rightMetricsKey = H;
unicode = 0049;
},
{
glyphname = J;
lastChange = "2015-04-01 21:56:09 +0000";
layers = (
{
layerId = "E9E6D55E-9446-45F2-B66C-3272698B0216";
name = "Light Condensed";
paths = (
{
closed = 1;
nodes = (
"64 123 OFFCURVE",
"91 122 OFFCURVE",
"91 154 CURVE SMOOTH",
"91 175 OFFCURVE",
"79 186 OFFCURVE",
"58 186 CURVE SMOOTH",
"29 186 OFFCURVE",
"15 165 OFFCURVE",
"15 123 CURVE SMOOTH",
"15 42 OFFCURVE",
"68 -10 OFFCURVE",
"152 -10 CURVE SMOOTH",
"241 -10 OFFCURVE",
"292 46 OFFCURVE",
"292 145 CURVE SMOOTH",
"292 558 LINE SMOOTH",
"292 587 OFFCURVE",
"303 600 OFFCURVE",
"328 600 CURVE SMOOTH",
"363 600 LINE",
"363 630 LINE",
"178 630 LINE",
"178 600 LINE",
"214 600 LINE SMOOTH",
"239 600 OFFCURVE",
"250 587 OFFCURVE",
"250 558 CURVE SMOOTH",
"250 142 LINE SMOOTH",
"250 67 OFFCURVE",
"216 28 OFFCURVE",
"151 28 CURVE SMOOTH",
"100 28 OFFCURVE",
"64 55 OFFCURVE",
"64 93 CURVE SMOOTH"
);
}
);
width = 376;
},
{
layerId = "B25F85BC-C782-4067-8484-07202F80B8CD";
name = Condensed;
paths = (
{
closed = 1;
nodes = (
"109 160 OFFCURVE",
"154 152 OFFCURVE",
"154 207 CURVE SMOOTH",
"154 244 OFFCURVE",
"132 266 OFFCURVE",
"96 266 CURVE SMOOTH",
"44 266 OFFCURVE",
"10 219 OFFCURVE",
"10 147 CURVE SMOOTH",
"10 47 OFFCURVE",
"73 -10 OFFCURVE",
"182 -10 CURVE SMOOTH",
"297 -10 OFFCURVE",
"363 54 OFFCURVE",
"363 165 CURVE SMOOTH",
"363 508 LINE SMOOTH",
"363 529 OFFCURVE",
"372 540 OFFCURVE",
"389 540 CURVE SMOOTH",
"431 540 LINE",
"431 630 LINE",
"153 630 LINE",
"153 540 LINE",
"199 540 LINE SMOOTH",
"216 540 OFFCURVE",
"225 529 OFFCURVE",
"225 508 CURVE SMOOTH",
"225 182 LINE SMOOTH",
"225 119 OFFCURVE",
"203 88 OFFCURVE",
"159 88 CURVE SMOOTH",
"129 88 OFFCURVE",
"109 103 OFFCURVE",
"109 126 CURVE SMOOTH"
);
}
);
width = 446;
},
{
layerId = "B817C739-5D48-43E8-AAEE-CE891513D7BC";
name = "Bold Condensed";
paths = (
{
closed = 1;
nodes = (
"159 171 OFFCURVE",
"194 168 OFFCURVE",
"194 214 CURVE SMOOTH",
"194 254 OFFCURVE",
"167 276 OFFCURVE",
"120 276 CURVE SMOOTH",
"41 276 OFFCURVE",
"10 214 OFFCURVE",
"10 146 CURVE SMOOTH",
"10 49 OFFCURVE",
"74 -10 OFFCURVE",
"199 -10 CURVE SMOOTH",
"328 -10 OFFCURVE",
"405 53 OFFCURVE",
"405 165 CURVE SMOOTH",
"405 494 LINE SMOOTH",
"405 511 OFFCURVE",
"414 522 OFFCURVE",
"429 522 CURVE SMOOTH",
"449 522 LINE",
"449 630 LINE",
"153 630 LINE",
"153 522 LINE",
"199 522 LINE SMOOTH",
"216 522 OFFCURVE",
"225 511 OFFCURVE",
"225 490 CURVE SMOOTH",
"225 182 LINE SMOOTH",
"225 127 OFFCURVE",
"215 108 OFFCURVE",
"188 108 CURVE SMOOTH",
"169 108 OFFCURVE",
"159 118 OFFCURVE",
"159 136 CURVE SMOOTH"
);
}
);
width = 456;
},
{
layerId = UUID0;
name = "Light Extended";
paths = (
{
closed = 1;
nodes = (
"79 177 OFFCURVE",
"111 171 OFFCURVE",
"111 205 CURVE SMOOTH",
"111 227 OFFCURVE",
"98 238 OFFCURVE",
"78 238 CURVE SMOOTH",
"45 238 OFFCURVE",
"30 208 OFFCURVE",
"30 157 CURVE SMOOTH",
"30 49 OFFCURVE",
"97 -10 OFFCURVE",
"236 -10 CURVE SMOOTH",
"386 -10 OFFCURVE",
"463 59 OFFCURVE",
"463 195 CURVE SMOOTH",
"463 562 LINE SMOOTH",
"463 583 OFFCURVE",
"471 594 OFFCURVE",
"487 594 CURVE SMOOTH",
"563 594 LINE",
"563 630 LINE",
"316 630 LINE",
"316 594 LINE",
"391 594 LINE SMOOTH",
"407 594 OFFCURVE",
"415 583 OFFCURVE",
"415 562 CURVE SMOOTH",
"415 192 LINE SMOOTH",
"415 81 OFFCURVE",
"357 28 OFFCURVE",
"236 28 CURVE SMOOTH",
"134 28 OFFCURVE",
"79 65 OFFCURVE",
"79 129 CURVE SMOOTH"
);
}
);
width = 593;
},
{
layerId = "4355E1B8-19E6-44BD-A1D7-6E3C2DECA4C8";
name = Extended;
paths = (
{
closed = 1;
nodes = (
"131 182 OFFCURVE",
"186 178 OFFCURVE",
"186 235 CURVE SMOOTH",
"186 273 OFFCURVE",
"163 295 OFFCURVE",
"120 295 CURVE SMOOTH",
"51 295 OFFCURVE",
"22 238 OFFCURVE",
"22 169 CURVE SMOOTH",
"22 67 OFFCURVE",
"86 -10 OFFCURVE",
"236 -10 CURVE SMOOTH",
"389 -10 OFFCURVE",
"465 70 OFFCURVE",
"465 205 CURVE SMOOTH",
"465 508 LINE SMOOTH",
"465 529 OFFCURVE",
"474 540 OFFCURVE",
"491 540 CURVE SMOOTH",
"563 540 LINE",
"563 630 LINE",
"225 630 LINE",
"225 540 LINE",
"301 540 LINE SMOOTH",
"318 540 OFFCURVE",
"327 529 OFFCURVE",
"327 508 CURVE SMOOTH",
"327 211 LINE SMOOTH",
"327 130 OFFCURVE",
"295 92 OFFCURVE",
"215 92 CURVE SMOOTH",
"155 92 OFFCURVE",
"131 113 OFFCURVE",
"131 140 CURVE SMOOTH"
);
}
);
width = 585;
},
{
layerId = "14C77FDB-037D-4842-9381-6D9ED15DD48C";
name = "Bold Extended";
paths = (
{
closed = 1;
nodes = (
"199 210 OFFCURVE",
"234 215 OFFCURVE",
"234 261 CURVE SMOOTH",
"234 308 OFFCURVE",
"197 329 OFFCURVE",
"145 329 CURVE SMOOTH",
"61 329 OFFCURVE",
"20 274 OFFCURVE",
"20 186 CURVE SMOOTH",
"20 59 OFFCURVE",
"106 -10 OFFCURVE",
"295 -10 CURVE SMOOTH",
"486 -10 OFFCURVE",
"585 60 OFFCURVE",
"585 225 CURVE SMOOTH",
"585 450 LINE SMOOTH",
"585 467 OFFCURVE",
"594 478 OFFCURVE",
"609 478 CURVE SMOOTH",
"674 478 LINE",
"674 630 LINE",
"235 630 LINE",
"235 478 LINE",
"309 478 LINE SMOOTH",
"326 478 OFFCURVE",
"335 467 OFFCURVE",
"335 446 CURVE SMOOTH",
"335 225 LINE SMOOTH",
"335 184 OFFCURVE",
"306 151 OFFCURVE",
"251 151 CURVE SMOOTH",
"221 151 OFFCURVE",
"199 161 OFFCURVE",
"199 183 CURVE SMOOTH"
);
}
);
width = 691;
}
);
unicode = 004A;
},
{
glyphname = K;
lastChange = "2015-04-01 21:56:09 +0000";
layers = (
{
guideLines = (
{
angle = 90;
position = "{473, 361}";
}
);
layerId = "E9E6D55E-9446-45F2-B66C-3272698B0216";
name = "Light Condensed";
paths = (
{
closed = 1;
nodes = (
"13 0 LINE",
"199 0 LINE",
"199 30 LINE",
"154 30 LINE SMOOTH",
"134 30 OFFCURVE",
"127 40 OFFCURVE",
"127 62 CURVE SMOOTH",
"127 561 LINE SMOOTH",
"127 586 OFFCURVE",
"138 600 OFFCURVE",
"166 600 CURVE SMOOTH",
"199 600 LINE",
"199 630 LINE",
"13 630 LINE",
"13 600 LINE",
"48 600 LINE SMOOTH",
"74 600 OFFCURVE",
"85 586 OFFCURVE",
"85 561 CURVE SMOOTH",
"85 62 LINE SMOOTH",
"85 40 OFFCURVE",
"78 30 OFFCURVE",
"58 30 CURVE SMOOTH",
"13 30 LINE"
);
},
{
closed = 1;
nodes = (
"398 582 LINE SMOOTH",
"410 597 OFFCURVE",
"419 600 OFFCURVE",
"432 600 CURVE SMOOTH",
"463 600 LINE",
"463 630 LINE",
"302 630 LINE",
"302 600 LINE",
"336 600 LINE SMOOTH",
"347 600 OFFCURVE",
"353 596 OFFCURVE",
"353 589 CURVE SMOOTH",
"353 584 OFFCURVE",
"350 579 OFFCURVE",
"345 572 CURVE",
"102 265 LINE",
"115 228 LINE"
);
},
{
closed = 1;
nodes = (
"289 0 LINE",
"473 0 LINE",
"473 30 LINE",
"432 30 LINE SMOOTH",
"419 30 OFFCURVE",
"404 34 OFFCURVE",
"398 48 CURVE SMOOTH",
"242 413 LINE",
"213 372 LINE",
"350 54 LINE",
"352 50 OFFCURVE",
"353 46 OFFCURVE",
"353 43 CURVE SMOOTH",
"353 36 OFFCURVE",
"348 30 OFFCURVE",
"336 30 CURVE SMOOTH",
"289 30 LINE"
);
}
);
width = 487;
},
{
guideLines = (
{
angle = 90;
position = "{549, 178}";
}
);
layerId = "B25F85BC-C782-4067-8484-07202F80B8CD";
name = Condensed;
paths = (
{
closed = 1;
nodes = (
"16 0 LINE",
"262 0 LINE",
"262 90 LINE",
"234 90 LINE SMOOTH",
"222 90 OFFCURVE",
"215 100 OFFCURVE",
"215 115 CURVE SMOOTH",
"215 508 LINE SMOOTH",
"215 531 OFFCURVE",
"224 540 OFFCURVE",
"242 540 CURVE SMOOTH",
"263 540 LINE",
"263 630 LINE",
"15 630 LINE",
"15 540 LINE",
"50 540 LINE SMOOTH",
"70 540 OFFCURVE",
"77 530 OFFCURVE",
"77 508 CURVE SMOOTH",
"77 122 LINE SMOOTH",
"77 100 OFFCURVE",
"70 90 OFFCURVE",
"50 90 CURVE SMOOTH",
"16 90 LINE"
);
},
{
closed = 1;
nodes = (
"468 522 LINE SMOOTH",
"481 536 OFFCURVE",
"489 540 OFFCURVE",
"502 540 CURVE SMOOTH",
"529 540 LINE",
"529 630 LINE",
"304 630 LINE",
"304 540 LINE",
"348 540 LINE SMOOTH",
"359 540 OFFCURVE",
"364 534 OFFCURVE",
"364 527 CURVE SMOOTH",
"364 522 OFFCURVE",
"361 517 OFFCURVE",
"357 512 CURVE SMOOTH",
"85 213 LINE",
"162 186 LINE"
);
},
{
closed = 1;
nodes = (
"291 0 LINE",
"549 0 LINE",
"549 90 LINE",
"514 90 LINE SMOOTH",
"496 90 OFFCURVE",
"488 93 OFFCURVE",
"483 105 CURVE SMOOTH",
"355 407 LINE",
"257 303 LINE",
"338 116 LINE SMOOTH",
"341 109 OFFCURVE",
"342 106 OFFCURVE",
"342 102 CURVE SMOOTH",
"342 94 OFFCURVE",
"336 90 OFFCURVE",
"325 90 CURVE SMOOTH",
"291 90 LINE"
);
}
);
width = 564;
},
{
layerId = "B817C739-5D48-43E8-AAEE-CE891513D7BC";
name = "Bold Condensed";
paths = (
{
closed = 1;
nodes = (
"7 0 LINE",
"251 0 LINE",
"251 108 LINE",
"240 108 LINE SMOOTH",
"234 108 OFFCURVE",
"231 113 OFFCURVE",
"231 123 CURVE SMOOTH",
"231 508 LINE SMOOTH",
"231 517 OFFCURVE",
"234 522 OFFCURVE",
"243 522 CURVE SMOOTH",
"251 522 LINE",
"251 630 LINE",
"6 630 LINE",
"6 522 LINE",
"22 522 LINE SMOOTH",
"42 522 OFFCURVE",
"51 511 OFFCURVE",
"51 489 CURVE SMOOTH",
"51 141 LINE SMOOTH",
"51 119 OFFCURVE",
"42 108 OFFCURVE",
"22 108 CURVE SMOOTH",
"7 108 LINE"
);
},
{
closed = 1;
nodes = (
"452 504 LINE SMOOTH",
"463 517 OFFCURVE",
"474 522 OFFCURVE",
"490 522 CURVE SMOOTH",
"498 522 LINE",
"498 630 LINE",
"265 630 LINE",
"265 522 LINE",
"276 522 LINE SMOOTH",
"285 522 OFFCURVE",
"290 517 OFFCURVE",
"290 509 CURVE SMOOTH",
"290 503 OFFCURVE",
"288 498 OFFCURVE",
"284 493 CURVE SMOOTH",
"65 195 LINE",
"171 148 LINE"
);
},
{
closed = 1;
nodes = (
"265 0 LINE",
"509 0 LINE",
"509 108 LINE",
"493 108 LINE SMOOTH",
"479 108 OFFCURVE",
"471 112 OFFCURVE",
"467 123 CURVE SMOOTH",
"361 413 LINE",
"226 313 LINE",
"281 138 LINE SMOOTH",
"283 132 OFFCURVE",
"285 123 OFFCURVE",
"285 119 CURVE SMOOTH",
"285 112 OFFCURVE",
"282 108 OFFCURVE",
"274 108 CURVE SMOOTH",
"265 108 LINE"
);
}
);
width = 516;
},
{
guideLines = (
{
angle = 90;
position = "{771, 317}";
}
);
layerId = UUID0;
name = "Light Extended";
paths = (
{
closed = 1;
nodes = (
"31 0 LINE",
"277 0 LINE",
"277 36 LINE",
"204 36 LINE SMOOTH",
"185 36 OFFCURVE",
"178 45 OFFCURVE",
"178 68 CURVE SMOOTH",
"178 564 LINE SMOOTH",
"178 585 OFFCURVE",
"186 594 OFFCURVE",
"205 594 CURVE SMOOTH",
"278 594 LINE",
"278 630 LINE",
"30 630 LINE",
"30 594 LINE",
"103 594 LINE SMOOTH",
"120 594 OFFCURVE",
"130 583 OFFCURVE",
"130 564 CURVE SMOOTH",
"130 68 LINE SMOOTH",
"130 46 OFFCURVE",
"121 36 OFFCURVE",
"101 36 CURVE SMOOTH",
"31 36 LINE"
);
},
{
closed = 1;
nodes = (
"657 576 LINE SMOOTH",
"673 588 OFFCURVE",
"691 594 OFFCURVE",
"709 594 CURVE SMOOTH",
"750 594 LINE",
"750 630 LINE",
"524 630 LINE",
"524 594 LINE",
"582 594 LINE SMOOTH",
"590 594 OFFCURVE",
"594 590 OFFCURVE",
"594 584 CURVE SMOOTH",
"594 579 OFFCURVE",
"593 575 OFFCURVE",
"586 569 CURVE SMOOTH",
"141 214 LINE",
"154 177 LINE"
);
},
{
closed = 1;
nodes = (
"525 0 LINE",
"771 0 LINE",
"771 36 LINE",
"724 36 LINE SMOOTH",
"701 36 OFFCURVE",
"690 38 OFFCURVE",
"680 50 CURVE SMOOTH",
"392 394 LINE",
"363 353 LINE",
"613 62 LINE SMOOTH",
"617 58 OFFCURVE",
"618 54 OFFCURVE",
"618 50 CURVE SMOOTH",
"618 42 OFFCURVE",
"611 36 OFFCURVE",
"599 36 CURVE SMOOTH",
"525 36 LINE"
);
}
);
width = 781;
},
{
layerId = "4355E1B8-19E6-44BD-A1D7-6E3C2DECA4C8";
name = Extended;
paths = (
{
closed = 1;
nodes = (
"22 0 LINE",
"360 0 LINE",
"360 90 LINE",
"286 90 LINE SMOOTH",
"269 90 OFFCURVE",
"262 100 OFFCURVE",
"262 121 CURVE SMOOTH",
"262 508 LINE SMOOTH",
"262 531 OFFCURVE",
"269 540 OFFCURVE",
"289 540 CURVE SMOOTH",
"360 540 LINE",
"360 630 LINE",
"22 630 LINE",
"22 540 LINE",
"97 540 LINE SMOOTH",
"117 540 OFFCURVE",
"124 530 OFFCURVE",
"124 508 CURVE SMOOTH",
"124 121 LINE SMOOTH",
"124 99 OFFCURVE",
"117 89 OFFCURVE",
"97 89 CURVE SMOOTH",
"22 89 LINE"
);
},
{
closed = 1;
nodes = (
"756 528 LINE SMOOTH",
"770 537 OFFCURVE",
"781 540 OFFCURVE",
"799 540 CURVE SMOOTH",
"834 540 LINE",
"834 630 LINE",
"502 630 LINE",
"502 540 LINE",
"571 540 LINE SMOOTH",
"581 540 OFFCURVE",
"586 533 OFFCURVE",
"586 526 CURVE SMOOTH",
"586 521 OFFCURVE",
"584 516 OFFCURVE",
"578 512 CURVE SMOOTH",
"142 238 LINE",
"229 196 LINE"
);
},
{
closed = 1;
nodes = (
"512 0 LINE",
"851 0 LINE",
"851 89 LINE",
"804 89 LINE SMOOTH",
"786 89 OFFCURVE",
"776 94 OFFCURVE",
"766 104 CURVE SMOOTH",
"488 405 LINE",
"385 312 LINE",
"567 121 LINE SMOOTH",
"572 116 OFFCURVE",
"575 109 OFFCURVE",
"575 104 CURVE SMOOTH",
"575 96 OFFCURVE",
"570 90 OFFCURVE",
"560 90 CURVE SMOOTH",
"512 90 LINE"
);
}
);
width = 872;
},
{
layerId = "14C77FDB-037D-4842-9381-6D9ED15DD48C";
name = "Bold Extended";
paths = (
{
closed = 1;
nodes = (
"17 0 LINE",
"426 0 LINE",
"426 152 LINE",
"378 152 LINE SMOOTH",
"363 152 OFFCURVE",
"356 158 OFFCURVE",
"356 176 CURVE SMOOTH",
"356 451 LINE SMOOTH",
"356 468 OFFCURVE",
"364 478 OFFCURVE",
"380 478 CURVE SMOOTH",
"426 478 LINE",
"426 630 LINE",
"17 630 LINE",
"17 478 LINE",
"79 478 LINE SMOOTH",
"100 478 OFFCURVE",
"106 467 OFFCURVE",
"106 447 CURVE SMOOTH",
"106 180 LINE SMOOTH",
"106 163 OFFCURVE",
"100 152 OFFCURVE",
"81 152 CURVE SMOOTH",
"17 152 LINE"
);
},
{
closed = 1;
nodes = (
"761 456 LINE SMOOTH",
"800 476 OFFCURVE",
"807 478 OFFCURVE",
"823 478 CURVE SMOOTH",
"856 478 LINE",
"856 630 LINE",
"460 630 LINE",
"460 478 LINE",
"499 478 LINE SMOOTH",
"508 478 OFFCURVE",
"513 473 OFFCURVE",
"513 465 CURVE SMOOTH",
"513 458 OFFCURVE",
"509 453 OFFCURVE",
"495 446 CURVE SMOOTH",
"187 290 LINE",
"293 213 LINE"
);
},
{
closed = 1;
nodes = (
"460 0 LINE",
"869 0 LINE",
"869 152 LINE",
"809 152 LINE SMOOTH",
"790 152 OFFCURVE",
"781 156 OFFCURVE",
"771 172 CURVE SMOOTH",
"625 401 LINE",
"434 308 LINE",
"520 179 LINE SMOOTH",
"523 174 OFFCURVE",
"525 170 OFFCURVE",
"525 166 CURVE SMOOTH",
"525 158 OFFCURVE",
"519 152 OFFCURVE",
"508 152 CURVE SMOOTH",
"460 152 LINE"
);
}
);
width = 869;
}
);
leftMetricsKey = H;
unicode = 004B;
},
{
glyphname = L;
lastChange = "2015-04-01 21:56:09 +0000";
layers = (
{
layerId = "E9E6D55E-9446-45F2-B66C-3272698B0216";
name = "Light Condensed";
paths = (
{
closed = 1;
nodes = (
"13 0 LINE",
"348 0 LINE",
"348 209 LINE",
"316 209 LINE",
"316 53 OFFCURVE",
"299 30 OFFCURVE",
"254 30 CURVE SMOOTH",
"128 30 LINE",
"128 559 LINE SMOOTH",
"128 585 OFFCURVE",
"138 600 OFFCURVE",
"164 600 CURVE SMOOTH",
"218 600 LINE",
"218 630 LINE",
"16 630 LINE",
"16 600 LINE",
"39 600 LINE SMOOTH",
"72 600 OFFCURVE",
"85 585 OFFCURVE",
"85 558 CURVE SMOOTH",
"85 71 LINE SMOOTH",
"85 45 OFFCURVE",
"71 30 OFFCURVE",
"40 30 CURVE SMOOTH",
"13 30 LINE"
);
}
);
width = 378;
},
{
layerId = "B25F85BC-C782-4067-8484-07202F80B8CD";
name = Condensed;
paths = (
{
closed = 1;
nodes = (
"15 0 LINE",
"471 0 LINE",
"471 297 LINE",
"352 297 LINE",
"352 112 OFFCURVE",
"339 90 OFFCURVE",
"292 90 CURVE SMOOTH",
"215 90 LINE",
"215 510 LINE SMOOTH",
"215 527 OFFCURVE",
"222 540 OFFCURVE",
"241 540 CURVE SMOOTH",
"283 540 LINE",
"283 630 LINE",
"15 630 LINE",
"15 540 LINE",
"51 540 LINE SMOOTH",
"71 540 OFFCURVE",
"77 529 OFFCURVE",
"77 504 CURVE SMOOTH",
"77 123 LINE SMOOTH",
"77 102 OFFCURVE",
"71 90 OFFCURVE",
"52 90 CURVE SMOOTH",
"15 90 LINE"
);
}
);
width = 501;
},
{
layerId = "B817C739-5D48-43E8-AAEE-CE891513D7BC";
name = "Bold Condensed";
paths = (
{
closed = 1;
nodes = (
"7 0 LINE",
"444 0 LINE",
"444 313 LINE",
"293 313 LINE",
"293 130 OFFCURVE",
"281 108 OFFCURVE",
"254 108 CURVE SMOOTH",
"231 108 LINE",
"231 490 LINE SMOOTH",
"231 510 OFFCURVE",
"240 522 OFFCURVE",
"263 522 CURVE SMOOTH",
"296 522 LINE",
"296 630 LINE",
"7 630 LINE",
"7 522 LINE",
"25 522 LINE SMOOTH",
"45 522 OFFCURVE",
"51 511 OFFCURVE",
"51 486 CURVE SMOOTH",
"51 141 LINE SMOOTH",
"51 120 OFFCURVE",
"44 108 OFFCURVE",
"26 108 CURVE SMOOTH",
"7 108 LINE"
);
}
);
width = 454;
},
{
layerId = UUID0;
name = "Light Extended";
paths = (
{
closed = 1;
nodes = (
"31 0 LINE",
"593 0 LINE",
"593 249 LINE",
"561 249 LINE",
"561 78 OFFCURVE",
"556 36 OFFCURVE",
"499 36 CURVE SMOOTH",
"178 36 LINE",
"178 562 LINE SMOOTH",
"178 583 OFFCURVE",
"185 594 OFFCURVE",
"205 594 CURVE SMOOTH",
"298 594 LINE",
"298 630 LINE",
"30 630 LINE",
"30 594 LINE",
"104 594 LINE SMOOTH",
"123 594 OFFCURVE",
"130 583 OFFCURVE",
"130 562 CURVE SMOOTH",
"130 67 LINE SMOOTH",
"130 47 OFFCURVE",
"122 36 OFFCURVE",
"105 36 CURVE SMOOTH",
"31 36 LINE"
);
}
);
width = 643;
},
{
layerId = "4355E1B8-19E6-44BD-A1D7-6E3C2DECA4C8";
name = Extended;
paths = (
{
closed = 1;
nodes = (
"22 0 LINE",
"679 0 LINE",
"679 297 LINE",
"561 297 LINE",
"561 132 OFFCURVE",
"540 90 OFFCURVE",
"463 90 CURVE SMOOTH",
"262 90 LINE",
"262 504 LINE SMOOTH",
"262 531 OFFCURVE",
"268 540 OFFCURVE",
"289 540 CURVE SMOOTH",
"380 540 LINE",
"380 630 LINE",
"22 630 LINE",
"22 540 LINE",
"98 540 LINE SMOOTH",
"118 540 OFFCURVE",
"124 529 OFFCURVE",
"124 504 CURVE SMOOTH",
"124 123 LINE SMOOTH",
"124 102 OFFCURVE",
"118 90 OFFCURVE",
"99 90 CURVE SMOOTH",
"22 90 LINE"
);
}
);
width = 701;
},
{
layerId = "14C77FDB-037D-4842-9381-6D9ED15DD48C";
name = "Bold Extended";
paths = (
{
closed = 1;
nodes = (
"17 0 LINE",
"700 0 LINE",
"700 302 LINE",
"490 302 LINE",
"490 167 OFFCURVE",
"468 152 OFFCURVE",
"422 152 CURVE SMOOTH",
"356 152 LINE",
"356 448 LINE SMOOTH",
"356 467 OFFCURVE",
"363 478 OFFCURVE",
"382 478 CURVE SMOOTH",
"466 478 LINE",
"466 630 LINE",
"17 630 LINE",
"17 478 LINE",
"80 478 LINE SMOOTH",
"100 478 OFFCURVE",
"106 467 OFFCURVE",
"106 442 CURVE SMOOTH",
"106 185 LINE SMOOTH",
"106 164 OFFCURVE",
"100 152 OFFCURVE",
"81 152 CURVE SMOOTH",
"17 152 LINE"
);
}
);
width = 715;
}
);
leftMetricsKey = H;
unicode = 004C;
},
{
glyphname = M;
lastChange = "2015-04-01 21:56:09 +0000";
layers = (
{
guideLines = (
{
position = "{288, 612}";
}
);
layerId = "E9E6D55E-9446-45F2-B66C-3272698B0216";
name = "Light Condensed";
paths = (
{
closed = 1;
nodes = (
"13 0 LINE",
"184 0 LINE",
"184 30 LINE",
"155 30 LINE SMOOTH",
"131 30 OFFCURVE",
"120 45 OFFCURVE",
"120 71 CURVE",
"120 630 LINE",
"13 630 LINE",
"13 600 LINE",
"49 600 LINE SMOOTH",
"75 600 OFFCURVE",
"85 585 OFFCURVE",
"85 558 CURVE SMOOTH",
"85 71 LINE SMOOTH",
"85 45 OFFCURVE",
"74 30 OFFCURVE",
"50 30 CURVE SMOOTH",
"13 30 LINE"
);
},
{
closed = 1;
nodes = (
"328 0 LINE",
"513 0 LINE",
"513 30 LINE",
"477 30 LINE SMOOTH",
"453 30 OFFCURVE",
"442 45 OFFCURVE",
"442 71 CURVE SMOOTH",
"442 558 LINE SMOOTH",
"442 585 OFFCURVE",
"452 600 OFFCURVE",
"478 600 CURVE SMOOTH",
"513 600 LINE",
"513 630 LINE",
"400 630 LINE",
"400 71 LINE",
"400 45 OFFCURVE",
"389 30 OFFCURVE",
"365 30 CURVE SMOOTH",
"328 30 LINE"
);
},
{
closed = 1;
nodes = (
"115 630 LINE",
"119 577 LINE",
"124 577 LINE",
"223 0 LINE",
"283 0 LINE",
"396 577 LINE",
"401 577 LINE",
"408 630 LINE",
"369 630 LINE",
"260 64 LINE",
"255 64 LINE",
"160 630 LINE"
);
}
);
width = 526;
},
{
background = {
paths = (
{
closed = 1;
nodes = (
"153 665 LINE",
"281 0 LINE",
"441 0 LINE",
"571 665 LINE",
"467 665 LINE",
"381 126 LINE",
"377 126 LINE",
"293 665 LINE"
);
}
);
};
guideLines = (
{
position = "{368, 543}";
}
);
layerId = "B25F85BC-C782-4067-8484-07202F80B8CD";
name = Condensed;
paths = (
{
closed = 1;
nodes = (
"15 0 LINE",
"215 0 LINE",
"215 90 LINE",
"200 90 LINE SMOOTH",
"183 90 OFFCURVE",
"177 103 OFFCURVE",
"177 122 CURVE SMOOTH",
"177 630 LINE",
"15 630 LINE",
"15 540 LINE",
"50 540 LINE SMOOTH",
"71 540 OFFCURVE",
"77 527 OFFCURVE",
"77 508 CURVE SMOOTH",
"77 122 LINE SMOOTH",
"77 103 OFFCURVE",
"71 90 OFFCURVE",
"50 90 CURVE SMOOTH",
"15 90 LINE"
);
},
{
closed = 1;
nodes = (
"509 0 LINE",
"757 0 LINE",
"757 90 LINE",
"712 90 LINE SMOOTH",
"695 90 OFFCURVE",
"689 103 OFFCURVE",
"689 122 CURVE SMOOTH",
"689 508 LINE SMOOTH",
"689 527 OFFCURVE",
"695 540 OFFCURVE",
"712 540 CURVE SMOOTH",
"757 540 LINE",
"757 630 LINE",
"551 630 LINE",
"551 122 LINE SMOOTH",
"551 103 OFFCURVE",
"545 90 OFFCURVE",
"524 90 CURVE SMOOTH",
"509 90 LINE"
);
},
{
closed = 1;
nodes = (
"158 630 LINE",
"175 508 LINE",
"181 508 LINE",
"271 0 LINE",
"451 0 LINE",
"547 508 LINE",
"552 508 LINE",
"571 630 LINE",
"456 630 LINE",
"381 126 LINE",
"377 126 LINE",
"298 630 LINE"
);
}
);
width = 772;
},
{
guideLines = (
{
position = "{364, 517}";
}
);
layerId = "B817C739-5D48-43E8-AAEE-CE891513D7BC";
name = "Bold Condensed";
paths = (
{
closed = 1;
nodes = (
"7 0 LINE",
"210 0 LINE",
"210 108 LINE",
"203 108 LINE SMOOTH",
"194 108 OFFCURVE",
"190 111 OFFCURVE",
"190 121 CURVE SMOOTH",
"190 630 LINE",
"7 630 LINE",
"7 522 LINE",
"25 522 LINE SMOOTH",
"44 522 OFFCURVE",
"51 511 OFFCURVE",
"51 490 CURVE SMOOTH",
"51 139 LINE SMOOTH",
"51 119 OFFCURVE",
"43 108 OFFCURVE",
"26 108 CURVE SMOOTH",
"7 108 LINE"
);
},
{
closed = 1;
nodes = (
"506 0 LINE",
"750 0 LINE",
"750 108 LINE",
"731 108 LINE SMOOTH",
"714 108 OFFCURVE",
"706 119 OFFCURVE",
"706 139 CURVE SMOOTH",
"706 490 LINE SMOOTH",
"706 511 OFFCURVE",
"713 522 OFFCURVE",
"732 522 CURVE SMOOTH",
"750 522 LINE",
"750 630 LINE",
"526 630 LINE",
"526 121 LINE SMOOTH",
"526 111 OFFCURVE",
"522 108 OFFCURVE",
"513 108 CURVE SMOOTH",
"506 108 LINE"
);
},
{
closed = 1;
nodes = (
"169 630 LINE",
"189 482 LINE",
"194 482 LINE",
"262 0 LINE",
"450 0 LINE",
"522 482 LINE",
"527 482 LINE",
"553 630 LINE",
"425 630 LINE",
"382 230 LINE",
"377 230 LINE",
"334 630 LINE"
);
}
);
width = 757;
},
{
guideLines = (
{
position = "{395, 593}";
}
);
layerId = UUID0;
name = "Light Extended";
paths = (
{
closed = 1;
nodes = (
"31 0 LINE",
"264 0 LINE",
"264 36 LINE",
"188 36 LINE SMOOTH",
"171 36 OFFCURVE",
"165 49 OFFCURVE",
"165 68 CURVE SMOOTH",
"165 630 LINE",
"30 630 LINE",
"30 594 LINE",
"103 594 LINE SMOOTH",
"124 594 OFFCURVE",
"130 581 OFFCURVE",
"130 562 CURVE SMOOTH",
"130 68 LINE SMOOTH",
"130 49 OFFCURVE",
"124 36 OFFCURVE",
"103 36 CURVE SMOOTH",
"31 36 LINE"
);
},
{
closed = 1;
nodes = (
"552 0 LINE",
"798 0 LINE",
"798 36 LINE",
"722 36 LINE SMOOTH",
"705 36 OFFCURVE",
"699 49 OFFCURVE",
"699 68 CURVE SMOOTH",
"699 562 LINE SMOOTH",
"699 581 OFFCURVE",
"705 594 OFFCURVE",
"722 594 CURVE SMOOTH",
"799 594 LINE",
"799 630 LINE",
"651 630 LINE",
"651 68 LINE SMOOTH",
"651 49 OFFCURVE",
"645 36 OFFCURVE",
"624 36 CURVE SMOOTH",
"552 36 LINE"
);
},
{
closed = 1;
nodes = (
"142 630 LINE",
"164 558 LINE",
"169 558 LINE",
"374 0 LINE",
"438 0 LINE",
"647 558 LINE",
"652 558 LINE",
"679 630 LINE",
"635 630 LINE",
"413 47 LINE",
"409 47 LINE",
"197 630 LINE"
);
}
);
width = 829;
},
{
guideLines = (
{
position = "{526, 536}";
}
);
layerId = "4355E1B8-19E6-44BD-A1D7-6E3C2DECA4C8";
name = Extended;
paths = (
{
closed = 1;
nodes = (
"22 0 LINE",
"322 0 LINE",
"322 90 LINE",
"247 90 LINE SMOOTH",
"230 90 OFFCURVE",
"224 103 OFFCURVE",
"224 122 CURVE SMOOTH",
"224 630 LINE",
"22 630 LINE",
"22 540 LINE",
"97 540 LINE SMOOTH",
"118 540 OFFCURVE",
"124 527 OFFCURVE",
"124 508 CURVE SMOOTH",
"124 122 LINE SMOOTH",
"124 103 OFFCURVE",
"118 90 OFFCURVE",
"97 90 CURVE SMOOTH",
"22 90 LINE"
);
},
{
closed = 1;
nodes = (
"674 0 LINE",
"1012 0 LINE",
"1012 90 LINE",
"937 90 LINE SMOOTH",
"920 90 OFFCURVE",
"914 103 OFFCURVE",
"914 122 CURVE SMOOTH",
"914 508 LINE SMOOTH",
"914 527 OFFCURVE",
"920 540 OFFCURVE",
"937 540 CURVE SMOOTH",
"1012 540 LINE",
"1012 630 LINE",
"776 630 LINE",
"776 122 LINE SMOOTH",
"776 103 OFFCURVE",
"770 90 OFFCURVE",
"749 90 CURVE SMOOTH",
"674 90 LINE"
);
},
{
closed = 1;
nodes = (
"172 630 LINE",
"223 501 LINE",
"228 501 LINE",
"418 0 LINE",
"578 0 LINE",
"772 501 LINE",
"778 501 LINE",
"833 630 LINE",
"721 630 LINE",
"522 121 LINE",
"517 121 LINE",
"328 630 LINE"
);
}
);
width = 1034;
},
{
layerId = "14C77FDB-037D-4842-9381-6D9ED15DD48C";
name = "Bold Extended";
paths = (
{
closed = 1;
nodes = (
"17 0 LINE",
"306 0 LINE",
"306 152 LINE",
"289 152 LINE SMOOTH",
"272 152 OFFCURVE",
"266 165 OFFCURVE",
"266 184 CURVE SMOOTH",
"266 630 LINE",
"17 630 LINE",
"17 478 LINE",
"79 478 LINE SMOOTH",
"100 478 OFFCURVE",
"106 465 OFFCURVE",
"106 446 CURVE SMOOTH",
"106 184 LINE SMOOTH",
"106 165 OFFCURVE",
"100 152 OFFCURVE",
"79 152 CURVE SMOOTH",
"17 152 LINE"
);
},
{
closed = 1;
nodes = (
"740 0 LINE",
"1119 0 LINE",
"1119 152 LINE",
"1057 152 LINE SMOOTH",
"1036 152 OFFCURVE",
"1030 165 OFFCURVE",
"1030 184 CURVE SMOOTH",
"1030 446 LINE SMOOTH",
"1030 465 OFFCURVE",
"1036 478 OFFCURVE",
"1057 478 CURVE SMOOTH",
"1119 478 LINE",
"1119 630 LINE",
"780 630 LINE",
"780 184 LINE",
"780 165 OFFCURVE",
"774 152 OFFCURVE",
"757 152 CURVE SMOOTH",
"740 152 LINE"
);
},
{
closed = 1;
nodes = (
"228 630 LINE",
"265 455 LINE",
"270 455 LINE",
"384 0 LINE",
"650 0 LINE",
"776 455 LINE",
"781 455 LINE",
"820 630 LINE",
"655 630 LINE",
"550 186 LINE",
"546 186 LINE",
"459 630 LINE"
);
}
);
width = 1136;
}
);
leftMetricsKey = H;
rightMetricsKey = H;
unicode = 004D;
},
{
glyphname = N;
lastChange = "2015-04-01 21:56:09 +0000";
layers = (
{
layerId = "E9E6D55E-9446-45F2-B66C-3272698B0216";
name = "Light Condensed";
paths = (
{
closed = 1;
nodes = (
"13 0 LINE",
"193 0 LINE",
"193 30 LINE",
"156 30 LINE SMOOTH",
"132 30 OFFCURVE",
"121 45 OFFCURVE",
"121 71 CURVE SMOOTH",
"121 568 LINE",
"125 568 LINE",
"368 0 LINE",
"403 0 LINE",
"403 558 LINE SMOOTH",
"403 585 OFFCURVE",
"413 600 OFFCURVE",
"439 600 CURVE SMOOTH",
"474 600 LINE",
"474 630 LINE",
"295 630 LINE",
"295 600 LINE",
"331 600 LINE SMOOTH",
"357 600 OFFCURVE",
"367 585 OFFCURVE",
"367 558 CURVE SMOOTH",
"367 128 LINE",
"363 128 LINE",
"149 630 LINE",
"13 630 LINE",
"13 600 LINE",
"49 600 LINE SMOOTH",
"75 600 OFFCURVE",
"85 585 OFFCURVE",
"85 558 CURVE SMOOTH",
"85 71 LINE SMOOTH",
"85 45 OFFCURVE",
"74 30 OFFCURVE",
"50 30 CURVE SMOOTH",
"13 30 LINE"
);
}
);
width = 487;
},
{
layerId = "B25F85BC-C782-4067-8484-07202F80B8CD";
name = Condensed;
paths = (
{
closed = 1;
nodes = (
"15 0 LINE",
"238 0 LINE",
"238 90 LINE",
"223 90 LINE SMOOTH",
"206 90 OFFCURVE",
"200 103 OFFCURVE",
"200 122 CURVE SMOOTH",
"200 402 LINE",
"204 402 LINE",
"299 0 LINE",
"481 0 LINE",
"481 508 LINE SMOOTH",
"481 527 OFFCURVE",
"487 540 OFFCURVE",
"508 540 CURVE SMOOTH",
"549 540 LINE",
"549 630 LINE",
"306 630 LINE",
"306 540 LINE",
"335 540 LINE SMOOTH",
"352 540 OFFCURVE",
"358 527 OFFCURVE",
"358 508 CURVE SMOOTH",
"358 218 LINE",
"354 218 LINE",
"259 630 LINE",
"15 630 LINE",
"15 540 LINE",
"50 540 LINE SMOOTH",
"71 540 OFFCURVE",
"77 527 OFFCURVE",
"77 508 CURVE SMOOTH",
"77 122 LINE SMOOTH",
"77 103 OFFCURVE",
"71 90 OFFCURVE",
"50 90 CURVE SMOOTH",
"15 90 LINE"
);
}
);
width = 564;
},
{
layerId = "B817C739-5D48-43E8-AAEE-CE891513D7BC";
name = "Bold Condensed";
paths = (
{
closed = 1;
nodes = (
"7 0 LINE",
"261 0 LINE",
"261 108 LINE",
"234 108 LINE SMOOTH",
"225 108 OFFCURVE",
"221 111 OFFCURVE",
"221 121 CURVE SMOOTH",
"221 280 LINE",
"225 280 LINE",
"326 0 LINE",
"465 0 LINE",
"465 490 LINE SMOOTH",
"465 511 OFFCURVE",
"472 522 OFFCURVE",
"491 522 CURVE SMOOTH",
"509 522 LINE",
"509 630 LINE",
"255 630 LINE",
"255 522 LINE",
"282 522 LINE SMOOTH",
"292 522 OFFCURVE",
"295 517 OFFCURVE",
"295 509 CURVE SMOOTH",
"295 350 LINE",
"291 350 LINE",
"196 630 LINE",
"7 630 LINE",
"7 522 LINE",
"25 522 LINE SMOOTH",
"44 522 OFFCURVE",
"51 511 OFFCURVE",
"51 490 CURVE SMOOTH",
"51 139 LINE SMOOTH",
"51 119 OFFCURVE",
"43 108 OFFCURVE",
"26 108 CURVE SMOOTH",
"7 108 LINE"
);
}
);
width = 516;
},
{
layerId = UUID0;
name = "Light Extended";
paths = (
{
closed = 1;
nodes = (
"31 0 LINE",
"277 0 LINE",
"277 36 LINE",
"201 36 LINE SMOOTH",
"184 36 OFFCURVE",
"178 49 OFFCURVE",
"178 68 CURVE SMOOTH",
"178 541 LINE",
"182 541 LINE",
"624 0 LINE",
"672 0 LINE",
"672 562 LINE SMOOTH",
"672 581 OFFCURVE",
"678 594 OFFCURVE",
"695 594 CURVE SMOOTH",
"772 594 LINE",
"772 630 LINE",
"524 630 LINE",
"524 594 LINE",
"597 594 LINE SMOOTH",
"618 594 OFFCURVE",
"624 581 OFFCURVE",
"624 562 CURVE SMOOTH",
"624 85 LINE",
"620 85 LINE",
"178 630 LINE",
"30 630 LINE",
"30 594 LINE",
"103 594 LINE SMOOTH",
"124 594 OFFCURVE",
"130 581 OFFCURVE",
"130 562 CURVE SMOOTH",
"130 68 LINE SMOOTH",
"130 49 OFFCURVE",
"124 36 OFFCURVE",
"103 36 CURVE SMOOTH",
"31 36 LINE"
);
}
);
width = 802;
},
{
layerId = "4355E1B8-19E6-44BD-A1D7-6E3C2DECA4C8";
name = Extended;
paths = (
{
closed = 1;
nodes = (
"22 0 LINE",
"360 0 LINE",
"360 90 LINE",
"285 90 LINE SMOOTH",
"268 90 OFFCURVE",
"262 103 OFFCURVE",
"262 122 CURVE SMOOTH",
"262 397 LINE",
"266 397 LINE",
"640 0 LINE",
"752 0 LINE",
"752 508 LINE SMOOTH",
"752 527 OFFCURVE",
"758 540 OFFCURVE",
"779 540 CURVE SMOOTH",
"850 540 LINE",
"850 630 LINE",
"512 630 LINE",
"512 540 LINE",
"591 540 LINE SMOOTH",
"608 540 OFFCURVE",
"614 527 OFFCURVE",
"614 508 CURVE SMOOTH",
"614 248 LINE",
"610 248 LINE",
"246 630 LINE",
"22 630 LINE",
"22 540 LINE",
"97 540 LINE SMOOTH",
"118 540 OFFCURVE",
"124 527 OFFCURVE",
"124 508 CURVE SMOOTH",
"124 122 LINE SMOOTH",
"124 103 OFFCURVE",
"118 90 OFFCURVE",
"97 90 CURVE SMOOTH",
"22 90 LINE"
);
}
);
width = 872;
},
{
layerId = "14C77FDB-037D-4842-9381-6D9ED15DD48C";
name = "Bold Extended";
paths = (
{
closed = 1;
nodes = (
"17 0 LINE",
"426 0 LINE",
"426 152 LINE",
"379 152 LINE SMOOTH",
"362 152 OFFCURVE",
"356 165 OFFCURVE",
"356 184 CURVE SMOOTH",
"356 265 LINE",
"360 265 LINE",
"590 0 LINE",
"790 0 LINE",
"790 446 LINE SMOOTH",
"790 465 OFFCURVE",
"796 478 OFFCURVE",
"817 478 CURVE SMOOTH",
"879 478 LINE",
"879 630 LINE",
"470 630 LINE",
"470 478 LINE",
"517 478 LINE SMOOTH",
"534 478 OFFCURVE",
"540 465 OFFCURVE",
"540 446 CURVE SMOOTH",
"540 361 LINE",
"536 361 LINE",
"306 630 LINE",
"17 630 LINE",
"17 478 LINE",
"79 478 LINE SMOOTH",
"100 478 OFFCURVE",
"106 465 OFFCURVE",
"106 446 CURVE SMOOTH",
"106 184 LINE SMOOTH",
"106 165 OFFCURVE",
"100 152 OFFCURVE",
"79 152 CURVE SMOOTH",
"17 152 LINE"
);
}
);
width = 896;
}
);
leftMetricsKey = H;
rightMetricsKey = H;
unicode = 004E;
},
{
glyphname = O;
lastChange = "2015-04-01 21:56:09 +0000";
layers = (
{
layerId = "E9E6D55E-9446-45F2-B66C-3272698B0216";
name = "Light Condensed";
paths = (
{
closed = 1;
nodes = (
"339 -10 OFFCURVE",
"409 109 OFFCURVE",
"409 320 CURVE SMOOTH",
"409 527 OFFCURVE",
"341 640 OFFCURVE",
"217 640 CURVE SMOOTH",
"95 640 OFFCURVE",
"30 529 OFFCURVE",
"30 318 CURVE SMOOTH",
"30 106 OFFCURVE",
"96 -10 OFFCURVE",
"216 -10 CURVE SMOOTH"
);
},
{
closed = 1;
nodes = (
"118 28 OFFCURVE",
"76 113 OFFCURVE",
"76 317 CURVE SMOOTH",
"76 519 OFFCURVE",
"117 602 OFFCURVE",
"218 602 CURVE SMOOTH",
"321 602 OFFCURVE",
"364 518 OFFCURVE",
"364 317 CURVE SMOOTH",
"364 115 OFFCURVE",
"320 28 OFFCURVE",
"218 28 CURVE SMOOTH"
);
}
);
width = 439;
},
{
layerId = "B25F85BC-C782-4067-8484-07202F80B8CD";
name = Condensed;
paths = (
{
closed = 1;
nodes = (
"420 -12 OFFCURVE",
"495 93 OFFCURVE",
"495 314 CURVE SMOOTH",
"495 536 OFFCURVE",
"420 642 OFFCURVE",
"264 642 CURVE SMOOTH",
"109 642 OFFCURVE",
"35 537 OFFCURVE",
"35 315 CURVE SMOOTH",
"35 93 OFFCURVE",
"108 -12 OFFCURVE",
"264 -12 CURVE SMOOTH"
);
},
{
closed = 1;
nodes = (
"210 93 OFFCURVE",
"186 157 OFFCURVE",
"186 311 CURVE SMOOTH",
"186 468 OFFCURVE",
"211 537 OFFCURVE",
"268 537 CURVE SMOOTH",
"323 537 OFFCURVE",
"344 473 OFFCURVE",
"344 308 CURVE SMOOTH",
"344 150 OFFCURVE",
"324 93 OFFCURVE",
"269 93 CURVE SMOOTH"
);
}
);
width = 530;
},
{
layerId = "B817C739-5D48-43E8-AAEE-CE891513D7BC";
name = "Bold Condensed";
paths = (
{
closed = 1;
nodes = (
"410 -10 OFFCURVE",
"477 88 OFFCURVE",
"477 327 CURVE SMOOTH",
"477 557 OFFCURVE",
"416 640 OFFCURVE",
"245 640 CURVE SMOOTH",
"76 640 OFFCURVE",
"16 557 OFFCURVE",
"16 327 CURVE SMOOTH",
"16 87 OFFCURVE",
"82 -10 OFFCURVE",
"245 -10 CURVE SMOOTH"
);
},
{
closed = 1;
nodes = (
"219 128 OFFCURVE",
"215 148 OFFCURVE",
"215 292 CURVE SMOOTH",
"215 480 OFFCURVE",
"218 502 OFFCURVE",
"246 502 CURVE SMOOTH",
"274 502 OFFCURVE",
"278 478 OFFCURVE",
"278 310 CURVE SMOOTH",
"278 151 OFFCURVE",
"274 128 OFFCURVE",
"246 128 CURVE SMOOTH"
);
}
);
width = 493;
},
{
layerId = UUID0;
name = "Light Extended";
paths = (
{
closed = 1;
nodes = (
"609 -10 OFFCURVE",
"725 106 OFFCURVE",
"725 314 CURVE SMOOTH",
"725 523 OFFCURVE",
"609 640 OFFCURVE",
"402 640 CURVE SMOOTH",
"194 640 OFFCURVE",
"75 521 OFFCURVE",
"75 313 CURVE SMOOTH",
"75 106 OFFCURVE",
"193 -10 OFFCURVE",
"401 -10 CURVE SMOOTH"
);
},
{
closed = 1;
nodes = (
"218 31 OFFCURVE",
"124 126 OFFCURVE",
"124 314 CURVE SMOOTH",
"124 503 OFFCURVE",
"219 599 OFFCURVE",
"406 599 CURVE SMOOTH",
"589 599 OFFCURVE",
"676 507 OFFCURVE",
"676 315 CURVE SMOOTH",
"676 123 OFFCURVE",
"588 31 OFFCURVE",
"405 31 CURVE SMOOTH"
);
}
);
width = 800;
},
{
layerId = "4355E1B8-19E6-44BD-A1D7-6E3C2DECA4C8";
name = Extended;
paths = (
{
closed = 1;
nodes = (
"623 -12 OFFCURVE",
"755 111 OFFCURVE",
"755 315 CURVE SMOOTH",
"755 519 OFFCURVE",
"623 642 OFFCURVE",
"405 642 CURVE SMOOTH",
"186 642 OFFCURVE",
"55 519 OFFCURVE",
"55 315 CURVE SMOOTH",
"55 110 OFFCURVE",
"186 -12 OFFCURVE",
"404 -12 CURVE SMOOTH"
);
},
{
closed = 1;
nodes = (
"272 93 OFFCURVE",
"204 166 OFFCURVE",
"204 313 CURVE SMOOTH",
"204 460 OFFCURVE",
"274 537 OFFCURVE",
"408 537 CURVE SMOOTH",
"541 537 OFFCURVE",
"606 463 OFFCURVE",
"606 311 CURVE SMOOTH",
"606 163 OFFCURVE",
"543 93 OFFCURVE",
"409 93 CURVE SMOOTH"
);
}
);
width = 810;
},
{
layerId = "14C77FDB-037D-4842-9381-6D9ED15DD48C";
name = "Bold Extended";
paths = (
{
closed = 1;
nodes = (
"655 -10 OFFCURVE",
"787 101 OFFCURVE",
"787 315 CURVE SMOOTH",
"787 528 OFFCURVE",
"654 640 OFFCURVE",
"402 640 CURVE SMOOTH",
"149 640 OFFCURVE",
"17 528 OFFCURVE",
"17 314 CURVE SMOOTH",
"17 101 OFFCURVE",
"148 -10 OFFCURVE",
"401 -10 CURVE SMOOTH"
);
},
{
closed = 1;
nodes = (
"329 175 OFFCURVE",
"300 214 OFFCURVE",
"300 312 CURVE SMOOTH",
"300 412 OFFCURVE",
"331 455 OFFCURVE",
"402 455 CURVE SMOOTH",
"474 455 OFFCURVE",
"504 412 OFFCURVE",
"504 312 CURVE SMOOTH",
"504 213 OFFCURVE",
"476 175 OFFCURVE",
"402 175 CURVE SMOOTH"
);
}
);
width = 804;
}
);
unicode = 004F;
},
{
glyphname = P;
lastChange = "2015-04-01 21:56:09 +0000";
layers = (
{
layerId = "E9E6D55E-9446-45F2-B66C-3272698B0216";
name = "Light Condensed";
paths = (
{
closed = 1;
nodes = (
"40 30 LINE SMOOTH",
"70 30 OFFCURVE",
"85 44 OFFCURVE",
"85 71 CURVE SMOOTH",
"85 558 LINE SMOOTH",
"85 587 OFFCURVE",
"70 600 OFFCURVE",
"39 600 CURVE SMOOTH",
"13 600 LINE",
"13 630 LINE",
"211 630 LINE SMOOTH",
"335 630 OFFCURVE",
"403 568 OFFCURVE",
"403 455 CURVE SMOOTH",
"403 337 OFFCURVE",
"330 270 OFFCURVE",
"200 270 CURVE",
"113 270 LINE",
"113 305 LINE",
"202 305 LINE SMOOTH",
"308 305 OFFCURVE",
"358 352 OFFCURVE",
"358 451 CURVE SMOOTH",
"358 548 OFFCURVE",
"310 595 OFFCURVE",
"212 595 CURVE SMOOTH",
"126 595 LINE",
"126 71 LINE SMOOTH",
"126 44 OFFCURVE",
"141 30 OFFCURVE",
"171 30 CURVE SMOOTH",
"198 30 LINE",
"198 0 LINE",
"13 0 LINE",
"13 30 LINE"
);
}
);
width = 418;
},
{
layerId = "B25F85BC-C782-4067-8484-07202F80B8CD";
name = Condensed;
paths = (
{
closed = 1;
nodes = (
"52 90 LINE SMOOTH",
"68 90 OFFCURVE",
"77 101 OFFCURVE",
"77 121 CURVE SMOOTH",
"77 508 LINE SMOOTH",
"77 531 OFFCURVE",
"68 540 OFFCURVE",
"46 540 CURVE SMOOTH",
"15 540 LINE",
"15 630 LINE",
"270 630 LINE SMOOTH",
"421 630 OFFCURVE",
"492 573 OFFCURVE",
"492 440 CURVE SMOOTH",
"492 300 OFFCURVE",
"412 240 OFFCURVE",
"259 240 CURVE SMOOTH",
"202 240 LINE",
"202 335 LINE",
"251 335 LINE SMOOTH",
"314 335 OFFCURVE",
"347 368 OFFCURVE",
"347 442 CURVE SMOOTH",
"347 511 OFFCURVE",
"319 540 OFFCURVE",
"261 540 CURVE SMOOTH",
"215 540 LINE",
"215 121 LINE SMOOTH",
"215 99 OFFCURVE",
"225 90 OFFCURVE",
"250 90 CURVE SMOOTH",
"287 90 LINE",
"287 0 LINE",
"15 0 LINE",
"15 90 LINE"
);
}
);
width = 502;
},
{
layerId = "B817C739-5D48-43E8-AAEE-CE891513D7BC";
name = "Bold Condensed";
paths = (
{
closed = 1;
nodes = (
"26 108 LINE SMOOTH",
"42 108 OFFCURVE",
"51 119 OFFCURVE",
"51 139 CURVE SMOOTH",
"51 490 LINE SMOOTH",
"51 515 OFFCURVE",
"42 522 OFFCURVE",
"20 522 CURVE SMOOTH",
"7 522 LINE",
"7 630 LINE",
"250 630 LINE SMOOTH",
"397 630 OFFCURVE",
"472 573 OFFCURVE",
"472 426 CURVE SMOOTH",
"472 277 OFFCURVE",
"395 220 OFFCURVE",
"249 220 CURVE SMOOTH",
"218 220 LINE",
"218 329 LINE",
"241 329 LINE SMOOTH",
"283 329 OFFCURVE",
"297 362 OFFCURVE",
"297 427 CURVE SMOOTH",
"297 499 OFFCURVE",
"280 522 OFFCURVE",
"251 522 CURVE SMOOTH",
"231 522 LINE",
"231 139 LINE SMOOTH",
"231 117 OFFCURVE",
"241 108 OFFCURVE",
"266 108 CURVE SMOOTH",
"297 108 LINE",
"297 0 LINE",
"7 0 LINE",
"7 108 LINE"
);
}
);
width = 482;
},
{
layerId = UUID0;
name = "Light Extended";
paths = (
{
closed = 1;
nodes = (
"103 36 LINE SMOOTH",
"121 36 OFFCURVE",
"130 45 OFFCURVE",
"130 69 CURVE SMOOTH",
"130 562 LINE SMOOTH",
"130 587 OFFCURVE",
"121 594 OFFCURVE",
"97 594 CURVE SMOOTH",
"30 594 LINE",
"30 630 LINE",
"429 630 LINE SMOOTH",
"574 630 OFFCURVE",
"651 562 OFFCURVE",
"651 443 CURVE SMOOTH",
"651 317 OFFCURVE",
"567 250 OFFCURVE",
"418 250 CURVE SMOOTH",
"165 250 LINE",
"165 291 LINE",
"420 291 LINE SMOOTH",
"545 291 OFFCURVE",
"606 338 OFFCURVE",
"606 442 CURVE SMOOTH",
"606 542 OFFCURVE",
"549 589 OFFCURVE",
"430 589 CURVE SMOOTH",
"178 589 LINE",
"178 69 LINE SMOOTH",
"178 44 OFFCURVE",
"187 36 OFFCURVE",
"205 36 CURVE SMOOTH",
"297 36 LINE",
"297 0 LINE",
"31 0 LINE",
"31 36 LINE"
);
}
);
width = 691;
},
{
layerId = "4355E1B8-19E6-44BD-A1D7-6E3C2DECA4C8";
name = Extended;
paths = (
{
closed = 1;
nodes = (
"97 90 LINE SMOOTH",
"116 90 OFFCURVE",
"124 100 OFFCURVE",
"124 123 CURVE SMOOTH",
"124 508 LINE SMOOTH",
"124 532 OFFCURVE",
"116 540 OFFCURVE",
"94 540 CURVE SMOOTH",
"22 540 LINE",
"22 630 LINE",
"513 630 LINE SMOOTH",
"658 630 OFFCURVE",
"735 564 OFFCURVE",
"735 439 CURVE SMOOTH",
"735 310 OFFCURVE",
"653 240 OFFCURVE",
"502 240 CURVE SMOOTH",
"249 240 LINE",
"249 341 LINE",
"474 341 LINE SMOOTH",
"561 341 OFFCURVE",
"588 374 OFFCURVE",
"588 441 CURVE SMOOTH",
"588 505 OFFCURVE",
"555 535 OFFCURVE",
"484 535 CURVE SMOOTH",
"262 535 LINE",
"262 123 LINE SMOOTH",
"262 100 OFFCURVE",
"270 90 OFFCURVE",
"289 90 CURVE SMOOTH",
"381 90 LINE",
"381 0 LINE",
"22 0 LINE",
"22 90 LINE"
);
}
);
width = 755;
},
{
layerId = "14C77FDB-037D-4842-9381-6D9ED15DD48C";
name = "Bold Extended";
paths = (
{
closed = 1;
nodes = (
"79 152 LINE SMOOTH",
"98 152 OFFCURVE",
"106 162 OFFCURVE",
"106 185 CURVE SMOOTH",
"106 446 LINE SMOOTH",
"106 470 OFFCURVE",
"98 478 OFFCURVE",
"76 478 CURVE SMOOTH",
"17 478 LINE",
"17 630 LINE",
"549 630 LINE SMOOTH",
"693 630 OFFCURVE",
"771 560 OFFCURVE",
"771 429 CURVE SMOOTH",
"771 292 OFFCURVE",
"684 210 OFFCURVE",
"538 210 CURVE SMOOTH",
"325 210 LINE",
"325 361 LINE",
"414 361 LINE SMOOTH",
"475 361 OFFCURVE",
"502 383 OFFCURVE",
"502 433 CURVE SMOOTH",
"502 482 OFFCURVE",
"477 505 OFFCURVE",
"424 505 CURVE SMOOTH",
"356 505 LINE",
"356 185 LINE SMOOTH",
"356 162 OFFCURVE",
"364 152 OFFCURVE",
"383 152 CURVE SMOOTH",
"495 152 LINE",
"495 0 LINE",
"17 0 LINE",
"17 152 LINE"
);
}
);
width = 786;
}
);
leftMetricsKey = H;
unicode = 0050;
},
{
glyphname = Q;
lastChange = "2015-04-01 21:56:09 +0000";
layers = (
{
guideLines = (
{
position = "{547, -96}";
}
);
layerId = "E9E6D55E-9446-45F2-B66C-3272698B0216";
name = "Light Condensed";
paths = (
{
closed = 1;
nodes = (
"334 -10 OFFCURVE",
"409 100 OFFCURVE",
"409 321 CURVE SMOOTH",
"409 541 OFFCURVE",
"333 640 OFFCURVE",
"217 640 CURVE SMOOTH",
"104 640 OFFCURVE",
"30 545 OFFCURVE",
"30 319 CURVE SMOOTH",
"30 89 OFFCURVE",
"105 -10 OFFCURVE",
"216 -10 CURVE SMOOTH"
);
},
{
closed = 1;
nodes = (
"117 28 OFFCURVE",
"76 114 OFFCURVE",
"76 318 CURVE SMOOTH",
"76 517 OFFCURVE",
"116 602 OFFCURVE",
"218 602 CURVE SMOOTH",
"320 602 OFFCURVE",
"364 519 OFFCURVE",
"364 318 CURVE SMOOTH",
"364 112 OFFCURVE",
"319 28 OFFCURVE",
"218 28 CURVE SMOOTH"
);
},
{
closed = 1;
nodes = (
"327 150 OFFCURVE",
"248 -96 OFFCURVE",
"374 -96 CURVE SMOOTH",
"433 -96 OFFCURVE",
"449 -41 OFFCURVE",
"449 107 CURVE",
"419 107 LINE",
"419 -13 OFFCURVE",
"407 -51 OFFCURVE",
"376 -51 CURVE SMOOTH",
"300 -51 OFFCURVE",
"349 188 OFFCURVE",
"204 188 CURVE SMOOTH",
"130 188 OFFCURVE",
"99 125 OFFCURVE",
"98 88 CURVE SMOOTH",
"97 64 OFFCURVE",
"108 39 OFFCURVE",
"131 39 CURVE SMOOTH",
"138 39 OFFCURVE",
"145 41 OFFCURVE",
"153 45 CURVE",
"139 54 OFFCURVE",
"132 68 OFFCURVE",
"132 84 CURVE SMOOTH",
"132 115 OFFCURVE",
"158 150 OFFCURVE",
"204 150 CURVE SMOOTH"
);
}
);
width = 459;
},
{
layerId = "B25F85BC-C782-4067-8484-07202F80B8CD";
name = Condensed;
paths = (
{
closed = 1;
nodes = (
"414 -12 OFFCURVE",
"494 84 OFFCURVE",
"495 315 CURVE SMOOTH",
"496 543 OFFCURVE",
"414 640 OFFCURVE",
"264 640 CURVE SMOOTH",
"115 640 OFFCURVE",
"35 544 OFFCURVE",
"35 315 CURVE SMOOTH",
"35 84 OFFCURVE",
"115 -12 OFFCURVE",
"264 -12 CURVE SMOOTH"
);
},
{
closed = 1;
nodes = (
"213 93 OFFCURVE",
"186 150 OFFCURVE",
"186 312 CURVE SMOOTH",
"186 474 OFFCURVE",
"214 535 OFFCURVE",
"268 535 CURVE SMOOTH",
"320 535 OFFCURVE",
"344 478 OFFCURVE",
"344 308 CURVE SMOOTH",
"344 147 OFFCURVE",
"323 93 OFFCURVE",
"269 93 CURVE SMOOTH"
);
},
{
closed = 1;
nodes = (
"360 165 OFFCURVE",
"272 -141 OFFCURVE",
"446 -141 CURVE SMOOTH",
"530 -141 OFFCURVE",
"569 -69 OFFCURVE",
"569 87 CURVE",
"486 87 LINE",
"490 6 OFFCURVE",
"478 -31 OFFCURVE",
"447 -31 CURVE SMOOTH",
"356 -31 OFFCURVE",
"459 248 OFFCURVE",
"283 248 CURVE SMOOTH",
"230 248 OFFCURVE",
"190 219 OFFCURVE",
"190 165 CURVE SMOOTH",
"190 123 OFFCURVE",
"205 91 OFFCURVE",
"225 91 CURVE SMOOTH",
"231 91 OFFCURVE",
"239 93 OFFCURVE",
"246 97 CURVE",
"227 107 OFFCURVE",
"218 118 OFFCURVE",
"218 131 CURVE SMOOTH",
"218 151 OFFCURVE",
"234 165 OFFCURVE",
"256 165 CURVE SMOOTH"
);
}
);
width = 569;
},
{
layerId = "B817C739-5D48-43E8-AAEE-CE891513D7BC";
name = "Bold Condensed";
paths = (
{
closed = 1;
nodes = (
"397 -10 OFFCURVE",
"477 67 OFFCURVE",
"477 328 CURVE SMOOTH",
"477 571 OFFCURVE",
"406 640 OFFCURVE",
"243 640 CURVE SMOOTH",
"87 640 OFFCURVE",
"16 571 OFFCURVE",
"16 327 CURVE SMOOTH",
"16 67 OFFCURVE",
"97 -10 OFFCURVE",
"242 -10 CURVE SMOOTH"
);
},
{
closed = 1;
nodes = (
"213 128 OFFCURVE",
"215 154 OFFCURVE",
"215 300 CURVE SMOOTH",
"215 482 OFFCURVE",
"219 502 OFFCURVE",
"246 502 CURVE SMOOTH",
"273 502 OFFCURVE",
"278 484 OFFCURVE",
"278 312 CURVE SMOOTH",
"278 154 OFFCURVE",
"274 128 OFFCURVE",
"246 128 CURVE SMOOTH"
);
},
{
closed = 1;
nodes = (
"308 165 OFFCURVE",
"193 -141 OFFCURVE",
"420 -141 CURVE SMOOTH",
"540 -141 OFFCURVE",
"579 -69 OFFCURVE",
"579 108 CURVE",
"456 108 LINE",
"460 -5 OFFCURVE",
"448 -21 OFFCURVE",
"425 -21 CURVE SMOOTH",
"356 -21 OFFCURVE",
"464 248 OFFCURVE",
"259 248 CURVE SMOOTH",
"220 248 OFFCURVE",
"202 232 OFFCURVE",
"202 184 CURVE SMOOTH",
"202 145 OFFCURVE",
"214 121 OFFCURVE",
"226 121 CURVE SMOOTH",
"230 121 OFFCURVE",
"237 124 OFFCURVE",
"244 128 CURVE",
"229 128 OFFCURVE",
"224 138 OFFCURVE",
"224 147 CURVE SMOOTH",
"224 156 OFFCURVE",
"229 165 OFFCURVE",
"241 165 CURVE SMOOTH"
);
}
);
width = 589;
},
{
layerId = UUID0;
name = "Light Extended";
paths = (
{
closed = 1;
nodes = (
"601 -10 OFFCURVE",
"725 98 OFFCURVE",
"725 314 CURVE SMOOTH",
"725 533 OFFCURVE",
"599 640 OFFCURVE",
"402 640 CURVE SMOOTH",
"205 640 OFFCURVE",
"75 532 OFFCURVE",
"75 313 CURVE SMOOTH",
"75 99 OFFCURVE",
"200 -10 OFFCURVE",
"401 -10 CURVE SMOOTH"
);
},
{
closed = 1;
nodes = (
"245 31 OFFCURVE",
"124 99 OFFCURVE",
"124 314 CURVE SMOOTH",
"124 525 OFFCURVE",
"240 599 OFFCURVE",
"406 599 CURVE SMOOTH",
"573 599 OFFCURVE",
"676 524 OFFCURVE",
"676 315 CURVE SMOOTH",
"676 101 OFFCURVE",
"567 31 OFFCURVE",
"405 31 CURVE SMOOTH"
);
},
{
closed = 1;
nodes = (
"540 150 OFFCURVE",
"464 -96 OFFCURVE",
"659 -96 CURVE SMOOTH",
"753 -96 OFFCURVE",
"790 -39 OFFCURVE",
"790 107 CURVE",
"750 107 LINE",
"750 -8 OFFCURVE",
"725 -51 OFFCURVE",
"658 -51 CURVE SMOOTH",
"500 -51 OFFCURVE",
"578 193 OFFCURVE",
"373 193 CURVE SMOOTH",
"291 193 OFFCURVE",
"239 153 OFFCURVE",
"239 90 CURVE SMOOTH",
"239 58 OFFCURVE",
"252 39 OFFCURVE",
"274 39 CURVE SMOOTH",
"282 39 OFFCURVE",
"292 41 OFFCURVE",
"298 44 CURVE",
"282 49 OFFCURVE",
"273 63 OFFCURVE",
"273 84 CURVE SMOOTH",
"273 125 OFFCURVE",
"308 150 OFFCURVE",
"365 150 CURVE SMOOTH"
);
}
);
width = 800;
},
{
layerId = "4355E1B8-19E6-44BD-A1D7-6E3C2DECA4C8";
name = Extended;
paths = (
{
closed = 1;
nodes = (
"627 -12 OFFCURVE",
"755 114 OFFCURVE",
"755 315 CURVE SMOOTH",
"755 513 OFFCURVE",
"627 640 OFFCURVE",
"405 640 CURVE SMOOTH",
"183 640 OFFCURVE",
"55 514 OFFCURVE",
"55 315 CURVE SMOOTH",
"55 114 OFFCURVE",
"182 -12 OFFCURVE",
"404 -12 CURVE SMOOTH"
);
},
{
closed = 1;
nodes = (
"269 93 OFFCURVE",
"204 170 OFFCURVE",
"204 313 CURVE SMOOTH",
"204 454 OFFCURVE",
"270 535 OFFCURVE",
"408 535 CURVE SMOOTH",
"544 535 OFFCURVE",
"606 457 OFFCURVE",
"606 312 CURVE SMOOTH",
"606 166 OFFCURVE",
"547 93 OFFCURVE",
"409 93 CURVE SMOOTH"
);
},
{
closed = 1;
nodes = (
"549 175 OFFCURVE",
"413 -146 OFFCURVE",
"683 -146 CURVE SMOOTH",
"804 -146 OFFCURVE",
"850 -78 OFFCURVE",
"850 87 CURVE",
"738 87 LINE",
"738 3 OFFCURVE",
"723 -31 OFFCURVE",
"687 -31 CURVE SMOOTH",
"579 -31 OFFCURVE",
"674 265 OFFCURVE",
"416 265 CURVE SMOOTH",
"318 265 OFFCURVE",
"252 222 OFFCURVE",
"252 159 CURVE SMOOTH",
"252 117 OFFCURVE",
"282 91 OFFCURVE",
"332 91 CURVE SMOOTH",
"346 91 OFFCURVE",
"358 93 OFFCURVE",
"364 96 CURVE",
"342 100 OFFCURVE",
"330 112 OFFCURVE",
"330 130 CURVE SMOOTH",
"330 157 OFFCURVE",
"354 175 OFFCURVE",
"392 175 CURVE SMOOTH"
);
}
);
width = 860;
},
{
layerId = "14C77FDB-037D-4842-9381-6D9ED15DD48C";
name = "Bold Extended";
paths = (
{
closed = 1;
nodes = (
"651 -10 OFFCURVE",
"787 98 OFFCURVE",
"787 315 CURVE SMOOTH",
"787 532 OFFCURVE",
"649 640 OFFCURVE",
"402 640 CURVE SMOOTH",
"154 640 OFFCURVE",
"17 532 OFFCURVE",
"17 314 CURVE SMOOTH",
"17 98 OFFCURVE",
"151 -10 OFFCURVE",
"401 -10 CURVE SMOOTH"
);
},
{
closed = 1;
nodes = (
"340 175 OFFCURVE",
"300 199 OFFCURVE",
"300 313 CURVE SMOOTH",
"300 421 OFFCURVE",
"337 455 OFFCURVE",
"402 455 CURVE SMOOTH",
"470 455 OFFCURVE",
"504 417 OFFCURVE",
"504 313 CURVE SMOOTH",
"504 202 OFFCURVE",
"468 175 OFFCURVE",
"402 175 CURVE SMOOTH"
);
},
{
closed = 1;
nodes = (
"515 225 OFFCURVE",
"385 -156 OFFCURVE",
"699 -156 CURVE SMOOTH",
"835 -156 OFFCURVE",
"890 -86 OFFCURVE",
"890 87 CURVE",
"738 87 LINE",
"738 16 OFFCURVE",
"727 -13 OFFCURVE",
"699 -13 CURVE SMOOTH",
"605 -13 OFFCURVE",
"681 320 OFFCURVE",
"422 320 CURVE SMOOTH",
"338 320 OFFCURVE",
"288 285 OFFCURVE",
"288 227 CURVE SMOOTH",
"288 189 OFFCURVE",
"311 160 OFFCURVE",
"342 160 CURVE SMOOTH",
"357 160 OFFCURVE",
"376 168 OFFCURVE",
"382 176 CURVE",
"359 179 OFFCURVE",
"350 186 OFFCURVE",
"350 199 CURVE SMOOTH",
"350 215 OFFCURVE",
"362 225 OFFCURVE",
"383 225 CURVE SMOOTH"
);
}
);
width = 900;
}
);
unicode = 0051;
},
{
glyphname = R;
lastChange = "2015-04-01 21:56:09 +0000";
layers = (
{
layerId = "E9E6D55E-9446-45F2-B66C-3272698B0216";
name = "Light Condensed";
paths = (
{
closed = 1;
nodes = (
"40 30 LINE SMOOTH",
"70 30 OFFCURVE",
"85 44 OFFCURVE",
"85 71 CURVE SMOOTH",
"85 558 LINE SMOOTH",
"85 587 OFFCURVE",
"70 600 OFFCURVE",
"39 600 CURVE SMOOTH",
"13 600 LINE",
"13 630 LINE",
"211 630 LINE SMOOTH",
"335 630 OFFCURVE",
"403 568 OFFCURVE",
"403 471 CURVE SMOOTH",
"403 369 OFFCURVE",
"320 302 OFFCURVE",
"230 302 CURVE SMOOTH",
"113 302 LINE",
"113 337 LINE",
"202 337 LINE SMOOTH",
"308 337 OFFCURVE",
"358 384 OFFCURVE",
"358 467 CURVE SMOOTH",
"358 548 OFFCURVE",
"310 595 OFFCURVE",
"212 595 CURVE SMOOTH",
"126 595 LINE",
"126 71 LINE SMOOTH",
"126 44 OFFCURVE",
"141 30 OFFCURVE",
"171 30 CURVE SMOOTH",
"198 30 LINE",
"198 0 LINE",
"13 0 LINE",
"13 30 LINE"
);
},
{
closed = 1;
nodes = (
"356 -10 OFFCURVE",
"325 15 OFFCURVE",
"325 76 CURVE SMOOTH",
"325 178 LINE SMOOTH",
"325 280 OFFCURVE",
"292 302 OFFCURVE",
"224 302 CURVE",
"224 333 LINE",
"259 333 OFFCURVE",
"292 332 OFFCURVE",
"309 321 CURVE",
"309 316 LINE",
"350 296 OFFCURVE",
"366 253 OFFCURVE",
"366 177 CURVE SMOOTH",
"366 75 LINE SMOOTH",
"366 36 OFFCURVE",
"379 21 OFFCURVE",
"397 21 CURVE SMOOTH",
"415 21 OFFCURVE",
"428 36 OFFCURVE",
"428 75 CURVE SMOOTH",
"428 166 LINE",
"463 166 LINE",
"463 76 LINE SMOOTH",
"463 15 OFFCURVE",
"437 -10 OFFCURVE",
"397 -10 CURVE SMOOTH"
);
}
);
width = 473;
},
{
layerId = "B25F85BC-C782-4067-8484-07202F80B8CD";
name = Condensed;
paths = (
{
closed = 1;
nodes = (
"52 90 LINE SMOOTH",
"68 90 OFFCURVE",
"77 101 OFFCURVE",
"77 121 CURVE SMOOTH",
"77 508 LINE SMOOTH",
"77 531 OFFCURVE",
"68 540 OFFCURVE",
"46 540 CURVE SMOOTH",
"15 540 LINE",
"15 630 LINE",
"270 630 LINE SMOOTH",
"418 630 OFFCURVE",
"492 570 OFFCURVE",
"492 459 CURVE SMOOTH",
"492 346 OFFCURVE",
"414 272 OFFCURVE",
"286 272 CURVE SMOOTH",
"202 272 LINE",
"202 367 LINE",
"251 367 LINE SMOOTH",
"315 367 OFFCURVE",
"347 401 OFFCURVE",
"347 458 CURVE SMOOTH",
"347 511 OFFCURVE",
"319 540 OFFCURVE",
"261 540 CURVE SMOOTH",
"215 540 LINE",
"215 121 LINE SMOOTH",
"215 99 OFFCURVE",
"225 90 OFFCURVE",
"250 90 CURVE SMOOTH",
"287 90 LINE",
"287 0 LINE",
"15 0 LINE",
"15 90 LINE"
);
},
{
closed = 1;
nodes = (
"361 -10 OFFCURVE",
"322 32 OFFCURVE",
"322 126 CURVE SMOOTH",
"322 174 LINE SMOOTH",
"322 239 OFFCURVE",
"317 272 OFFCURVE",
"261 272 CURVE",
"284 311 LINE",
"364 311 OFFCURVE",
"384 309 OFFCURVE",
"399 299 CURVE",
"399 294 LINE",
"438 284 OFFCURVE",
"456 256 OFFCURVE",
"456 208 CURVE SMOOTH",
"456 125 LINE SMOOTH",
"456 101 OFFCURVE",
"462 91 OFFCURVE",
"476 91 CURVE SMOOTH",
"489 91 OFFCURVE",
"495 101 OFFCURVE",
"495 125 CURVE SMOOTH",
"495 176 LINE",
"573 176 LINE",
"573 126 LINE SMOOTH",
"573 30 OFFCURVE",
"541 -10 OFFCURVE",
"452 -10 CURVE SMOOTH"
);
}
);
width = 573;
},
{
layerId = "B817C739-5D48-43E8-AAEE-CE891513D7BC";
name = "Bold Condensed";
paths = (
{
closed = 1;
nodes = (
"26 108 LINE SMOOTH",
"42 108 OFFCURVE",
"51 119 OFFCURVE",
"51 139 CURVE SMOOTH",
"51 490 LINE SMOOTH",
"51 515 OFFCURVE",
"42 522 OFFCURVE",
"20 522 CURVE SMOOTH",
"7 522 LINE",
"7 630 LINE",
"250 630 LINE SMOOTH",
"397 630 OFFCURVE",
"472 573 OFFCURVE",
"472 442 CURVE SMOOTH",
"472 309 OFFCURVE",
"395 252 OFFCURVE",
"249 252 CURVE SMOOTH",
"218 252 LINE",
"218 361 LINE",
"241 361 LINE SMOOTH",
"283 361 OFFCURVE",
"297 394 OFFCURVE",
"297 443 CURVE SMOOTH",
"297 499 OFFCURVE",
"280 522 OFFCURVE",
"251 522 CURVE SMOOTH",
"231 522 LINE",
"231 129 LINE SMOOTH",
"231 113 OFFCURVE",
"237 108 OFFCURVE",
"248 108 CURVE SMOOTH",
"256 108 LINE",
"256 0 LINE",
"7 0 LINE",
"7 108 LINE"
);
},
{
closed = 1;
nodes = (
"326 -10 OFFCURVE",
"285 31 OFFCURVE",
"285 126 CURVE SMOOTH",
"285 184 LINE SMOOTH",
"285 231 OFFCURVE",
"272 252 OFFCURVE",
"244 252 CURVE",
"247 311 LINE",
"345 311 OFFCURVE",
"391 306 OFFCURVE",
"409 294 CURVE",
"409 289 LINE",
"438 269 OFFCURVE",
"452 236 OFFCURVE",
"452 188 CURVE SMOOTH",
"452 124 LINE SMOOTH",
"452 114 OFFCURVE",
"454 111 OFFCURVE",
"461 111 CURVE SMOOTH",
"467 111 OFFCURVE",
"470 115 OFFCURVE",
"470 124 CURVE SMOOTH",
"470 176 LINE",
"548 176 LINE",
"548 126 LINE SMOOTH",
"548 27 OFFCURVE",
"513 -10 OFFCURVE",
"421 -10 CURVE SMOOTH"
);
}
);
width = 553;
},
{
layerId = UUID0;
name = "Light Extended";
paths = (
{
closed = 1;
nodes = (
"103 36 LINE SMOOTH",
"121 36 OFFCURVE",
"130 45 OFFCURVE",
"130 69 CURVE SMOOTH",
"130 562 LINE SMOOTH",
"130 587 OFFCURVE",
"121 594 OFFCURVE",
"97 594 CURVE SMOOTH",
"30 594 LINE",
"30 630 LINE",
"429 630 LINE SMOOTH",
"574 630 OFFCURVE",
"651 562 OFFCURVE",
"651 459 CURVE SMOOTH",
"651 349 OFFCURVE",
"567 282 OFFCURVE",
"418 282 CURVE SMOOTH",
"165 282 LINE",
"165 323 LINE",
"420 323 LINE SMOOTH",
"545 323 OFFCURVE",
"606 370 OFFCURVE",
"606 458 CURVE SMOOTH",
"606 542 OFFCURVE",
"549 589 OFFCURVE",
"430 589 CURVE SMOOTH",
"178 589 LINE",
"178 69 LINE SMOOTH",
"178 44 OFFCURVE",
"187 36 OFFCURVE",
"205 36 CURVE SMOOTH",
"297 36 LINE",
"297 0 LINE",
"31 0 LINE",
"31 36 LINE"
);
},
{
closed = 1;
nodes = (
"553 -10 OFFCURVE",
"519 27 OFFCURVE",
"519 96 CURVE SMOOTH",
"519 138 LINE SMOOTH",
"519 248 OFFCURVE",
"495 282 OFFCURVE",
"418 282 CURVE",
"418 305 LINE",
"487 305 OFFCURVE",
"508 303 OFFCURVE",
"520 295 CURVE",
"520 290 LINE",
"550 270 OFFCURVE",
"567 215 OFFCURVE",
"567 137 CURVE SMOOTH",
"567 115 LINE SMOOTH",
"567 54 OFFCURVE",
"581 31 OFFCURVE",
"618 31 CURVE SMOOTH",
"655 31 OFFCURVE",
"669 54 OFFCURVE",
"669 115 CURVE SMOOTH",
"669 166 LINE",
"709 166 LINE",
"709 96 LINE SMOOTH",
"709 25 OFFCURVE",
"678 -10 OFFCURVE",
"616 -10 CURVE SMOOTH"
);
}
);
width = 729;
},
{
layerId = "4355E1B8-19E6-44BD-A1D7-6E3C2DECA4C8";
name = Extended;
paths = (
{
closed = 1;
nodes = (
"97 90 LINE SMOOTH",
"116 90 OFFCURVE",
"124 100 OFFCURVE",
"124 123 CURVE SMOOTH",
"124 508 LINE SMOOTH",
"124 533 OFFCURVE",
"116 540 OFFCURVE",
"94 540 CURVE SMOOTH",
"22 540 LINE",
"22 630 LINE",
"513 630 LINE SMOOTH",
"658 630 OFFCURVE",
"735 564 OFFCURVE",
"735 454 CURVE SMOOTH",
"735 341 OFFCURVE",
"653 271 OFFCURVE",
"502 271 CURVE SMOOTH",
"249 271 LINE",
"249 372 LINE",
"474 372 LINE SMOOTH",
"561 372 OFFCURVE",
"588 405 OFFCURVE",
"588 456 CURVE SMOOTH",
"588 505 OFFCURVE",
"555 535 OFFCURVE",
"484 535 CURVE SMOOTH",
"262 535 LINE",
"262 123 LINE SMOOTH",
"262 100 OFFCURVE",
"270 90 OFFCURVE",
"289 90 CURVE SMOOTH",
"381 90 LINE",
"381 0 LINE",
"22 0 LINE",
"22 90 LINE"
);
},
{
closed = 1;
nodes = (
"551 -10 OFFCURVE",
"502 52 OFFCURVE",
"502 146 CURVE SMOOTH",
"502 174 LINE SMOOTH",
"502 242 OFFCURVE",
"477 271 OFFCURVE",
"401 271 CURVE",
"434 310 LINE",
"544 310 OFFCURVE",
"583 293 OFFCURVE",
"598 283 CURVE",
"598 278 LINE",
"621 271 OFFCURVE",
"636 239 OFFCURVE",
"636 198 CURVE SMOOTH",
"636 160 LINE SMOOTH",
"636 115 OFFCURVE",
"652 96 OFFCURVE",
"686 96 CURVE SMOOTH",
"720 96 OFFCURVE",
"735 116 OFFCURVE",
"735 150 CURVE SMOOTH",
"735 186 LINE",
"813 186 LINE",
"813 146 LINE SMOOTH",
"813 50 OFFCURVE",
"781 -10 OFFCURVE",
"667 -10 CURVE SMOOTH"
);
}
);
width = 823;
},
{
layerId = "14C77FDB-037D-4842-9381-6D9ED15DD48C";
name = "Bold Extended";
paths = (
{
closed = 1;
nodes = (
"79 152 LINE SMOOTH",
"98 152 OFFCURVE",
"106 162 OFFCURVE",
"106 185 CURVE SMOOTH",
"106 446 LINE SMOOTH",
"106 470 OFFCURVE",
"98 478 OFFCURVE",
"76 478 CURVE SMOOTH",
"17 478 LINE",
"17 630 LINE",
"539 630 LINE SMOOTH",
"683 630 OFFCURVE",
"771 557 OFFCURVE",
"771 448 CURVE SMOOTH",
"771 329 OFFCURVE",
"664 241 OFFCURVE",
"508 241 CURVE SMOOTH",
"325 241 LINE",
"325 392 LINE",
"414 392 LINE SMOOTH",
"474 392 OFFCURVE",
"502 413 OFFCURVE",
"502 449 CURVE SMOOTH",
"502 483 OFFCURVE",
"476 505 OFFCURVE",
"424 505 CURVE SMOOTH",
"356 505 LINE",
"356 185 LINE SMOOTH",
"356 162 OFFCURVE",
"364 152 OFFCURVE",
"383 152 CURVE SMOOTH",
"425 152 LINE",
"425 0 LINE",
"17 0 LINE",
"17 152 LINE"
);
},
{
closed = 1;
nodes = (
"533 -10 OFFCURVE",
"459 49 OFFCURVE",
"459 156 CURVE SMOOTH",
"459 184 LINE SMOOTH",
"459 224 OFFCURVE",
"444 241 OFFCURVE",
"408 241 CURVE",
"471 310 LINE",
"551 310 OFFCURVE",
"640 296 OFFCURVE",
"665 279 CURVE",
"665 274 LINE",
"691 262 OFFCURVE",
"703 238 OFFCURVE",
"703 198 CURVE SMOOTH",
"703 176 LINE SMOOTH",
"703 159 OFFCURVE",
"709 151 OFFCURVE",
"722 151 CURVE SMOOTH",
"735 151 OFFCURVE",
"742 159 OFFCURVE",
"742 175 CURVE SMOOTH",
"742 236 LINE",
"860 236 LINE",
"860 176 LINE SMOOTH",
"860 46 OFFCURVE",
"802 -10 OFFCURVE",
"667 -10 CURVE SMOOTH"
);
}
);
width = 870;
}
);
leftMetricsKey = H;
unicode = 0052;
},
{
glyphname = S;
lastChange = "2015-04-01 21:56:09 +0000";
layers = (
{
layerId = "E9E6D55E-9446-45F2-B66C-3272698B0216";
name = "Light Condensed";
paths = (
{
closed = 1;
nodes = (
"111 24 OFFCURVE",
"63 92 OFFCURVE",
"63 214 CURVE",
"32 214 LINE",
"32 0 LINE",
"60 0 LINE",
"65 54 LINE",
"69 54 LINE",
"95 15 OFFCURVE",
"145 -10 OFFCURVE",
"198 -10 CURVE SMOOTH",
"283 -10 OFFCURVE",
"341 54 OFFCURVE",
"341 148 CURVE SMOOTH",
"341 353 OFFCURVE",
"74 329 OFFCURVE",
"74 498 CURVE SMOOTH",
"74 562 OFFCURVE",
"115 601 OFFCURVE",
"181 601 CURVE SMOOTH",
"254 601 OFFCURVE",
"291 547 OFFCURVE",
"291 441 CURVE",
"322 441 LINE",
"322 630 LINE",
"301 630 LINE",
"295 583 LINE",
"291 583 LINE",
"262 617 OFFCURVE",
"223 635 OFFCURVE",
"178 635 CURVE SMOOTH",
"93 635 OFFCURVE",
"37 575 OFFCURVE",
"37 484 CURVE SMOOTH",
"37 282 OFFCURVE",
"303 315 OFFCURVE",
"303 137 CURVE SMOOTH",
"303 66 OFFCURVE",
"263 24 OFFCURVE",
"197 24 CURVE SMOOTH"
);
}
);
width = 378;
},
{
layerId = "B25F85BC-C782-4067-8484-07202F80B8CD";
name = Condensed;
paths = (
{
closed = 1;
nodes = (
"161 91 OFFCURVE",
"129 140 OFFCURVE",
"129 237 CURVE",
"30 237 LINE",
"30 0 LINE",
"117 0 LINE",
"127 54 LINE",
"131 54 LINE",
"160 10 OFFCURVE",
"196 -10 OFFCURVE",
"249 -10 CURVE SMOOTH",
"350 -10 OFFCURVE",
"418 62 OFFCURVE",
"418 169 CURVE SMOOTH",
"418 383 OFFCURVE",
"163 370 OFFCURVE",
"163 474 CURVE SMOOTH",
"163 510 OFFCURVE",
"192 537 OFFCURVE",
"229 537 CURVE SMOOTH",
"278 537 OFFCURVE",
"303 490 OFFCURVE",
"303 399 CURVE",
"403 399 LINE",
"403 630 LINE",
"321 630 LINE",
"309 574 LINE",
"305 574 LINE",
"287 616 OFFCURVE",
"249 638 OFFCURVE",
"196 638 CURVE SMOOTH",
"99 638 OFFCURVE",
"34 567 OFFCURVE",
"34 462 CURVE SMOOTH",
"34 250 OFFCURVE",
"294 275 OFFCURVE",
"294 156 CURVE SMOOTH",
"294 117 OFFCURVE",
"266 91 OFFCURVE",
"223 91 CURVE SMOOTH"
);
}
);
width = 448;
},
{
layerId = "B817C739-5D48-43E8-AAEE-CE891513D7BC";
name = "Bold Condensed";
paths = (
{
closed = 1;
nodes = (
"185 114 OFFCURVE",
"171 147 OFFCURVE",
"171 224 CURVE",
"10 224 LINE",
"10 0 LINE",
"168 0 LINE",
"173 54 LINE",
"177 54 LINE",
"193 14 OFFCURVE",
"234 -10 OFFCURVE",
"288 -10 CURVE SMOOTH",
"372 -10 OFFCURVE",
"422 50 OFFCURVE",
"422 150 CURVE SMOOTH",
"422 364 OFFCURVE",
"191 393 OFFCURVE",
"191 486 CURVE SMOOTH",
"191 503 OFFCURVE",
"204 516 OFFCURVE",
"220 516 CURVE SMOOTH",
"244 516 OFFCURVE",
"258 483 OFFCURVE",
"258 426 CURVE",
"409 426 LINE",
"409 630 LINE",
"278 630 LINE",
"272 588 LINE",
"268 588 LINE",
"249 625 OFFCURVE",
"221 640 OFFCURVE",
"169 640 CURVE SMOOTH",
"72 640 OFFCURVE",
"19 584 OFFCURVE",
"19 482 CURVE SMOOTH",
"19 267 OFFCURVE",
"251 247 OFFCURVE",
"251 153 CURVE SMOOTH",
"251 129 OFFCURVE",
"238 114 OFFCURVE",
"217 114 CURVE SMOOTH"
);
}
);
width = 432;
},
{
layerId = UUID0;
name = "Light Extended";
paths = (
{
closed = 1;
nodes = (
"176 26 OFFCURVE",
"88 100 OFFCURVE",
"88 234 CURVE",
"60 234 LINE",
"60 0 LINE",
"89 0 LINE",
"94 67 LINE",
"98 67 LINE",
"144 19 OFFCURVE",
"233 -10 OFFCURVE",
"335 -10 CURVE SMOOTH",
"489 -10 OFFCURVE",
"583 55 OFFCURVE",
"583 161 CURVE SMOOTH",
"583 400 OFFCURVE",
"114 310 OFFCURVE",
"114 488 CURVE SMOOTH",
"114 560 OFFCURVE",
"190 604 OFFCURVE",
"314 604 CURVE SMOOTH",
"462 604 OFFCURVE",
"534 539 OFFCURVE",
"534 406 CURVE",
"564 406 LINE",
"564 630 LINE",
"536 630 LINE",
"530 574 LINE",
"526 574 LINE",
"476 617 OFFCURVE",
"400 640 OFFCURVE",
"309 640 CURVE SMOOTH",
"161 640 OFFCURVE",
"69 578 OFFCURVE",
"69 477 CURVE SMOOTH",
"69 252 OFFCURVE",
"537 344 OFFCURVE",
"537 153 CURVE SMOOTH",
"537 74 OFFCURVE",
"460 26 OFFCURVE",
"333 26 CURVE SMOOTH"
);
}
);
width = 643;
},
{
layerId = "4355E1B8-19E6-44BD-A1D7-6E3C2DECA4C8";
name = Extended;
paths = (
{
closed = 1;
nodes = (
"232 89 OFFCURVE",
"174 144 OFFCURVE",
"174 247 CURVE",
"65 247 LINE",
"65 0 LINE",
"172 0 LINE",
"182 54 LINE",
"186 54 LINE",
"226 12 OFFCURVE",
"286 -10 OFFCURVE",
"362 -10 CURVE SMOOTH",
"501 -10 OFFCURVE",
"593 64 OFFCURVE",
"593 175 CURVE SMOOTH",
"593 403 OFFCURVE",
"208 345 OFFCURVE",
"208 472 CURVE SMOOTH",
"208 513 OFFCURVE",
"248 537 OFFCURVE",
"319 537 CURVE SMOOTH",
"417 537 OFFCURVE",
"463 493 OFFCURVE",
"463 399 CURVE",
"573 399 LINE",
"573 630 LINE",
"471 630 LINE",
"459 574 LINE",
"455 574 LINE",
"421 616 OFFCURVE",
"365 638 OFFCURVE",
"294 638 CURVE SMOOTH",
"161 638 OFFCURVE",
"69 562 OFFCURVE",
"69 453 CURVE SMOOTH",
"69 227 OFFCURVE",
"459 289 OFFCURVE",
"459 159 CURVE SMOOTH",
"459 115 OFFCURVE",
"416 89 OFFCURVE",
"342 89 CURVE SMOOTH"
);
}
);
width = 638;
},
{
layerId = "14C77FDB-037D-4842-9381-6D9ED15DD48C";
name = "Bold Extended";
paths = (
{
closed = 1;
nodes = (
"241 126 OFFCURVE",
"206 167 OFFCURVE",
"206 247 CURVE",
"15 247 LINE",
"15 0 LINE",
"204 0 LINE",
"214 39 LINE",
"218 39 LINE",
"265 8 OFFCURVE",
"341 -10 OFFCURVE",
"424 -10 CURVE SMOOTH",
"583 -10 OFFCURVE",
"675 58 OFFCURVE",
"675 176 CURVE SMOOTH",
"675 399 OFFCURVE",
"335 370 OFFCURVE",
"335 458 CURVE SMOOTH",
"335 482 OFFCURVE",
"359 497 OFFCURVE",
"396 497 CURVE SMOOTH",
"449 497 OFFCURVE",
"475 465 OFFCURVE",
"475 399 CURVE",
"665 399 LINE",
"665 630 LINE",
"483 630 LINE",
"471 589 LINE",
"467 589 LINE",
"426 620 OFFCURVE",
"352 638 OFFCURVE",
"267 638 CURVE SMOOTH",
"114 638 OFFCURVE",
"29 573 OFFCURVE",
"29 457 CURVE SMOOTH",
"29 225 OFFCURVE",
"376 258 OFFCURVE",
"376 169 CURVE SMOOTH",
"376 143 OFFCURVE",
"349 126 OFFCURVE",
"308 126 CURVE SMOOTH"
);
}
);
width = 690;
}
);
unicode = 0053;
},
{
glyphname = T;
lastChange = "2015-04-01 21:56:09 +0000";
layers = (
{
layerId = "E9E6D55E-9446-45F2-B66C-3272698B0216";
name = "Light Condensed";
paths = (
{
closed = 1;
nodes = (
"68 0 LINE",
"313 0 LINE",
"313 30 LINE",
"253 30 LINE SMOOTH",
"227 30 OFFCURVE",
"217 45 OFFCURVE",
"217 71 CURVE SMOOTH",
"217 600 LINE",
"282 600 LINE SMOOTH",
"327 600 OFFCURVE",
"344 577 OFFCURVE",
"344 421 CURVE",
"376 421 LINE",
"376 630 LINE",
"15 630 LINE",
"15 421 LINE",
"47 421 LINE",
"47 577 OFFCURVE",
"64 600 OFFCURVE",
"109 600 CURVE SMOOTH",
"174 600 LINE",
"174 72 LINE SMOOTH",
"174 45 OFFCURVE",
"161 30 OFFCURVE",
"128 30 CURVE SMOOTH",
"68 30 LINE"
);
}
);
width = 391;
},
{
layerId = "B25F85BC-C782-4067-8484-07202F80B8CD";
name = Condensed;
paths = (
{
closed = 1;
nodes = (
"118 0 LINE",
"388 0 LINE",
"388 90 LINE",
"348 90 LINE SMOOTH",
"329 90 OFFCURVE",
"322 103 OFFCURVE",
"322 120 CURVE SMOOTH",
"322 540 LINE",
"342 540 LINE SMOOTH",
"379 540 OFFCURVE",
"390 518 OFFCURVE",
"390 353 CURVE",
"491 353 LINE",
"491 630 LINE",
"15 630 LINE",
"15 353 LINE",
"116 353 LINE",
"116 518 OFFCURVE",
"127 540 OFFCURVE",
"164 540 CURVE SMOOTH",
"184 540 LINE",
"184 126 LINE SMOOTH",
"184 101 OFFCURVE",
"178 90 OFFCURVE",
"158 90 CURVE SMOOTH",
"118 90 LINE"
);
}
);
width = 506;
},
{
layerId = "B817C739-5D48-43E8-AAEE-CE891513D7BC";
name = "Bold Condensed";
paths = (
{
closed = 1;
nodes = (
"118 0 LINE",
"416 0 LINE",
"416 108 LINE",
"381 108 LINE SMOOTH",
"358 108 OFFCURVE",
"349 120 OFFCURVE",
"349 140 CURVE SMOOTH",
"349 522 LINE",
"353 522 LINE SMOOTH",
"380 522 OFFCURVE",
"392 500 OFFCURVE",
"392 317 CURVE",
"523 317 LINE",
"523 630 LINE",
"5 630 LINE",
"5 317 LINE",
"136 317 LINE",
"136 500 OFFCURVE",
"148 522 OFFCURVE",
"175 522 CURVE SMOOTH",
"179 522 LINE",
"179 144 LINE SMOOTH",
"179 119 OFFCURVE",
"173 108 OFFCURVE",
"153 108 CURVE SMOOTH",
"118 108 LINE"
);
}
);
width = 528;
},
{
layerId = UUID0;
name = "Light Extended";
paths = (
{
closed = 1;
nodes = (
"178 0 LINE",
"479 0 LINE",
"479 36 LINE",
"379 36 LINE SMOOTH",
"359 36 OFFCURVE",
"352 47 OFFCURVE",
"352 68 CURVE SMOOTH",
"352 594 LINE",
"533 594 LINE SMOOTH",
"590 594 OFFCURVE",
"595 552 OFFCURVE",
"595 361 CURVE",
"632 361 LINE",
"632 630 LINE",
"25 630 LINE",
"25 361 LINE",
"62 361 LINE",
"62 552 OFFCURVE",
"67 594 OFFCURVE",
"124 594 CURVE SMOOTH",
"304 594 LINE",
"304 68 LINE SMOOTH",
"304 47 OFFCURVE",
"297 36 OFFCURVE",
"278 36 CURVE SMOOTH",
"178 36 LINE"
);
}
);
width = 657;
},
{
layerId = "4355E1B8-19E6-44BD-A1D7-6E3C2DECA4C8";
name = Extended;
paths = (
{
closed = 1;
nodes = (
"170 0 LINE",
"561 0 LINE",
"561 90 LINE",
"461 90 LINE SMOOTH",
"440 90 OFFCURVE",
"434 99 OFFCURVE",
"434 126 CURVE SMOOTH",
"434 540 LINE",
"514 540 LINE SMOOTH",
"591 540 OFFCURVE",
"612 498 OFFCURVE",
"612 333 CURVE",
"710 333 LINE",
"710 630 LINE",
"20 630 LINE",
"20 333 LINE",
"118 333 LINE",
"118 498 OFFCURVE",
"139 540 OFFCURVE",
"216 540 CURVE SMOOTH",
"296 540 LINE",
"296 126 LINE SMOOTH",
"296 101 OFFCURVE",
"290 90 OFFCURVE",
"270 90 CURVE SMOOTH",
"170 90 LINE"
);
}
);
width = 730;
},
{
layerId = "14C77FDB-037D-4842-9381-6D9ED15DD48C";
name = "Bold Extended";
paths = (
{
closed = 1;
nodes = (
"162 0 LINE",
"624 0 LINE",
"624 152 LINE",
"544 152 LINE SMOOTH",
"525 152 OFFCURVE",
"518 163 OFFCURVE",
"518 182 CURVE SMOOTH",
"518 478 LINE",
"538 478 LINE SMOOTH",
"584 478 OFFCURVE",
"606 463 OFFCURVE",
"606 308 CURVE",
"776 308 LINE",
"776 630 LINE",
"10 630 LINE",
"10 308 LINE",
"180 308 LINE",
"180 463 OFFCURVE",
"202 478 OFFCURVE",
"248 478 CURVE SMOOTH",
"268 478 LINE",
"268 188 LINE SMOOTH",
"268 163 OFFCURVE",
"262 152 OFFCURVE",
"242 152 CURVE SMOOTH",
"162 152 LINE"
);
}
);
width = 786;
}
);
unicode = 0054;
},
{
glyphname = U;
lastChange = "2015-04-01 21:57:46 +0000";
layers = (
{
layerId = "E9E6D55E-9446-45F2-B66C-3272698B0216";
name = "Light Condensed";
paths = (
{
closed = 1;
nodes = (
"337 -10 OFFCURVE",
"388 44 OFFCURVE",
"388 145 CURVE SMOOTH",
"388 558 LINE SMOOTH",
"388 587 OFFCURVE",
"399 600 OFFCURVE",
"424 600 CURVE SMOOTH",
"459 600 LINE",
"459 630 LINE",
"281 630 LINE",
"281 600 LINE",
"317 600 LINE SMOOTH",
"342 600 OFFCURVE",
"353 587 OFFCURVE",
"353 558 CURVE SMOOTH",
"353 142 LINE SMOOTH",
"353 65 OFFCURVE",
"317 28 OFFCURVE",
"239 28 CURVE SMOOTH",
"162 28 OFFCURVE",
"126 65 OFFCURVE",
"126 142 CURVE SMOOTH",
"126 558 LINE SMOOTH",
"126 587 OFFCURVE",
"137 600 OFFCURVE",
"162 600 CURVE SMOOTH",
"198 600 LINE",
"198 630 LINE",
"13 630 LINE",
"13 600 LINE",
"48 600 LINE SMOOTH",
"73 600 OFFCURVE",
"84 587 OFFCURVE",
"84 558 CURVE SMOOTH",
"84 145 LINE SMOOTH",
"84 43 OFFCURVE",
"138 -10 OFFCURVE",
"236 -10 CURVE SMOOTH"
);
}
);
width = 472;
},
{
layerId = "B25F85BC-C782-4067-8484-07202F80B8CD";
name = Condensed;
paths = (
{
closed = 1;
nodes = (
"387 -10 OFFCURVE",
"446 53 OFFCURVE",
"446 175 CURVE SMOOTH",
"446 508 LINE SMOOTH",
"446 530 OFFCURVE",
"454 540 OFFCURVE",
"472 540 CURVE SMOOTH",
"514 540 LINE",
"514 630 LINE",
"292 630 LINE",
"292 540 LINE",
"318 540 LINE SMOOTH",
"335 540 OFFCURVE",
"344 529 OFFCURVE",
"344 508 CURVE SMOOTH",
"344 172 LINE SMOOTH",
"344 124 OFFCURVE",
"327 98 OFFCURVE",
"279 98 CURVE SMOOTH",
"232 98 OFFCURVE",
"215 124 OFFCURVE",
"215 172 CURVE SMOOTH",
"215 508 LINE SMOOTH",
"215 530 OFFCURVE",
"223 540 OFFCURVE",
"241 540 CURVE SMOOTH",
"263 540 LINE",
"263 630 LINE",
"15 630 LINE",
"15 540 LINE",
"51 540 LINE SMOOTH",
"70 540 OFFCURVE",
"77 529 OFFCURVE",
"77 498 CURVE SMOOTH",
"77 175 LINE SMOOTH",
"77 56 OFFCURVE",
"143 -10 OFFCURVE",
"267 -10 CURVE SMOOTH"
);
}
);
width = 529;
},
{
layerId = "B817C739-5D48-43E8-AAEE-CE891513D7BC";
name = "Bold Condensed";
paths = (
{
closed = 1;
nodes = (
"361 -10 OFFCURVE",
"425 53 OFFCURVE",
"425 170 CURVE SMOOTH",
"425 490 LINE SMOOTH",
"425 512 OFFCURVE",
"433 522 OFFCURVE",
"451 522 CURVE SMOOTH",
"469 522 LINE",
"469 630 LINE",
"265 630 LINE",
"265 522 LINE",
"272 522 LINE SMOOTH",
"281 522 OFFCURVE",
"285 518 OFFCURVE",
"285 508 CURVE SMOOTH",
"285 172 LINE SMOOTH",
"285 141 OFFCURVE",
"277 128 OFFCURVE",
"258 128 CURVE SMOOTH",
"239 128 OFFCURVE",
"231 142 OFFCURVE",
"231 172 CURVE SMOOTH",
"231 508 LINE SMOOTH",
"231 518 OFFCURVE",
"235 522 OFFCURVE",
"244 522 CURVE SMOOTH",
"251 522 LINE",
"251 630 LINE",
"7 630 LINE",
"7 522 LINE",
"25 522 LINE SMOOTH",
"45 522 OFFCURVE",
"51 513 OFFCURVE",
"51 485 CURVE SMOOTH",
"51 170 LINE SMOOTH",
"51 56 OFFCURVE",
"122 -10 OFFCURVE",
"244 -10 CURVE SMOOTH"
);
}
);
width = 476;
},
{
layerId = UUID0;
name = "Light Extended";
paths = (
{
closed = 1;
nodes = (
"564 -10 OFFCURVE",
"651 62 OFFCURVE",
"651 205 CURVE SMOOTH",
"651 562 LINE SMOOTH",
"651 583 OFFCURVE",
"660 594 OFFCURVE",
"677 594 CURVE SMOOTH",
"752 594 LINE",
"752 630 LINE",
"514 630 LINE",
"514 594 LINE",
"587 594 LINE SMOOTH",
"603 594 OFFCURVE",
"613 582 OFFCURVE",
"613 562 CURVE SMOOTH",
"613 202 LINE SMOOTH",
"613 85 OFFCURVE",
"545 32 OFFCURVE",
"394 32 CURVE SMOOTH",
"244 32 OFFCURVE",
"178 84 OFFCURVE",
"178 202 CURVE SMOOTH",
"178 562 LINE SMOOTH",
"178 584 OFFCURVE",
"186 594 OFFCURVE",
"204 594 CURVE SMOOTH",
"278 594 LINE",
"278 630 LINE",
"30 630 LINE",
"30 594 LINE",
"104 594 LINE SMOOTH",
"122 594 OFFCURVE",
"130 584 OFFCURVE",
"130 562 CURVE SMOOTH",
"130 205 LINE SMOOTH",
"130 61 OFFCURVE",
"219 -10 OFFCURVE",
"391 -10 CURVE SMOOTH"
);
}
);
width = 782;
},
{
layerId = "4355E1B8-19E6-44BD-A1D7-6E3C2DECA4C8";
name = Extended;
paths = (
{
closed = 1;
nodes = (
"601 -10 OFFCURVE",
"706 77 OFFCURVE",
"706 235 CURVE SMOOTH",
"706 510 LINE SMOOTH",
"706 531 OFFCURVE",
"713 540 OFFCURVE",
"732 540 CURVE SMOOTH",
"803 540 LINE",
"803 630 LINE",
"502 630 LINE",
"502 540 LINE",
"578 540 LINE SMOOTH",
"595 540 OFFCURVE",
"604 530 OFFCURVE",
"604 509 CURVE SMOOTH",
"604 236 LINE SMOOTH",
"604 147 OFFCURVE",
"543 98 OFFCURVE",
"432 98 CURVE SMOOTH",
"322 98 OFFCURVE",
"262 146 OFFCURVE",
"262 236 CURVE SMOOTH",
"262 509 LINE SMOOTH",
"262 530 OFFCURVE",
"269 540 OFFCURVE",
"286 540 CURVE SMOOTH",
"360 540 LINE",
"360 630 LINE",
"22 630 LINE",
"22 540 LINE",
"98 540 LINE SMOOTH",
"116 540 OFFCURVE",
"124 530 OFFCURVE",
"124 508 CURVE SMOOTH",
"124 235 LINE SMOOTH",
"124 74 OFFCURVE",
"234 -10 OFFCURVE",
"416 -10 CURVE SMOOTH"
);
}
);
width = 825;
},
{
layerId = "14C77FDB-037D-4842-9381-6D9ED15DD48C";
name = "Bold Extended";
paths = (
{
closed = 1;
nodes = (
"573 -10 OFFCURVE",
"673 74 OFFCURVE",
"673 235 CURVE SMOOTH",
"673 448 LINE SMOOTH",
"673 468 OFFCURVE",
"682 478 OFFCURVE",
"699 478 CURVE SMOOTH",
"762 478 LINE",
"762 630 LINE",
"451 630 LINE",
"451 478 LINE",
"489 478 LINE SMOOTH",
"506 478 OFFCURVE",
"513 468 OFFCURVE",
"513 447 CURVE SMOOTH",
"513 262 LINE SMOOTH",
"513 199 OFFCURVE",
"490 174 OFFCURVE",
"432 174 CURVE SMOOTH",
"376 174 OFFCURVE",
"356 197 OFFCURVE",
"356 262 CURVE SMOOTH",
"356 447 LINE SMOOTH",
"356 468 OFFCURVE",
"363 478 OFFCURVE",
"380 478 CURVE SMOOTH",
"417 478 LINE",
"417 630 LINE",
"17 630 LINE",
"17 478 LINE",
"79 478 LINE SMOOTH",
"98 478 OFFCURVE",
"106 468 OFFCURVE",
"106 446 CURVE SMOOTH",
"106 235 LINE SMOOTH",
"106 71 OFFCURVE",
"228 -10 OFFCURVE",
"399 -10 CURVE SMOOTH"
);
}
);
width = 779;
}
);
unicode = 0055;
},
{
glyphname = V;
lastChange = "2015-04-01 21:56:09 +0000";
layers = (
{
layerId = "E9E6D55E-9446-45F2-B66C-3272698B0216";
name = "Light Condensed";
paths = (
{
closed = 1;
nodes = (
"8 600 LINE",
"41 600 LINE SMOOTH",
"64 600 OFFCURVE",
"75 590 OFFCURVE",
"83 550 CURVE SMOOTH",
"193 0 LINE",
"243 0 LINE",
"358 552 LINE SMOOTH",
"366 590 OFFCURVE",
"381 600 OFFCURVE",
"407 600 CURVE SMOOTH",
"431 600 LINE",
"431 630 LINE",
"257 630 LINE",
"257 600 LINE",
"293 600 LINE SMOOTH",
"321 600 OFFCURVE",
"332 591 OFFCURVE",
"332 572 CURVE SMOOTH",
"332 566 OFFCURVE",
"331 559 OFFCURVE",
"329 551 CURVE SMOOTH",
"225 68 LINE",
"220 68 LINE",
"126 551 LINE SMOOTH",
"125 558 OFFCURVE",
"124 564 OFFCURVE",
"124 570 CURVE SMOOTH",
"124 589 OFFCURVE",
"132 600 OFFCURVE",
"154 600 CURVE SMOOTH",
"190 600 LINE",
"190 630 LINE",
"8 630 LINE"
);
}
);
width = 437;
},
{
layerId = "B25F85BC-C782-4067-8484-07202F80B8CD";
name = Condensed;
paths = (
{
closed = 1;
nodes = (
"10 540 LINE",
"19 540 LINE SMOOTH",
"52 539 OFFCURVE",
"66 529 OFFCURVE",
"74 500 CURVE SMOOTH",
"211 0 LINE",
"371 0 LINE",
"493 512 LINE SMOOTH",
"496 527 OFFCURVE",
"508 540 OFFCURVE",
"537 540 CURVE SMOOTH",
"557 540 LINE",
"557 630 LINE",
"339 630 LINE",
"339 540 LINE",
"373 540 LINE SMOOTH",
"390 540 OFFCURVE",
"397 532 OFFCURVE",
"397 516 CURVE SMOOTH",
"397 510 OFFCURVE",
"396 503 OFFCURVE",
"394 495 CURVE SMOOTH",
"311 126 LINE",
"307 126 LINE",
"230 500 LINE SMOOTH",
"229 506 OFFCURVE",
"228 512 OFFCURVE",
"228 517 CURVE SMOOTH",
"228 531 OFFCURVE",
"235 540 OFFCURVE",
"256 540 CURVE SMOOTH",
"295 540 LINE",
"295 630 LINE",
"10 630 LINE"
);
}
);
width = 567;
},
{
layerId = "B817C739-5D48-43E8-AAEE-CE891513D7BC";
name = "Bold Condensed";
paths = (
{
closed = 1;
nodes = (
"5 522 LINE",
"9 522 LINE SMOOTH",
"24 522 OFFCURVE",
"32 515 OFFCURVE",
"40 482 CURVE SMOOTH",
"153 0 LINE",
"341 0 LINE",
"456 490 LINE SMOOTH",
"462 514 OFFCURVE",
"475 522 OFFCURVE",
"492 522 CURVE SMOOTH",
"506 522 LINE",
"506 630 LINE",
"277 630 LINE",
"277 522 LINE",
"284 522 LINE SMOOTH",
"309 522 OFFCURVE",
"318 513 OFFCURVE",
"318 496 CURVE SMOOTH",
"318 490 OFFCURVE",
"317 484 OFFCURVE",
"316 477 CURVE SMOOTH",
"273 230 LINE",
"268 230 LINE",
"225 472 LINE",
"224 478 OFFCURVE",
"223 484 OFFCURVE",
"223 490 CURVE SMOOTH",
"223 511 OFFCURVE",
"234 522 OFFCURVE",
"253 522 CURVE SMOOTH",
"263 522 LINE",
"263 630 LINE",
"5 630 LINE"
);
}
);
width = 511;
},
{
layerId = UUID0;
name = "Light Extended";
paths = (
{
closed = 1;
nodes = (
"5 594 LINE",
"77 594 LINE SMOOTH",
"96 594 OFFCURVE",
"105 586 OFFCURVE",
"114 562 CURVE SMOOTH",
"332 0 LINE",
"396 0 LINE",
"600 565 LINE SMOOTH",
"607 587 OFFCURVE",
"619 594 OFFCURVE",
"651 594 CURVE SMOOTH",
"716 594 LINE",
"716 630 LINE",
"468 630 LINE",
"468 594 LINE",
"538 594 LINE SMOOTH",
"553 594 OFFCURVE",
"562 587 OFFCURVE",
"562 576 CURVE SMOOTH",
"562 572 OFFCURVE",
"561 567 OFFCURVE",
"559 562 CURVE SMOOTH",
"373 44 LINE",
"369 44 LINE",
"171 557 LINE SMOOTH",
"169 562 OFFCURVE",
"167 568 OFFCURVE",
"167 573 CURVE SMOOTH",
"167 587 OFFCURVE",
"177 594 OFFCURVE",
"196 594 CURVE SMOOTH",
"265 594 LINE",
"265 630 LINE",
"5 630 LINE"
);
}
);
width = 721;
},
{
layerId = "4355E1B8-19E6-44BD-A1D7-6E3C2DECA4C8";
name = Extended;
paths = (
{
closed = 1;
nodes = (
"10 540 LINE",
"23 540 LINE SMOOTH",
"72 539 OFFCURVE",
"88 527 OFFCURVE",
"104 484 CURVE SMOOTH",
"290 0 LINE",
"450 0 LINE",
"650 484 LINE SMOOTH",
"669 529 OFFCURVE",
"676 540 OFFCURVE",
"710 540 CURVE SMOOTH",
"743 540 LINE",
"743 630 LINE",
"421 630 LINE",
"421 540 LINE",
"507 540 LINE SMOOTH",
"530 540 OFFCURVE",
"543 529 OFFCURVE",
"543 508 CURVE SMOOTH",
"543 502 OFFCURVE",
"541 493 OFFCURVE",
"538 484 CURVE SMOOTH",
"394 111 LINE",
"389 111 LINE",
"260 484 LINE SMOOTH",
"256 496 OFFCURVE",
"254 506 OFFCURVE",
"254 514 CURVE SMOOTH",
"254 532 OFFCURVE",
"263 540 OFFCURVE",
"285 540 CURVE SMOOTH",
"376 540 LINE",
"376 630 LINE",
"10 630 LINE"
);
}
);
width = 753;
},
{
layerId = "14C77FDB-037D-4842-9381-6D9ED15DD48C";
name = "Bold Extended";
paths = (
{
closed = 1;
nodes = (
"9 478 LINE",
"17 478 LINE SMOOTH",
"51 477 OFFCURVE",
"64 467 OFFCURVE",
"78 438 CURVE SMOOTH",
"284 0 LINE",
"530 0 LINE",
"720 443 LINE SMOOTH",
"731 470 OFFCURVE",
"737 478 OFFCURVE",
"765 478 CURVE SMOOTH",
"796 478 LINE",
"796 630 LINE",
"461 630 LINE",
"461 478 LINE",
"505 478 LINE SMOOTH",
"527 478 OFFCURVE",
"537 465 OFFCURVE",
"537 449 CURVE SMOOTH",
"537 443 OFFCURVE",
"536 436 OFFCURVE",
"533 428 CURVE",
"440 176 LINE",
"436 176 LINE",
"339 438 LINE",
"337 444 OFFCURVE",
"336 449 OFFCURVE",
"336 454 CURVE SMOOTH",
"336 469 OFFCURVE",
"345 478 OFFCURVE",
"364 478 CURVE SMOOTH",
"425 478 LINE",
"425 630 LINE",
"9 630 LINE"
);
}
);
width = 805;
}
);
unicode = 0056;
},
{
glyphname = W;
lastChange = "2015-04-01 21:56:09 +0000";
layers = (
{
layerId = "E9E6D55E-9446-45F2-B66C-3272698B0216";
name = "Light Condensed";
paths = (
{
closed = 1;
nodes = (
"10 600 LINE",
"43 600 LINE SMOOTH",
"66 600 OFFCURVE",
"78 590 OFFCURVE",
"85 550 CURVE SMOOTH",
"185 0 LINE",
"239 0 LINE",
"351 551 LINE",
"315 551 LINE",
"221 68 LINE",
"216 68 LINE",
"126 551 LINE SMOOTH",
"124 560 OFFCURVE",
"123 568 OFFCURVE",
"123 573 CURVE SMOOTH",
"123 592 OFFCURVE",
"135 600 OFFCURVE",
"160 600 CURVE SMOOTH",
"196 600 LINE",
"196 630 LINE",
"10 630 LINE"
);
},
{
closed = 1;
nodes = (
"238 600 LINE",
"271 600 LINE SMOOTH",
"294 600 OFFCURVE",
"308 590 OFFCURVE",
"313 550 CURVE SMOOTH",
"328 438 LINE",
"333 438 LINE",
"413 0 LINE",
"467 0 LINE",
"579 551 LINE SMOOTH",
"587 590 OFFCURVE",
"595 600 OFFCURVE",
"621 600 CURVE SMOOTH",
"645 600 LINE",
"645 630 LINE",
"471 630 LINE",
"471 600 LINE",
"507 600 LINE SMOOTH",
"537 600 OFFCURVE",
"546 592 OFFCURVE",
"546 573 CURVE SMOOTH",
"546 567 OFFCURVE",
"545 560 OFFCURVE",
"543 551 CURVE SMOOTH",
"449 68 LINE",
"444 68 LINE",
"354 551 LINE SMOOTH",
"352 560 OFFCURVE",
"351 568 OFFCURVE",
"351 573 CURVE SMOOTH",
"351 592 OFFCURVE",
"363 600 OFFCURVE",
"388 600 CURVE SMOOTH",
"429 600 LINE",
"429 630 LINE",
"238 630 LINE"
);
}
);
width = 655;
},
{
layerId = "B25F85BC-C782-4067-8484-07202F80B8CD";
name = Condensed;
paths = (
{
closed = 1;
nodes = (
"10 540 LINE",
"19 540 LINE SMOOTH",
"50 540 OFFCURVE",
"66 529 OFFCURVE",
"73 500 CURVE SMOOTH",
"191 0 LINE",
"361 0 LINE",
"481 511 LINE",
"374 495 LINE",
"301 126 LINE",
"297 126 LINE",
"223 500 LINE SMOOTH",
"222 506 OFFCURVE",
"221 511 OFFCURVE",
"221 517 CURVE SMOOTH",
"221 531 OFFCURVE",
"229 540 OFFCURVE",
"244 540 CURVE SMOOTH",
"285 540 LINE",
"285 630 LINE",
"10 630 LINE"
);
},
{
closed = 1;
nodes = (
"309 540 LINE",
"323 540 LINE SMOOTH",
"344 540 OFFCURVE",
"358 529 OFFCURVE",
"367 500 CURVE SMOOTH",
"429 291 LINE",
"434 291 LINE",
"495 0 LINE",
"655 0 LINE",
"775 511 LINE SMOOTH",
"780 533 OFFCURVE",
"792 540 OFFCURVE",
"811 540 CURVE SMOOTH",
"831 540 LINE",
"831 630 LINE",
"613 630 LINE",
"613 540 LINE",
"647 540 LINE SMOOTH",
"664 540 OFFCURVE",
"671 533 OFFCURVE",
"671 518 CURVE SMOOTH",
"671 509 OFFCURVE",
"670 503 OFFCURVE",
"668 495 CURVE SMOOTH",
"595 126 LINE",
"591 126 LINE",
"517 500 LINE SMOOTH",
"516 506 OFFCURVE",
"515 511 OFFCURVE",
"515 517 CURVE SMOOTH",
"515 531 OFFCURVE",
"523 540 OFFCURVE",
"538 540 CURVE SMOOTH",
"589 540 LINE",
"589 630 LINE",
"309 630 LINE"
);
}
);
width = 841;
},
{
layerId = "B817C739-5D48-43E8-AAEE-CE891513D7BC";
name = "Bold Condensed";
paths = (
{
closed = 1;
nodes = (
"5 522 LINE",
"9 522 LINE SMOOTH",
"24 522 OFFCURVE",
"32 515 OFFCURVE",
"40 482 CURVE SMOOTH",
"153 0 LINE",
"341 0 LINE",
"434 488 LINE",
"316 477 LINE",
"273 195 LINE",
"268 195 LINE",
"225 472 LINE",
"224 478 OFFCURVE",
"223 484 OFFCURVE",
"223 490 CURVE SMOOTH",
"223 511 OFFCURVE",
"234 522 OFFCURVE",
"253 522 CURVE SMOOTH",
"263 522 LINE",
"263 630 LINE",
"5 630 LINE"
);
},
{
closed = 1;
nodes = (
"277 522 LINE",
"281 522 LINE SMOOTH",
"296 522 OFFCURVE",
"302 515 OFFCURVE",
"312 482 CURVE SMOOTH",
"387 246 LINE",
"391 246 LINE",
"435 0 LINE",
"613 0 LINE",
"736 488 LINE SMOOTH",
"743 514 OFFCURVE",
"752 522 OFFCURVE",
"774 522 CURVE SMOOTH",
"778 522 LINE",
"778 630 LINE",
"549 630 LINE",
"549 522 LINE",
"556 522 LINE SMOOTH",
"581 522 OFFCURVE",
"590 513 OFFCURVE",
"590 496 CURVE SMOOTH",
"590 490 OFFCURVE",
"589 484 OFFCURVE",
"588 477 CURVE SMOOTH",
"545 195 LINE",
"540 195 LINE",
"497 472 LINE",
"496 478 OFFCURVE",
"495 484 OFFCURVE",
"495 490 CURVE SMOOTH",
"495 511 OFFCURVE",
"506 522 OFFCURVE",
"525 522 CURVE SMOOTH",
"535 522 LINE",
"535 630 LINE",
"277 630 LINE"
);
}
);
width = 785;
},
{
layerId = UUID0;
name = "Light Extended";
paths = (
{
closed = 1;
nodes = (
"15 594 LINE",
"87 594 LINE SMOOTH",
"106 594 OFFCURVE",
"115 586 OFFCURVE",
"124 562 CURVE SMOOTH",
"332 0 LINE",
"396 0 LINE",
"601 562 LINE",
"557 562 LINE",
"371 47 LINE",
"367 47 LINE",
"176 562 LINE",
"174 566 OFFCURVE",
"174 570 OFFCURVE",
"174 573 CURVE SMOOTH",
"174 586 OFFCURVE",
"186 594 OFFCURVE",
"203 594 CURVE SMOOTH",
"275 594 LINE",
"275 630 LINE",
"15 630 LINE"
);
},
{
closed = 1;
nodes = (
"448 594 LINE",
"520 594 LINE SMOOTH",
"539 594 OFFCURVE",
"550 586 OFFCURVE",
"557 562 CURVE SMOOTH",
"576 495 LINE",
"581 495 LINE",
"765 0 LINE",
"829 0 LINE",
"1034 562 LINE SMOOTH",
"1044 588 OFFCURVE",
"1052 594 OFFCURVE",
"1074 594 CURVE SMOOTH",
"1139 594 LINE",
"1139 630 LINE",
"891 630 LINE",
"891 594 LINE",
"967 594 LINE SMOOTH",
"984 594 OFFCURVE",
"992 585 OFFCURVE",
"992 574 CURVE SMOOTH",
"992 570 OFFCURVE",
"991 566 OFFCURVE",
"990 562 CURVE",
"804 47 LINE",
"800 47 LINE",
"609 562 LINE",
"607 566 OFFCURVE",
"607 570 OFFCURVE",
"607 573 CURVE SMOOTH",
"607 586 OFFCURVE",
"619 594 OFFCURVE",
"636 594 CURVE SMOOTH",
"708 594 LINE",
"708 630 LINE",
"448 630 LINE"
);
}
);
width = 1154;
},
{
layerId = "4355E1B8-19E6-44BD-A1D7-6E3C2DECA4C8";
name = Extended;
paths = (
{
closed = 1;
nodes = (
"10 540 LINE",
"23 540 LINE SMOOTH",
"70 540 OFFCURVE",
"89 526 OFFCURVE",
"104 484 CURVE SMOOTH",
"280 0 LINE",
"440 0 LINE",
"630 484 LINE",
"518 484 LINE",
"384 111 LINE",
"379 111 LINE",
"260 484 LINE",
"256 496 OFFCURVE",
"254 506 OFFCURVE",
"254 514 CURVE SMOOTH",
"254 532 OFFCURVE",
"263 540 OFFCURVE",
"285 540 CURVE SMOOTH",
"366 540 LINE",
"366 630 LINE",
"10 630 LINE"
);
},
{
closed = 1;
nodes = (
"409 540 LINE",
"422 540 LINE SMOOTH",
"469 540 OFFCURVE",
"488 526 OFFCURVE",
"503 484 CURVE SMOOTH",
"563 315 LINE",
"569 315 LINE",
"679 0 LINE",
"839 0 LINE",
"1029 484 LINE SMOOTH",
"1047 530 OFFCURVE",
"1055 540 OFFCURVE",
"1089 540 CURVE SMOOTH",
"1122 540 LINE",
"1122 630 LINE",
"810 630 LINE",
"810 540 LINE",
"886 540 LINE SMOOTH",
"908 540 OFFCURVE",
"922 529 OFFCURVE",
"922 509 CURVE SMOOTH",
"922 502 OFFCURVE",
"920 493 OFFCURVE",
"917 484 CURVE",
"783 111 LINE",
"778 111 LINE",
"659 484 LINE",
"655 496 OFFCURVE",
"653 506 OFFCURVE",
"653 514 CURVE SMOOTH",
"653 532 OFFCURVE",
"662 540 OFFCURVE",
"684 540 CURVE SMOOTH",
"765 540 LINE",
"765 630 LINE",
"409 630 LINE"
);
}
);
width = 1132;
},
{
layerId = "14C77FDB-037D-4842-9381-6D9ED15DD48C";
name = "Bold Extended";
paths = (
{
closed = 1;
nodes = (
"10 478 LINE",
"18 478 LINE SMOOTH",
"52 477 OFFCURVE",
"66 467 OFFCURVE",
"79 438 CURVE SMOOTH",
"275 0 LINE",
"521 0 LINE",
"701 443 LINE",
"535 496 LINE",
"431 176 LINE",
"427 176 LINE",
"340 438 LINE",
"338 444 OFFCURVE",
"337 449 OFFCURVE",
"337 454 CURVE SMOOTH",
"337 469 OFFCURVE",
"346 478 OFFCURVE",
"365 478 CURVE SMOOTH",
"416 478 LINE",
"416 630 LINE",
"10 630 LINE"
);
},
{
closed = 1;
nodes = (
"451 478 LINE",
"459 478 LINE SMOOTH",
"493 477 OFFCURVE",
"507 467 OFFCURVE",
"520 438 CURVE SMOOTH",
"606 242 LINE",
"625 242 LINE",
"716 0 LINE",
"962 0 LINE",
"1142 443 LINE SMOOTH",
"1153 471 OFFCURVE",
"1159 478 OFFCURVE",
"1187 478 CURVE SMOOTH",
"1218 478 LINE",
"1218 630 LINE",
"893 630 LINE",
"893 478 LINE",
"927 478 LINE SMOOTH",
"949 478 OFFCURVE",
"959 465 OFFCURVE",
"959 449 CURVE SMOOTH",
"959 443 OFFCURVE",
"958 436 OFFCURVE",
"955 428 CURVE",
"872 176 LINE",
"868 176 LINE",
"781 438 LINE",
"779 444 OFFCURVE",
"778 449 OFFCURVE",
"778 454 CURVE SMOOTH",
"778 469 OFFCURVE",
"787 478 OFFCURVE",
"806 478 CURVE SMOOTH",
"857 478 LINE",
"857 630 LINE",
"451 630 LINE"
);
}
);
width = 1228;
}
);
unicode = 0057;
},
{
glyphname = X;
lastChange = "2015-04-01 21:56:09 +0000";
layers = (
{
layerId = "E9E6D55E-9446-45F2-B66C-3272698B0216";
name = "Light Condensed";
paths = (
{
closed = 1;
nodes = (
"282 0 LINE",
"466 0 LINE",
"466 30 LINE",
"420 30 LINE SMOOTH",
"408 30 OFFCURVE",
"401 34 OFFCURVE",
"395 45 CURVE SMOOTH",
"137 573 LINE SMOOTH",
"134 579 OFFCURVE",
"132 584 OFFCURVE",
"132 589 CURVE SMOOTH",
"132 596 OFFCURVE",
"137 600 OFFCURVE",
"148 600 CURVE SMOOTH",
"205 600 LINE",
"205 630 LINE",
"15 630 LINE",
"15 600 LINE",
"50 600 LINE SMOOTH",
"70 600 OFFCURVE",
"80 595 OFFCURVE",
"87 580 CURVE SMOOTH",
"344 52 LINE SMOOTH",
"346 48 OFFCURVE",
"347 45 OFFCURVE",
"347 42 CURVE SMOOTH",
"347 34 OFFCURVE",
"341 30 OFFCURVE",
"331 30 CURVE SMOOTH",
"282 30 LINE"
);
},
{
closed = 1;
nodes = (
"5 0 LINE",
"183 0 LINE",
"183 30 LINE",
"127 30 LINE SMOOTH",
"116 30 OFFCURVE",
"111 34 OFFCURVE",
"111 41 CURVE SMOOTH",
"111 45 OFFCURVE",
"112 49 OFFCURVE",
"116 57 CURVE SMOOTH",
"231 300 LINE",
"256 325 LINE",
"380 569 LINE SMOOTH",
"391 592 OFFCURVE",
"402 600 OFFCURVE",
"423 600 CURVE SMOOTH",
"458 600 LINE",
"458 630 LINE",
"278 630 LINE",
"278 600 LINE",
"336 600 LINE SMOOTH",
"346 600 OFFCURVE",
"351 596 OFFCURVE",
"351 588 CURVE SMOOTH",
"351 584 OFFCURVE",
"350 579 OFFCURVE",
"347 573 CURVE SMOOTH",
"239 358 LINE",
"215 341 LINE",
"79 52 LINE SMOOTH",
"72 37 OFFCURVE",
"61 30 OFFCURVE",
"41 30 CURVE SMOOTH",
"5 30 LINE"
);
}
);
width = 471;
},
{
layerId = "B25F85BC-C782-4067-8484-07202F80B8CD";
name = Condensed;
paths = (
{
closed = 1;
nodes = (
"269 0 LINE",
"533 0 LINE",
"533 90 LINE",
"512 90 LINE SMOOTH",
"492 90 OFFCURVE",
"479 94 OFFCURVE",
"473 105 CURVE SMOOTH",
"227 513 LINE",
"224 517 OFFCURVE",
"223 522 OFFCURVE",
"223 526 CURVE SMOOTH",
"223 534 OFFCURVE",
"228 540 OFFCURVE",
"238 540 CURVE SMOOTH",
"267 540 LINE",
"267 630 LINE",
"10 630 LINE",
"10 540 LINE",
"30 540 LINE SMOOTH",
"49 540 OFFCURVE",
"59 535 OFFCURVE",
"69 518 CURVE SMOOTH",
"318 112 LINE SMOOTH",
"321 107 OFFCURVE",
"322 104 OFFCURVE",
"322 101 CURVE SMOOTH",
"322 94 OFFCURVE",
"316 90 OFFCURVE",
"309 90 CURVE SMOOTH",
"269 90 LINE"
);
},
{
closed = 1;
nodes = (
"5 0 LINE",
"232 0 LINE",
"232 90 LINE",
"192 90 LINE SMOOTH",
"186 90 OFFCURVE",
"181 95 OFFCURVE",
"181 102 CURVE SMOOTH",
"181 105 OFFCURVE",
"182 108 OFFCURVE",
"184 112 CURVE SMOOTH",
"267 260 LINE",
"337 302 LINE",
"465 518 LINE SMOOTH",
"475 534 OFFCURVE",
"484 540 OFFCURVE",
"507 540 CURVE SMOOTH",
"524 540 LINE",
"524 630 LINE",
"302 630 LINE",
"302 540 LINE",
"328 540 LINE SMOOTH",
"339 540 OFFCURVE",
"343 534 OFFCURVE",
"343 527 CURVE SMOOTH",
"343 523 OFFCURVE",
"342 518 OFFCURVE",
"339 513 CURVE SMOOTH",
"256 364 LINE",
"212 358 LINE",
"58 105 LINE SMOOTH",
"51 94 OFFCURVE",
"42 90 OFFCURVE",
"27 90 CURVE SMOOTH",
"5 90 LINE"
);
}
);
width = 538;
},
{
layerId = "B817C739-5D48-43E8-AAEE-CE891513D7BC";
name = "Bold Condensed";
paths = (
{
closed = 1;
nodes = (
"241 0 LINE",
"508 0 LINE",
"508 108 LINE",
"495 108 LINE SMOOTH",
"481 108 OFFCURVE",
"472 113 OFFCURVE",
"466 123 CURVE SMOOTH",
"272 495 LINE SMOOTH",
"266 508 OFFCURVE",
"266 508 OFFCURVE",
"266 511 CURVE SMOOTH",
"266 518 OFFCURVE",
"271 522 OFFCURVE",
"277 522 CURVE SMOOTH",
"291 522 LINE",
"291 630 LINE",
"17 630 LINE",
"17 522 LINE",
"27 522 LINE SMOOTH",
"46 522 OFFCURVE",
"59 514 OFFCURVE",
"68 498 CURVE SMOOTH",
"266 130 LINE SMOOTH",
"268 126 OFFCURVE",
"269 122 OFFCURVE",
"269 119 CURVE SMOOTH",
"269 112 OFFCURVE",
"264 108 OFFCURVE",
"255 108 CURVE SMOOTH",
"241 108 LINE"
);
},
{
closed = 1;
nodes = (
"7 0 LINE",
"221 0 LINE",
"221 108 LINE",
"200 108 LINE SMOOTH",
"194 108 OFFCURVE",
"189 113 OFFCURVE",
"189 119 CURVE SMOOTH",
"189 123 OFFCURVE",
"191 128 OFFCURVE",
"193 132 CURVE SMOOTH",
"257 259 LINE",
"355 313 LINE",
"470 509 LINE SMOOTH",
"475 518 OFFCURVE",
"482 522 OFFCURVE",
"493 522 CURVE SMOOTH",
"499 522 LINE",
"499 630 LINE",
"310 630 LINE",
"310 522 LINE",
"324 522 LINE SMOOTH",
"331 522 OFFCURVE",
"335 518 OFFCURVE",
"335 511 CURVE SMOOTH",
"335 506 OFFCURVE",
"333 502 OFFCURVE",
"329 494 CURVE SMOOTH",
"263 371 LINE",
"180 350 LINE",
"54 123 LINE SMOOTH",
"49 114 OFFCURVE",
"39 108 OFFCURVE",
"27 108 CURVE SMOOTH",
"7 108 LINE"
);
}
);
width = 516;
},
{
layerId = UUID0;
name = "Light Extended";
paths = (
{
closed = 1;
nodes = (
"525 0 LINE",
"773 0 LINE",
"773 36 LINE",
"716 36 LINE SMOOTH",
"701 36 OFFCURVE",
"690 43 OFFCURVE",
"675 59 CURVE SMOOTH",
"216 555 LINE SMOOTH",
"209 563 OFFCURVE",
"205 571 OFFCURVE",
"205 577 CURVE SMOOTH",
"205 587 OFFCURVE",
"213 594 OFFCURVE",
"227 594 CURVE SMOOTH",
"290 594 LINE",
"290 630 LINE",
"36 630 LINE",
"36 594 LINE",
"86 594 LINE SMOOTH",
"107 594 OFFCURVE",
"119 592 OFFCURVE",
"134 575 CURVE SMOOTH",
"597 73 LINE SMOOTH",
"604 65 OFFCURVE",
"608 58 OFFCURVE",
"608 52 CURVE SMOOTH",
"608 42 OFFCURVE",
"599 36 OFFCURVE",
"582 36 CURVE SMOOTH",
"525 36 LINE"
);
},
{
closed = 1;
nodes = (
"31 0 LINE",
"277 0 LINE",
"277 36 LINE",
"206 36 LINE SMOOTH",
"187 36 OFFCURVE",
"179 42 OFFCURVE",
"179 53 CURVE SMOOTH",
"179 57 OFFCURVE",
"181 63 OFFCURVE",
"184 67 CURVE SMOOTH",
"401 300 LINE",
"425 321 LINE",
"673 575 LINE SMOOTH",
"689 591 OFFCURVE",
"697 594 OFFCURVE",
"722 594 CURVE SMOOTH",
"767 594 LINE",
"767 630 LINE",
"514 630 LINE",
"514 594 LINE",
"591 594 LINE SMOOTH",
"606 594 OFFCURVE",
"614 588 OFFCURVE",
"614 577 CURVE SMOOTH",
"614 572 OFFCURVE",
"611 566 OFFCURVE",
"606 561 CURVE SMOOTH",
"402 348 LINE",
"378 331 LINE",
"130 62 LINE SMOOTH",
"113 43 OFFCURVE",
"105 36 OFFCURVE",
"86 36 CURVE SMOOTH",
"31 36 LINE"
);
}
);
width = 802;
},
{
layerId = "4355E1B8-19E6-44BD-A1D7-6E3C2DECA4C8";
name = Extended;
paths = (
{
closed = 1;
nodes = (
"459 0 LINE",
"836 0 LINE",
"836 90 LINE",
"796 90 LINE SMOOTH",
"776 90 OFFCURVE",
"761 95 OFFCURVE",
"750 105 CURVE SMOOTH",
"327 509 LINE SMOOTH",
"321 515 OFFCURVE",
"318 521 OFFCURVE",
"318 526 CURVE SMOOTH",
"318 534 OFFCURVE",
"324 540 OFFCURVE",
"334 540 CURVE SMOOTH",
"410 540 LINE",
"410 630 LINE",
"21 630 LINE",
"21 540 LINE",
"61 540 LINE SMOOTH",
"82 540 OFFCURVE",
"94 536 OFFCURVE",
"110 521 CURVE SMOOTH",
"543 115 LINE SMOOTH",
"547 111 OFFCURVE",
"549 106 OFFCURVE",
"549 102 CURVE SMOOTH",
"549 95 OFFCURVE",
"545 90 OFFCURVE",
"537 90 CURVE SMOOTH",
"459 90 LINE"
);
},
{
closed = 1;
nodes = (
"10 0 LINE",
"350 0 LINE",
"350 90 LINE",
"269 90 LINE SMOOTH",
"259 90 OFFCURVE",
"254 94 OFFCURVE",
"254 102 CURVE SMOOTH",
"254 107 OFFCURVE",
"256 111 OFFCURVE",
"263 117 CURVE SMOOTH",
"444 287 LINE",
"504 297 LINE",
"741 520 LINE SMOOTH",
"756 535 OFFCURVE",
"767 540 OFFCURVE",
"786 540 CURVE SMOOTH",
"827 540 LINE",
"827 630 LINE",
"499 630 LINE",
"499 540 LINE",
"572 540 LINE SMOOTH",
"583 540 OFFCURVE",
"590 534 OFFCURVE",
"590 526 CURVE SMOOTH",
"590 521 OFFCURVE",
"586 515 OFFCURVE",
"578 508 CURVE SMOOTH",
"427 361 LINE",
"359 355 LINE",
"102 113 LINE SMOOTH",
"84 96 OFFCURVE",
"70 90 OFFCURVE",
"46 90 CURVE SMOOTH",
"10 90 LINE"
);
}
);
width = 846;
},
{
layerId = "14C77FDB-037D-4842-9381-6D9ED15DD48C";
name = "Bold Extended";
paths = (
{
closed = 1;
nodes = (
"399 0 LINE",
"858 0 LINE",
"858 152 LINE",
"819 152 LINE SMOOTH",
"810 152 OFFCURVE",
"796 155 OFFCURVE",
"787 162 CURVE SMOOTH",
"432 451 LINE SMOOTH",
"426 456 OFFCURVE",
"423 460 OFFCURVE",
"423 465 CURVE SMOOTH",
"423 472 OFFCURVE",
"429 478 OFFCURVE",
"437 478 CURVE SMOOTH",
"466 478 LINE",
"466 630 LINE",
"17 630 LINE",
"17 478 LINE",
"39 478 LINE SMOOTH",
"62 478 OFFCURVE",
"77 473 OFFCURVE",
"91 462 CURVE SMOOTH",
"441 178 LINE SMOOTH",
"448 173 OFFCURVE",
"450 168 OFFCURVE",
"450 164 CURVE SMOOTH",
"450 157 OFFCURVE",
"444 152 OFFCURVE",
"434 152 CURVE SMOOTH",
"399 152 LINE"
);
},
{
closed = 1;
nodes = (
"7 0 LINE",
"351 0 LINE",
"351 152 LINE",
"307 152 LINE SMOOTH",
"297 152 OFFCURVE",
"291 157 OFFCURVE",
"291 164 CURVE SMOOTH",
"291 168 OFFCURVE",
"293 173 OFFCURVE",
"300 178 CURVE SMOOTH",
"425 272 LINE",
"554 313 LINE",
"748 458 LINE SMOOTH",
"763 470 OFFCURVE",
"775 478 OFFCURVE",
"791 478 CURVE SMOOTH",
"839 478 LINE",
"839 630 LINE",
"502 630 LINE",
"502 478 LINE",
"531 478 LINE SMOOTH",
"542 478 OFFCURVE",
"547 474 OFFCURVE",
"547 467 CURVE SMOOTH",
"547 462 OFFCURVE",
"543 457 OFFCURVE",
"536 451 CURVE SMOOTH",
"446 373 LINE",
"293 330 LINE",
"75 167 LINE SMOOTH",
"63 158 OFFCURVE",
"52 152 OFFCURVE",
"34 152 CURVE SMOOTH",
"7 152 LINE"
);
}
);
width = 865;
}
);
unicode = 0058;
},
{
glyphname = Y;
lastChange = "2015-04-01 21:56:09 +0000";
layers = (
{
background = {
paths = (
{
closed = 1;
nodes = (
"125 0 LINE",
"310 0 LINE",
"310 30 LINE",
"283 30 LINE SMOOTH",
"252 30 OFFCURVE",
"238 45 OFFCURVE",
"238 71 CURVE SMOOTH",
"238 332 LINE",
"197 332 LINE",
"197 71 LINE SMOOTH",
"197 45 OFFCURVE",
"183 30 OFFCURVE",
"152 30 CURVE SMOOTH",
"125 30 LINE"
);
}
);
};
layerId = "E9E6D55E-9446-45F2-B66C-3272698B0216";
name = "Light Condensed";
paths = (
{
closed = 1;
nodes = (
"8 600 LINE",
"31 600 LINE SMOOTH",
"54 600 OFFCURVE",
"68 593 OFFCURVE",
"83 550 CURVE SMOOTH",
"197 245 LINE",
"237 245 LINE",
"349 551 LINE SMOOTH",
"362 588 OFFCURVE",
"375 600 OFFCURVE",
"401 600 CURVE SMOOTH",
"420 600 LINE",
"420 630 LINE",
"243 630 LINE",
"243 600 LINE",
"279 600 LINE SMOOTH",
"307 600 OFFCURVE",
"320 593 OFFCURVE",
"320 575 CURVE SMOOTH",
"320 568 OFFCURVE",
"318 560 OFFCURVE",
"315 551 CURVE SMOOTH",
"226 296 LINE",
"221 296 LINE",
"130 551 LINE SMOOTH",
"127 560 OFFCURVE",
"125 568 OFFCURVE",
"125 575 CURVE SMOOTH",
"125 592 OFFCURVE",
"138 600 OFFCURVE",
"164 600 CURVE SMOOTH",
"200 600 LINE",
"200 630 LINE",
"8 630 LINE"
);
},
{
closed = 1;
nodes = (
"125 0 LINE",
"310 0 LINE",
"310 30 LINE",
"283 30 LINE SMOOTH",
"252 30 OFFCURVE",
"238 45 OFFCURVE",
"238 71 CURVE SMOOTH",
"238 287 LINE",
"197 287 LINE",
"197 71 LINE SMOOTH",
"197 45 OFFCURVE",
"183 30 OFFCURVE",
"152 30 CURVE SMOOTH",
"125 30 LINE"
);
}
);
width = 426;
},
{
layerId = "B25F85BC-C782-4067-8484-07202F80B8CD";
name = Condensed;
paths = (
{
closed = 1;
nodes = (
"10 540 LINE",
"19 540 LINE SMOOTH",
"52 539 OFFCURVE",
"58 527 OFFCURVE",
"73 500 CURVE SMOOTH",
"241 205 LINE",
"351 225 LINE",
"486 511 LINE SMOOTH",
"496 533 OFFCURVE",
"503 540 OFFCURVE",
"522 540 CURVE SMOOTH",
"542 540 LINE",
"542 630 LINE",
"316 630 LINE",
"316 540 LINE",
"343 540 LINE SMOOTH",
"364 540 OFFCURVE",
"371 531 OFFCURVE",
"371 519 CURVE SMOOTH",
"371 512 OFFCURVE",
"368 503 OFFCURVE",
"364 495 CURVE SMOOTH",
"301 351 LINE",
"297 351 LINE",
"223 500 LINE SMOOTH",
"220 506 OFFCURVE",
"218 512 OFFCURVE",
"218 518 CURVE SMOOTH",
"218 531 OFFCURVE",
"228 540 OFFCURVE",
"244 540 CURVE SMOOTH",
"282 540 LINE",
"282 630 LINE",
"10 630 LINE"
);
},
{
closed = 1;
nodes = (
"158 0 LINE",
"426 0 LINE",
"426 90 LINE",
"383 90 LINE SMOOTH",
"366 90 OFFCURVE",
"360 103 OFFCURVE",
"360 122 CURVE SMOOTH",
"360 308 LINE",
"222 308 LINE",
"222 122 LINE SMOOTH",
"222 103 OFFCURVE",
"216 90 OFFCURVE",
"195 90 CURVE SMOOTH",
"158 90 LINE"
);
}
);
width = 552;
},
{
layerId = "B817C739-5D48-43E8-AAEE-CE891513D7BC";
name = "Bold Condensed";
paths = (
{
closed = 1;
nodes = (
"5 522 LINE",
"9 522 LINE SMOOTH",
"24 522 OFFCURVE",
"26 515 OFFCURVE",
"40 482 CURVE SMOOTH",
"164 195 LINE",
"341 205 LINE",
"464 488 LINE SMOOTH",
"475 514 OFFCURVE",
"480 522 OFFCURVE",
"502 522 CURVE SMOOTH",
"506 522 LINE",
"506 630 LINE",
"277 630 LINE",
"277 522 LINE",
"289 522 LINE SMOOTH",
"307 522 OFFCURVE",
"320 510 OFFCURVE",
"320 493 CURVE SMOOTH",
"320 487 OFFCURVE",
"318 483 OFFCURVE",
"316 477 CURVE SMOOTH",
"273 365 LINE",
"269 365 LINE",
"225 472 LINE SMOOTH",
"223 478 OFFCURVE",
"221 484 OFFCURVE",
"221 491 CURVE SMOOTH",
"221 507 OFFCURVE",
"231 522 OFFCURVE",
"253 522 CURVE SMOOTH",
"263 522 LINE",
"263 630 LINE",
"5 630 LINE"
);
},
{
closed = 1;
nodes = (
"119 0 LINE",
"388 0 LINE",
"388 108 LINE",
"369 108 LINE SMOOTH",
"352 108 OFFCURVE",
"344 119 OFFCURVE",
"344 139 CURVE SMOOTH",
"344 360 LINE",
"163 360 LINE",
"163 139 LINE SMOOTH",
"163 119 OFFCURVE",
"155 108 OFFCURVE",
"138 108 CURVE SMOOTH",
"119 108 LINE"
);
}
);
width = 511;
},
{
layerId = UUID0;
name = "Light Extended";
paths = (
{
closed = 1;
nodes = (
"5 594 LINE",
"47 594 LINE SMOOTH",
"76 594 OFFCURVE",
"96 587 OFFCURVE",
"114 562 CURVE SMOOTH",
"342 251 LINE",
"377 264 LINE",
"591 562 LINE SMOOTH",
"610 589 OFFCURVE",
"619 594 OFFCURVE",
"651 594 CURVE SMOOTH",
"696 594 LINE",
"696 630 LINE",
"451 630 LINE",
"451 594 LINE",
"535 594 LINE SMOOTH",
"547 594 OFFCURVE",
"557 590 OFFCURVE",
"557 580 CURVE SMOOTH",
"557 575 OFFCURVE",
"555 569 OFFCURVE",
"550 562 CURVE SMOOTH",
"364 302 LINE",
"360 302 LINE",
"175 562 LINE SMOOTH",
"172 567 OFFCURVE",
"170 572 OFFCURVE",
"170 576 CURVE SMOOTH",
"170 586 OFFCURVE",
"177 594 OFFCURVE",
"192 594 CURVE SMOOTH",
"278 594 LINE",
"278 630 LINE",
"5 630 LINE"
);
},
{
closed = 1;
nodes = (
"238 0 LINE",
"484 0 LINE",
"484 36 LINE",
"408 36 LINE SMOOTH",
"391 36 OFFCURVE",
"385 49 OFFCURVE",
"385 68 CURVE SMOOTH",
"385 301 LINE",
"337 301 LINE",
"337 68 LINE SMOOTH",
"337 49 OFFCURVE",
"331 36 OFFCURVE",
"310 36 CURVE SMOOTH",
"238 36 LINE"
);
}
);
width = 701;
},
{
layerId = "4355E1B8-19E6-44BD-A1D7-6E3C2DECA4C8";
name = Extended;
paths = (
{
closed = 1;
nodes = (
"10 540 LINE",
"33 540 LINE SMOOTH",
"69 540 OFFCURVE",
"80 534 OFFCURVE",
"105 498 CURVE SMOOTH",
"320 185 LINE",
"429 195 LINE",
"645 504 LINE SMOOTH",
"666 533 OFFCURVE",
"676 540 OFFCURVE",
"700 540 CURVE SMOOTH",
"723 540 LINE",
"723 630 LINE",
"411 630 LINE",
"411 540 LINE",
"493 540 LINE SMOOTH",
"512 540 OFFCURVE",
"527 528 OFFCURVE",
"527 513 CURVE SMOOTH",
"527 505 OFFCURVE",
"523 492 OFFCURVE",
"518 484 CURVE SMOOTH",
"394 306 LINE",
"389 306 LINE",
"270 484 LINE SMOOTH",
"260 497 OFFCURVE",
"256 508 OFFCURVE",
"256 516 CURVE SMOOTH",
"256 531 OFFCURVE",
"267 540 OFFCURVE",
"285 540 CURVE SMOOTH",
"366 540 LINE",
"366 630 LINE",
"10 630 LINE"
);
},
{
closed = 1;
nodes = (
"206 0 LINE",
"564 0 LINE",
"564 90 LINE",
"479 90 LINE SMOOTH",
"464 90 OFFCURVE",
"456 101 OFFCURVE",
"456 122 CURVE SMOOTH",
"456 308 LINE",
"318 308 LINE",
"318 122 LINE SMOOTH",
"318 100 OFFCURVE",
"310 90 OFFCURVE",
"291 90 CURVE SMOOTH",
"206 90 LINE"
);
}
);
width = 733;
},
{
layerId = "14C77FDB-037D-4842-9381-6D9ED15DD48C";
name = "Bold Extended";
paths = (
{
closed = 1;
nodes = (
"9 478 LINE",
"27 478 LINE SMOOTH",
"48 478 OFFCURVE",
"59 472 OFFCURVE",
"78 450 CURVE SMOOTH",
"284 205 LINE",
"530 220 LINE",
"720 450 LINE SMOOTH",
"737 470 OFFCURVE",
"756 478 OFFCURVE",
"785 478 CURVE SMOOTH",
"796 478 LINE",
"796 630 LINE",
"457 630 LINE",
"457 478 LINE",
"503 478 LINE SMOOTH",
"518 478 OFFCURVE",
"528 469 OFFCURVE",
"528 456 CURVE SMOOTH",
"528 449 OFFCURVE",
"525 441 OFFCURVE",
"519 434 CURVE SMOOTH",
"440 341 LINE",
"436 341 LINE",
"359 438 LINE SMOOTH",
"353 444 OFFCURVE",
"350 452 OFFCURVE",
"350 459 CURVE SMOOTH",
"350 470 OFFCURVE",
"360 478 OFFCURVE",
"374 478 CURVE SMOOTH",
"421 478 LINE",
"421 630 LINE",
"9 630 LINE"
);
},
{
closed = 1;
nodes = (
"194 0 LINE",
"623 0 LINE",
"623 152 LINE",
"556 152 LINE SMOOTH",
"541 152 OFFCURVE",
"533 163 OFFCURVE",
"533 184 CURVE SMOOTH",
"533 306 LINE",
"283 306 LINE",
"283 184 LINE SMOOTH",
"283 162 OFFCURVE",
"275 152 OFFCURVE",
"256 152 CURVE SMOOTH",
"194 152 LINE"
);
}
);
width = 805;
}
);
unicode = 0059;
},
{
glyphname = Z;
lastChange = "2015-04-01 21:56:09 +0000";
layers = (
{
layerId = "E9E6D55E-9446-45F2-B66C-3272698B0216";
name = "Light Condensed";
paths = (
{
closed = 1;
nodes = (
"339 209 LINE",
"307 209 LINE",
"307 52 OFFCURVE",
"283 30 OFFCURVE",
"214 30 CURVE SMOOTH",
"66 30 LINE",
"322 593 LINE",
"322 630 LINE",
"29 630 LINE",
"29 423 LINE",
"64 423 LINE",
"64 576 OFFCURVE",
"81 600 OFFCURVE",
"156 600 CURVE SMOOTH",
"277 600 LINE",
"20 35 LINE",
"20 0 LINE",
"339 0 LINE"
);
}
);
width = 359;
},
{
layerId = "B25F85BC-C782-4067-8484-07202F80B8CD";
name = Condensed;
paths = (
{
closed = 1;
nodes = (
"421 269 LINE",
"321 269 LINE",
"321 112 OFFCURVE",
"291 90 OFFCURVE",
"232 90 CURVE SMOOTH",
"179 90 LINE",
"415 543 LINE",
"415 630 LINE",
"34 630 LINE",
"34 353 LINE",
"129 353 LINE",
"129 516 OFFCURVE",
"146 540 OFFCURVE",
"201 540 CURVE SMOOTH",
"262 540 LINE",
"20 85 LINE",
"20 0 LINE",
"421 0 LINE"
);
}
);
width = 441;
},
{
layerId = "B817C739-5D48-43E8-AAEE-CE891513D7BC";
name = "Bold Condensed";
paths = (
{
closed = 1;
nodes = (
"423 269 LINE",
"303 269 LINE",
"303 132 OFFCURVE",
"277 110 OFFCURVE",
"234 110 CURVE SMOOTH",
"206 110 LINE",
"421 525 LINE",
"421 630 LINE",
"19 630 LINE",
"19 355 LINE",
"133 355 LINE",
"133 498 OFFCURVE",
"150 522 OFFCURVE",
"195 522 CURVE SMOOTH",
"236 522 LINE",
"10 105 LINE",
"10 0 LINE",
"423 0 LINE"
);
}
);
width = 433;
},
{
layerId = UUID0;
name = "Light Extended";
paths = (
{
closed = 1;
nodes = (
"593 269 LINE",
"556 269 LINE",
"556 58 OFFCURVE",
"532 36 OFFCURVE",
"468 36 CURVE SMOOTH",
"107 36 LINE",
"576 587 LINE",
"576 630 LINE",
"69 630 LINE",
"69 361 LINE",
"107 361 LINE",
"107 570 OFFCURVE",
"124 594 OFFCURVE",
"183 594 CURVE SMOOTH",
"520 594 LINE",
"50 41 LINE",
"50 0 LINE",
"593 0 LINE"
);
}
);
width = 643;
},
{
layerId = "4355E1B8-19E6-44BD-A1D7-6E3C2DECA4C8";
name = Extended;
paths = (
{
closed = 1;
nodes = (
"668 296 LINE",
"570 296 LINE",
"570 112 OFFCURVE",
"538 90 OFFCURVE",
"472 90 CURVE SMOOTH",
"225 90 LINE",
"652 543 LINE",
"652 630 LINE",
"54 630 LINE",
"54 333 LINE",
"152 333 LINE",
"152 512 OFFCURVE",
"178 540 OFFCURVE",
"254 540 CURVE SMOOTH",
"471 540 LINE",
"40 85 LINE",
"40 0 LINE",
"668 0 LINE"
);
}
);
width = 698;
},
{
layerId = "14C77FDB-037D-4842-9381-6D9ED15DD48C";
name = "Bold Extended";
paths = (
{
closed = 1;
nodes = (
"699 299 LINE",
"539 299 LINE",
"539 174 OFFCURVE",
"513 152 OFFCURVE",
"470 152 CURVE SMOOTH",
"351 152 LINE",
"687 471 LINE",
"687 630 LINE",
"44 630 LINE",
"44 325 LINE",
"198 325 LINE",
"198 456 OFFCURVE",
"215 478 OFFCURVE",
"280 478 CURVE SMOOTH",
"392 478 LINE",
"25 147 LINE",
"25 0 LINE",
"699 0 LINE"
);
}
);
width = 724;
}
);
unicode = 005A;
},
{
glyphname = a;
lastChange = "2015-03-30 02:20:47 +0000";
layers = (
{
background = {
paths = (
{
closed = 1;
nodes = (
"294 -10 OFFCURVE",
"348 18 OFFCURVE",
"386 78 CURVE",
"390 78 LINE",
"391 24 OFFCURVE",
"425 -10 OFFCURVE",
"480 -10 CURVE SMOOTH",
"543 -10 OFFCURVE",
"572 31 OFFCURVE",
"572 121 CURVE SMOOTH",
"572 138 OFFCURVE",
"571 139 OFFCURVE",
"571 148 CURVE",
"538 148 LINE",
"538 140 OFFCURVE",
"539 137 OFFCURVE",
"539 123 CURVE SMOOTH",
"539 58 OFFCURVE",
"527 24 OFFCURVE",
"480 24 CURVE SMOOTH",
"448 24 OFFCURVE",
"431 45 OFFCURVE",
"431 85 CURVE SMOOTH",
"431 343 LINE SMOOTH",
"431 416 OFFCURVE",
"367 460 OFFCURVE",
"260 460 CURVE SMOOTH",
"149 460 OFFCURVE",
"73 408 OFFCURVE",
"73 332 CURVE SMOOTH",
"73 297 OFFCURVE",
"89 276 OFFCURVE",
"116 276 CURVE SMOOTH",
"137 276 OFFCURVE",
"152 289 OFFCURVE",
"152 307 CURVE SMOOTH",
"152 337 OFFCURVE",
"123 337 OFFCURVE",
"123 362 CURVE SMOOTH",
"123 395 OFFCURVE",
"188 425 OFFCURVE",
"261 425 CURVE SMOOTH",
"343 425 OFFCURVE",
"387 394 OFFCURVE",
"387 337 CURVE SMOOTH",
"387 305 LINE SMOOTH",
"387 280 OFFCURVE",
"381 270 OFFCURVE",
"364 269 CURVE",
"229 250 LINE SMOOTH",
"104 232 OFFCURVE",
"53 192 OFFCURVE",
"53 113 CURVE SMOOTH",
"53 32 OFFCURVE",
"109 -10 OFFCURVE",
"215 -10 CURVE SMOOTH"
);
},
{
closed = 1;
nodes = (
"140 25 OFFCURVE",
"98 53 OFFCURVE",
"98 111 CURVE SMOOTH",
"98 174 OFFCURVE",
"144 205 OFFCURVE",
"250 219 CURVE SMOOTH",
"387 237 LINE",
"387 199 LINE SMOOTH",
"387 93 OFFCURVE",
"312 25 OFFCURVE",
"218 25 CURVE SMOOTH"
);
}
);
};
layerId = UUID0;
name = "Light Extended";
paths = (
{
closed = 1;
nodes = (
"288 -10 OFFCURVE",
"341 18 OFFCURVE",
"379 78 CURVE",
"382 78 LINE",
"384 24 OFFCURVE",
"417 -10 OFFCURVE",
"471 -10 CURVE SMOOTH",
"533 -10 OFFCURVE",
"562 31 OFFCURVE",
"562 121 CURVE SMOOTH",
"562 138 OFFCURVE",
"561 139 OFFCURVE",
"561 148 CURVE",
"528 148 LINE",
"528 140 OFFCURVE",
"529 137 OFFCURVE",
"529 123 CURVE SMOOTH",
"529 58 OFFCURVE",
"518 24 OFFCURVE",
"471 24 CURVE SMOOTH",
"440 24 OFFCURVE",
"423 45 OFFCURVE",
"423 85 CURVE SMOOTH",
"423 343 LINE SMOOTH",
"423 416 OFFCURVE",
"360 460 OFFCURVE",
"255 460 CURVE SMOOTH",
"146 460 OFFCURVE",
"71 408 OFFCURVE",
"71 332 CURVE SMOOTH",
"71 297 OFFCURVE",
"86 276 OFFCURVE",
"113 276 CURVE SMOOTH",
"134 276 OFFCURVE",
"149 289 OFFCURVE",
"149 307 CURVE SMOOTH",
"149 337 OFFCURVE",
"120 337 OFFCURVE",
"120 362 CURVE SMOOTH",
"120 395 OFFCURVE",
"184 425 OFFCURVE",
"256 425 CURVE SMOOTH",
"336 425 OFFCURVE",
"379 394 OFFCURVE",
"379 337 CURVE SMOOTH",
"379 305 LINE SMOOTH",
"379 280 OFFCURVE",
"373 270 OFFCURVE",
"356 269 CURVE",
"224 250 LINE SMOOTH",
"101 232 OFFCURVE",
"51 192 OFFCURVE",
"51 113 CURVE SMOOTH",
"51 32 OFFCURVE",
"106 -10 OFFCURVE",
"210 -10 CURVE SMOOTH"
);
},
{
closed = 1;
nodes = (
"137 25 OFFCURVE",
"96 53 OFFCURVE",
"96 111 CURVE SMOOTH",
"96 174 OFFCURVE",
"141 205 OFFCURVE",
"245 219 CURVE SMOOTH",
"379 237 LINE",
"379 199 LINE SMOOTH",
"379 93 OFFCURVE",
"306 25 OFFCURVE",
"214 25 CURVE SMOOTH"
);
}
);
width = 564;
},
{
background = {
paths = (
{
closed = 1;
nodes = (
"262 -10 OFFCURVE",
"324 19 OFFCURVE",
"362 75 CURVE",
"366 75 LINE",
"373 22 OFFCURVE",
"417 -10 OFFCURVE",
"483 -10 CURVE SMOOTH",
"566 -10 OFFCURVE",
"609 40 OFFCURVE",
"609 137 CURVE SMOOTH",
"609 167 OFFCURVE",
"609 168 OFFCURVE",
"608 175 CURVE",
"539 175 LINE",
"540 171 OFFCURVE",
"540 170 OFFCURVE",
"540 142 CURVE SMOOTH",
"540 111 OFFCURVE",
"526 93 OFFCURVE",
"502 93 CURVE SMOOTH",
"483 93 OFFCURVE",
"473 105 OFFCURVE",
"473 128 CURVE SMOOTH",
"473 300 LINE SMOOTH",
"473 404 OFFCURVE",
"402 460 OFFCURVE",
"269 460 CURVE SMOOTH",
"138 460 OFFCURVE",
"50 406 OFFCURVE",
"50 325 CURVE SMOOTH",
"50 278 OFFCURVE",
"80 248 OFFCURVE",
"125 248 CURVE SMOOTH",
"162 248 OFFCURVE",
"185 267 OFFCURVE",
"185 298 CURVE SMOOTH",
"185 326 OFFCURVE",
"165 327 OFFCURVE",
"165 343 CURVE SMOOTH",
"165 365 OFFCURVE",
"205 383 OFFCURVE",
"258 383 CURVE SMOOTH",
"316 383 OFFCURVE",
"343 362 OFFCURVE",
"343 316 CURVE SMOOTH",
"343 296 LINE SMOOTH",
"343 275 OFFCURVE",
"337 266 OFFCURVE",
"319 263 CURVE SMOOTH",
"217 248 LINE SMOOTH",
"77 227 OFFCURVE",
"35 176 OFFCURVE",
"35 107 CURVE SMOOTH",
"35 30 OFFCURVE",
"87 -10 OFFCURVE",
"181 -10 CURVE SMOOTH"
);
},
{
closed = 1;
nodes = (
"192 75 OFFCURVE",
"171 92 OFFCURVE",
"171 122 CURVE SMOOTH",
"171 156 OFFCURVE",
"197 184 OFFCURVE",
"247 191 CURVE SMOOTH",
"343 205 LINE",
"343 186 LINE SMOOTH",
"343 134 OFFCURVE",
"280 75 OFFCURVE",
"223 75 CURVE SMOOTH"
);
}
);
};
layerId = "4355E1B8-19E6-44BD-A1D7-6E3C2DECA4C8";
name = Extended;
paths = (
{
closed = 1;
nodes = (
"262 -10 OFFCURVE",
"325 19 OFFCURVE",
"362 73 CURVE",
"366 73 LINE",
"372 21 OFFCURVE",
"415 -10 OFFCURVE",
"482 -10 CURVE SMOOTH",
"566 -10 OFFCURVE",
"606 40 OFFCURVE",
"606 137 CURVE SMOOTH",
"606 167 OFFCURVE",
"606 168 OFFCURVE",
"605 175 CURVE",
"539 175 LINE",
"540 171 OFFCURVE",
"540 170 OFFCURVE",
"540 142 CURVE SMOOTH",
"540 111 OFFCURVE",
"526 93 OFFCURVE",
"502 93 CURVE SMOOTH",
"483 93 OFFCURVE",
"473 105 OFFCURVE",
"473 128 CURVE SMOOTH",
"473 315 LINE SMOOTH",
"473 405 OFFCURVE",
"394 460 OFFCURVE",
"266 460 CURVE SMOOTH",
"142 460 OFFCURVE",
"64 403 OFFCURVE",
"64 327 CURVE SMOOTH",
"64 283 OFFCURVE",
"79 254 OFFCURVE",
"129 254 CURVE SMOOTH",
"160 254 OFFCURVE",
"187 272 OFFCURVE",
"187 297 CURVE SMOOTH",
"187 322 OFFCURVE",
"170 329 OFFCURVE",
"170 345 CURVE SMOOTH",
"170 367 OFFCURVE",
"210 383 OFFCURVE",
"257 383 CURVE SMOOTH",
"311 383 OFFCURVE",
"343 362 OFFCURVE",
"343 327 CURVE SMOOTH",
"343 298 LINE SMOOTH",
"343 275 OFFCURVE",
"337 266 OFFCURVE",
"319 263 CURVE SMOOTH",
"217 248 LINE SMOOTH",
"89 228 OFFCURVE",
"35 187 OFFCURVE",
"35 108 CURVE SMOOTH",
"35 31 OFFCURVE",
"86 -10 OFFCURVE",
"182 -10 CURVE SMOOTH"
);
},
{
closed = 1;
nodes = (
"186 75 OFFCURVE",
"166 92 OFFCURVE",
"166 123 CURVE SMOOTH",
"166 161 OFFCURVE",
"195 184 OFFCURVE",
"258 193 CURVE SMOOTH",
"343 205 LINE",
"343 186 LINE SMOOTH",
"343 125 OFFCURVE",
"290 75 OFFCURVE",
"224 75 CURVE SMOOTH"
);
}
);
width = 622;
},
{
background = {
paths = (
{
closed = 1;
nodes = (
"245 -10 OFFCURVE",
"321 20 OFFCURVE",
"360 71 CURVE",
"364 71 LINE",
"377 17 OFFCURVE",
"422 -10 OFFCURVE",
"500 -10 CURVE SMOOTH",
"610 -10 OFFCURVE",
"665 43 OFFCURVE",
"665 150 CURVE SMOOTH",
"665 155 OFFCURVE",
"664 171 OFFCURVE",
"662 221 CURVE",
"588 221 LINE",
"589 211 OFFCURVE",
"589 209 OFFCURVE",
"589 178 CURVE SMOOTH",
"589 154 OFFCURVE",
"585 146 OFFCURVE",
"573 146 CURVE SMOOTH",
"564 146 OFFCURVE",
"560 152 OFFCURVE",
"560 164 CURVE SMOOTH",
"560 304 LINE SMOOTH",
"560 429 OFFCURVE",
"474 490 OFFCURVE",
"298 490 CURVE SMOOTH",
"133 490 OFFCURVE",
"33 436 OFFCURVE",
"33 347 CURVE SMOOTH",
"33 289 OFFCURVE",
"75 254 OFFCURVE",
"144 254 CURVE SMOOTH",
"199 254 OFFCURVE",
"238 276 OFFCURVE",
"238 308 CURVE SMOOTH",
"238 322 OFFCURVE",
"230 332 OFFCURVE",
"230 346 CURVE SMOOTH",
"230 366 OFFCURVE",
"248 379 OFFCURVE",
"275 379 CURVE SMOOTH",
"310 379 OFFCURVE",
"330 359 OFFCURVE",
"330 322 CURVE SMOOTH",
"330 291 LINE SMOOTH",
"330 272 OFFCURVE",
"319 261 OFFCURVE",
"298 258 CURVE SMOOTH",
"155 237 LINE SMOOTH",
"56 223 OFFCURVE",
"3 175 OFFCURVE",
"3 101 CURVE SMOOTH",
"3 28 OFFCURVE",
"55 -10 OFFCURVE",
"156 -10 CURVE SMOOTH"
);
},
{
closed = 1;
nodes = (
"239 112 OFFCURVE",
"226 122 OFFCURVE",
"226 139 CURVE SMOOTH",
"226 159 OFFCURVE",
"242 172 OFFCURVE",
"273 177 CURVE SMOOTH",
"335 187 LINE",
"335 178 LINE SMOOTH",
"335 142 OFFCURVE",
"301 112 OFFCURVE",
"261 112 CURVE SMOOTH"
);
}
);
};
layerId = "14C77FDB-037D-4842-9381-6D9ED15DD48C";
name = "Bold Extended";
paths = (
{
closed = 1;
nodes = (
"241 -10 OFFCURVE",
"315 15 OFFCURVE",
"353 64 CURVE",
"357 64 LINE",
"370 15 OFFCURVE",
"418 -10 OFFCURVE",
"500 -10 CURVE SMOOTH",
"610 -10 OFFCURVE",
"665 43 OFFCURVE",
"665 150 CURVE SMOOTH",
"665 155 OFFCURVE",
"664 171 OFFCURVE",
"662 221 CURVE",
"588 221 LINE",
"589 211 OFFCURVE",
"589 209 OFFCURVE",
"589 178 CURVE SMOOTH",
"589 154 OFFCURVE",
"585 146 OFFCURVE",
"573 146 CURVE SMOOTH",
"564 146 OFFCURVE",
"560 152 OFFCURVE",
"560 164 CURVE SMOOTH",
"560 317 LINE SMOOTH",
"560 431 OFFCURVE",
"490 490 OFFCURVE",
"311 490 CURVE SMOOTH",
"149 490 OFFCURVE",
"33 443 OFFCURVE",
"33 347 CURVE SMOOTH",
"33 293 OFFCURVE",
"69 261 OFFCURVE",
"138 261 CURVE SMOOTH",
"193 261 OFFCURVE",
"232 275 OFFCURVE",
"232 310 CURVE SMOOTH",
"232 326 OFFCURVE",
"224 337 OFFCURVE",
"224 353 CURVE SMOOTH",
"224 369 OFFCURVE",
"250 379 OFFCURVE",
"275 379 CURVE SMOOTH",
"305 379 OFFCURVE",
"330 364 OFFCURVE",
"330 327 CURVE SMOOTH",
"330 298 LINE SMOOTH",
"330 279 OFFCURVE",
"319 268 OFFCURVE",
"298 265 CURVE SMOOTH",
"155 244 LINE SMOOTH",
"61 229 OFFCURVE",
"10 179 OFFCURVE",
"10 101 CURVE SMOOTH",
"10 28 OFFCURVE",
"59 -10 OFFCURVE",
"156 -10 CURVE SMOOTH"
);
},
{
closed = 1;
nodes = (
"248 112 OFFCURVE",
"234 123 OFFCURVE",
"234 142 CURVE SMOOTH",
"234 162 OFFCURVE",
"249 176 OFFCURVE",
"281 180 CURVE SMOOTH",
"333 186 LINE",
"333 169 LINE SMOOTH",
"333 137 OFFCURVE",
"311 112 OFFCURVE",
"273 112 CURVE SMOOTH"
);
}
);
width = 668;
},
{
background = {
paths = (
{
closed = 1;
nodes = (
"168 -10 OFFCURVE",
"203 9 OFFCURVE",
"227 69 CURVE",
"231 69 LINE",
"231 13 OFFCURVE",
"254 -10 OFFCURVE",
"293 -10 CURVE SMOOTH",
"337 -10 OFFCURVE",
"357 25 OFFCURVE",
"357 145 CURVE SMOOTH",
"357 153 OFFCURVE",
"356 160 OFFCURVE",
"356 166 CURVE",
"328 166 LINE",
"328 160 OFFCURVE",
"329 151 OFFCURVE",
"329 144 CURVE SMOOTH",
"329 43 OFFCURVE",
"315 19 OFFCURVE",
"297 19 CURVE SMOOTH",
"276 19 OFFCURVE",
"269 36 OFFCURVE",
"269 81 CURVE SMOOTH",
"269 367 LINE SMOOTH",
"269 427 OFFCURVE",
"220 460 OFFCURVE",
"162 460 CURVE SMOOTH",
"100 460 OFFCURVE",
"40 421 OFFCURVE",
"40 345 CURVE SMOOTH",
"40 308 OFFCURVE",
"54 283 OFFCURVE",
"78 283 CURVE SMOOTH",
"96 283 OFFCURVE",
"107 299 OFFCURVE",
"107 320 CURVE SMOOTH",
"107 351 OFFCURVE",
"81 352 OFFCURVE",
"81 378 CURVE SMOOTH",
"81 404 OFFCURVE",
"122 431 OFFCURVE",
"160 431 CURVE SMOOTH",
"207 431 OFFCURVE",
"229 401 OFFCURVE",
"229 356 CURVE SMOOTH",
"229 299 LINE SMOOTH",
"229 285 OFFCURVE",
"226 278 OFFCURVE",
"200 268 CURVE",
"147 252 LINE SMOOTH",
"62 226 OFFCURVE",
"29 176 OFFCURVE",
"29 102 CURVE SMOOTH",
"29 30 OFFCURVE",
"63 -10 OFFCURVE",
"125 -10 CURVE SMOOTH"
);
},
{
closed = 1;
nodes = (
"107 25 OFFCURVE",
"78 42 OFFCURVE",
"78 110 CURVE SMOOTH",
"78 169 OFFCURVE",
"94 205 OFFCURVE",
"163 229 CURVE SMOOTH",
"229 251 LINE",
"229 175 LINE SMOOTH",
"229 107 OFFCURVE",
"194 25 OFFCURVE",
"138 25 CURVE SMOOTH"
);
}
);
};
layerId = "E9E6D55E-9446-45F2-B66C-3272698B0216";
name = "Light Condensed";
paths = (
{
closed = 1;
nodes = (
"173 -10 OFFCURVE",
"205 15 OFFCURVE",
"227 69 CURVE",
"231 69 LINE",
"231 13 OFFCURVE",
"254 -10 OFFCURVE",
"293 -10 CURVE SMOOTH",
"337 -10 OFFCURVE",
"357 25 OFFCURVE",
"357 145 CURVE SMOOTH",
"357 153 OFFCURVE",
"356 160 OFFCURVE",
"356 166 CURVE",
"326 166 LINE",
"326 160 OFFCURVE",
"327 151 OFFCURVE",
"327 144 CURVE SMOOTH",
"327 43 OFFCURVE",
"315 22 OFFCURVE",
"297 22 CURVE SMOOTH",
"276 22 OFFCURVE",
"269 36 OFFCURVE",
"269 81 CURVE SMOOTH",
"269 367 LINE SMOOTH",
"269 422 OFFCURVE",
"226 460 OFFCURVE",
"163 460 CURVE SMOOTH",
"91 460 OFFCURVE",
"38 411 OFFCURVE",
"38 345 CURVE SMOOTH",
"38 309 OFFCURVE",
"54 285 OFFCURVE",
"77 285 CURVE SMOOTH",
"95 285 OFFCURVE",
"107 298 OFFCURVE",
"107 320 CURVE SMOOTH",
"107 350 OFFCURVE",
"85 354 OFFCURVE",
"85 377 CURVE SMOOTH",
"85 406 OFFCURVE",
"119 429 OFFCURVE",
"162 429 CURVE SMOOTH",
"206 429 OFFCURVE",
"229 405 OFFCURVE",
"229 359 CURVE SMOOTH",
"229 293 LINE SMOOTH",
"229 278 OFFCURVE",
"220 269 OFFCURVE",
"200 262 CURVE SMOOTH",
"147 244 LINE SMOOTH",
"71 218 OFFCURVE",
"29 173 OFFCURVE",
"29 98 CURVE SMOOTH",
"29 30 OFFCURVE",
"64 -10 OFFCURVE",
"125 -10 CURVE SMOOTH"
);
},
{
closed = 1;
nodes = (
"93 24 OFFCURVE",
"71 53 OFFCURVE",
"71 103 CURVE SMOOTH",
"71 161 OFFCURVE",
"100 197 OFFCURVE",
"163 218 CURVE SMOOTH",
"229 240 LINE",
"229 174 LINE SMOOTH",
"229 93 OFFCURVE",
"182 24 OFFCURVE",
"128 24 CURVE SMOOTH"
);
}
);
width = 364;
},
{
background = {
paths = (
{
closed = 1;
nodes = (
"165 -10 OFFCURVE",
"209 16 OFFCURVE",
"230 60 CURVE",
"234 60 LINE",
"240 18 OFFCURVE",
"277 -10 OFFCURVE",
"326 -10 CURVE SMOOTH",
"392 -10 OFFCURVE",
"425 43 OFFCURVE",
"425 150 CURVE SMOOTH",
"425 169 OFFCURVE",
"424 177 OFFCURVE",
"424 190 CURVE",
"368 190 LINE",
"368 178 OFFCURVE",
"369 175 OFFCURVE",
"369 150 CURVE SMOOTH",
"369 106 OFFCURVE",
"366 93 OFFCURVE",
"354 93 CURVE SMOOTH",
"345 93 OFFCURVE",
"342 101 OFFCURVE",
"342 125 CURVE SMOOTH",
"342 338 LINE SMOOTH",
"342 416 OFFCURVE",
"290 460 OFFCURVE",
"198 460 CURVE SMOOTH",
"98 460 OFFCURVE",
"26 407 OFFCURVE",
"26 332 CURVE SMOOTH",
"26 285 OFFCURVE",
"55 253 OFFCURVE",
"99 253 CURVE SMOOTH",
"135 253 OFFCURVE",
"161 274 OFFCURVE",
"161 305 CURVE SMOOTH",
"161 333 OFFCURVE",
"141 333 OFFCURVE",
"141 351 CURVE SMOOTH",
"141 368 OFFCURVE",
"157 382 OFFCURVE",
"176 382 CURVE SMOOTH",
"197 382 OFFCURVE",
"212 366 OFFCURVE",
"212 344 CURVE SMOOTH",
"212 298 LINE SMOOTH",
"212 275 OFFCURVE",
"208 266 OFFCURVE",
"196 261 CURVE SMOOTH",
"114 230 LINE SMOOTH",
"41 202 OFFCURVE",
"11 165 OFFCURVE",
"11 104 CURVE SMOOTH",
"11 34 OFFCURVE",
"51 -10 OFFCURVE",
"115 -10 CURVE SMOOTH"
);
},
{
closed = 1;
nodes = (
"157 97 OFFCURVE",
"147 110 OFFCURVE",
"147 133 CURVE SMOOTH",
"147 157 OFFCURVE",
"158 171 OFFCURVE",
"190 185 CURVE SMOOTH",
"212 194 LINE",
"212 162 LINE SMOOTH",
"212 120 OFFCURVE",
"199 97 OFFCURVE",
"175 97 CURVE SMOOTH"
);
}
);
};
layerId = "B25F85BC-C782-4067-8484-07202F80B8CD";
name = Condensed;
paths = (
{
closed = 1;
nodes = (
"165 -10 OFFCURVE",
"209 16 OFFCURVE",
"230 60 CURVE",
"234 60 LINE",
"240 18 OFFCURVE",
"277 -10 OFFCURVE",
"326 -10 CURVE SMOOTH",
"392 -10 OFFCURVE",
"425 43 OFFCURVE",
"425 150 CURVE SMOOTH",
"425 169 OFFCURVE",
"424 177 OFFCURVE",
"424 190 CURVE",
"368 190 LINE",
"368 178 OFFCURVE",
"369 175 OFFCURVE",
"369 150 CURVE SMOOTH",
"369 106 OFFCURVE",
"366 93 OFFCURVE",
"354 93 CURVE SMOOTH",
"345 93 OFFCURVE",
"342 101 OFFCURVE",
"342 125 CURVE SMOOTH",
"342 338 LINE SMOOTH",
"342 416 OFFCURVE",
"290 460 OFFCURVE",
"198 460 CURVE SMOOTH",
"98 460 OFFCURVE",
"26 407 OFFCURVE",
"26 332 CURVE SMOOTH",
"26 285 OFFCURVE",
"55 253 OFFCURVE",
"99 253 CURVE SMOOTH",
"135 253 OFFCURVE",
"153 274 OFFCURVE",
"153 305 CURVE SMOOTH",
"153 333 OFFCURVE",
"134 334 OFFCURVE",
"134 352 CURVE SMOOTH",
"134 369 OFFCURVE",
"153 382 OFFCURVE",
"172 382 CURVE SMOOTH",
"193 382 OFFCURVE",
"212 366 OFFCURVE",
"212 344 CURVE SMOOTH",
"212 298 LINE SMOOTH",
"212 275 OFFCURVE",
"208 266 OFFCURVE",
"196 261 CURVE SMOOTH",
"114 230 LINE SMOOTH",
"41 202 OFFCURVE",
"11 165 OFFCURVE",
"11 104 CURVE SMOOTH",
"11 34 OFFCURVE",
"51 -10 OFFCURVE",
"115 -10 CURVE SMOOTH"
);
},
{
closed = 1;
nodes = (
"156 87 OFFCURVE",
"147 100 OFFCURVE",
"147 127 CURVE SMOOTH",
"147 162 OFFCURVE",
"163 185 OFFCURVE",
"194 197 CURVE SMOOTH",
"212 204 LINE",
"212 168 LINE SMOOTH",
"212 115 OFFCURVE",
"198 87 OFFCURVE",
"173 87 CURVE SMOOTH"
);
}
);
width = 426;
},
{
background = {
paths = (
{
closed = 1;
nodes = (
"171 -12 OFFCURVE",
"221 18 OFFCURVE",
"248 70 CURVE",
"252 70 LINE",
"262 21 OFFCURVE",
"306 -12 OFFCURVE",
"364 -12 CURVE SMOOTH",
"441 -12 OFFCURVE",
"484 39 OFFCURVE",
"484 128 CURVE SMOOTH",
"484 154 OFFCURVE",
"484 161 OFFCURVE",
"482 171 CURVE",
"421 171 LINE",
"422 166 OFFCURVE",
"422 160 OFFCURVE",
"422 150 CURVE SMOOTH",
"422 116 OFFCURVE",
"418 101 OFFCURVE",
"408 101 CURVE SMOOTH",
"399 101 OFFCURVE",
"396 107 OFFCURVE",
"396 124 CURVE SMOOTH",
"396 300 LINE SMOOTH",
"396 418 OFFCURVE",
"337 477 OFFCURVE",
"219 477 CURVE SMOOTH",
"101 477 OFFCURVE",
"18 419 OFFCURVE",
"18 336 CURVE SMOOTH",
"18 282 OFFCURVE",
"53 249 OFFCURVE",
"108 249 CURVE SMOOTH",
"154 249 OFFCURVE",
"186 271 OFFCURVE",
"186 304 CURVE SMOOTH",
"186 327 OFFCURVE",
"171 331 OFFCURVE",
"171 345 CURVE SMOOTH",
"171 357 OFFCURVE",
"183 367 OFFCURVE",
"196 367 CURVE SMOOTH",
"211 367 OFFCURVE",
"220 353 OFFCURVE",
"220 327 CURVE SMOOTH",
"220 281 LINE SMOOTH",
"220 266 OFFCURVE",
"214 260 OFFCURVE",
"193 252 CURVE SMOOTH",
"135 231 LINE SMOOTH",
"42 197 OFFCURVE",
"6 157 OFFCURVE",
"6 91 CURVE SMOOTH",
"6 25 OFFCURVE",
"43 -12 OFFCURVE",
"111 -12 CURVE SMOOTH"
);
},
{
closed = 1;
nodes = (
"173 110 OFFCURVE",
"165 119 OFFCURVE",
"165 134 CURVE SMOOTH",
"165 153 OFFCURVE",
"176 166 OFFCURVE",
"201 176 CURVE SMOOTH",
"223 185 LINE",
"223 158 LINE SMOOTH",
"223 128 OFFCURVE",
"210 110 OFFCURVE",
"188 110 CURVE SMOOTH"
);
}
);
};
layerId = "B817C739-5D48-43E8-AAEE-CE891513D7BC";
name = "Bold Condensed";
paths = (
{
closed = 1;
nodes = (
"176 -12 OFFCURVE",
"224 22 OFFCURVE",
"249 70 CURVE",
"253 70 LINE",
"262 25 OFFCURVE",
"302 -12 OFFCURVE",
"366 -12 CURVE SMOOTH",
"441 -12 OFFCURVE",
"485 39 OFFCURVE",
"485 128 CURVE SMOOTH",
"485 154 OFFCURVE",
"485 161 OFFCURVE",
"483 171 CURVE",
"422 171 LINE",
"423 166 OFFCURVE",
"423 160 OFFCURVE",
"423 150 CURVE SMOOTH",
"423 114 OFFCURVE",
"419 101 OFFCURVE",
"408 101 CURVE SMOOTH",
"400 101 OFFCURVE",
"397 108 OFFCURVE",
"397 124 CURVE SMOOTH",
"397 300 LINE SMOOTH",
"397 418 OFFCURVE",
"338 477 OFFCURVE",
"220 477 CURVE SMOOTH",
"102 477 OFFCURVE",
"19 419 OFFCURVE",
"19 336 CURVE SMOOTH",
"19 282 OFFCURVE",
"54 249 OFFCURVE",
"109 249 CURVE SMOOTH",
"155 249 OFFCURVE",
"187 271 OFFCURVE",
"187 304 CURVE SMOOTH",
"187 327 OFFCURVE",
"172 331 OFFCURVE",
"172 345 CURVE SMOOTH",
"172 357 OFFCURVE",
"184 367 OFFCURVE",
"197 367 CURVE SMOOTH",
"212 367 OFFCURVE",
"221 353 OFFCURVE",
"221 327 CURVE SMOOTH",
"221 287 LINE SMOOTH",
"221 272 OFFCURVE",
"215 266 OFFCURVE",
"194 258 CURVE SMOOTH",
"136 236 LINE SMOOTH",
"35 198 OFFCURVE",
"7 157 OFFCURVE",
"7 96 CURVE SMOOTH",
"7 25 OFFCURVE",
"46 -12 OFFCURVE",
"112 -12 CURVE SMOOTH"
);
},
{
closed = 1;
nodes = (
"174 110 OFFCURVE",
"166 119 OFFCURVE",
"166 135 CURVE SMOOTH",
"166 153 OFFCURVE",
"177 171 OFFCURVE",
"202 181 CURVE SMOOTH",
"224 190 LINE",
"224 170 LINE SMOOTH",
"224 130 OFFCURVE",
"211 110 OFFCURVE",
"189 110 CURVE SMOOTH"
);
}
);
width = 470;
}
);
unicode = 0061;
},
{
glyphname = b;
lastChange = "2015-03-30 14:51:28 +0000";
layers = (
{
layerId = "E9E6D55E-9446-45F2-B66C-3272698B0216";
name = "Light Condensed";
paths = (
{
closed = 1;
nodes = (
"132 25 OFFCURVE",
"98 103 OFFCURVE",
"98 225 CURVE SMOOTH",
"98 357 OFFCURVE",
"128 425 OFFCURVE",
"186 425 CURVE SMOOTH",
"242 425 OFFCURVE",
"268 361 OFFCURVE",
"268 224 CURVE SMOOTH",
"268 88 OFFCURVE",
"242 25 OFFCURVE",
"186 25 CURVE SMOOTH"
);
},
{
closed = 1;
nodes = (
"87 0 LINE",
"97 61 LINE",
"101 61 LINE",
"119 14 OFFCURVE",
"151 -10 OFFCURVE",
"195 -10 CURVE SMOOTH",
"271 -10 OFFCURVE",
"312 73 OFFCURVE",
"312 225 CURVE SMOOTH",
"312 385 OFFCURVE",
"273 460 OFFCURVE",
"190 460 CURVE SMOOTH",
"151 460 OFFCURVE",
"124 442 OFFCURVE",
"101 400 CURVE",
"97 400 LINE",
"97 665 LINE",
"-8 665 LINE",
"-8 640 LINE",
"30 640 LINE SMOOTH",
"49 640 OFFCURVE",
"57 631 OFFCURVE",
"57 608 CURVE SMOOTH",
"57 0 LINE"
);
}
);
width = 348;
},
{
layerId = "B25F85BC-C782-4067-8484-07202F80B8CD";
name = Condensed;
paths = (
{
closed = 1;
nodes = (
"190 85 OFFCURVE",
"175 130 OFFCURVE",
"175 225 CURVE SMOOTH",
"175 319 OFFCURVE",
"190 365 OFFCURVE",
"220 365 CURVE SMOOTH",
"250 365 OFFCURVE",
"263 324 OFFCURVE",
"263 225 CURVE SMOOTH",
"263 127 OFFCURVE",
"250 85 OFFCURVE",
"221 85 CURVE SMOOTH"
);
},
{
closed = 1;
nodes = (
"145 0 LINE",
"175 61 LINE",
"179 61 LINE",
"193 15 OFFCURVE",
"228 -10 OFFCURVE",
"278 -10 CURVE SMOOTH",
"367 -10 OFFCURVE",
"410 68 OFFCURVE",
"410 227 CURVE SMOOTH",
"410 385 OFFCURVE",
"368 460 OFFCURVE",
"278 460 CURVE SMOOTH",
"235 460 OFFCURVE",
"205 442 OFFCURVE",
"179 400 CURVE",
"175 400 LINE",
"175 665 LINE",
"-20 665 LINE",
"-20 585 LINE",
"18 585 LINE SMOOTH",
"37 585 OFFCURVE",
"45 576 OFFCURVE",
"45 553 CURVE SMOOTH",
"45 0 LINE"
);
}
);
width = 430;
},
{
layerId = "B817C739-5D48-43E8-AAEE-CE891513D7BC";
name = "Bold Condensed";
paths = (
{
closed = 1;
nodes = (
"197 120 OFFCURVE",
"190 151 OFFCURVE",
"190 233 CURVE SMOOTH",
"190 315 OFFCURVE",
"197 345 OFFCURVE",
"215 345 CURVE SMOOTH",
"233 345 OFFCURVE",
"239 319 OFFCURVE",
"239 235 CURVE SMOOTH",
"239 149 OFFCURVE",
"233 120 OFFCURVE",
"215 120 CURVE SMOOTH"
);
},
{
closed = 1;
nodes = (
"160 0 LINE",
"190 53 LINE",
"194 53 LINE",
"210 12 OFFCURVE",
"250 -12 OFFCURVE",
"302 -12 CURVE SMOOTH",
"394 -12 OFFCURVE",
"437 64 OFFCURVE",
"437 228 CURVE SMOOTH",
"437 398 OFFCURVE",
"391 477 OFFCURVE",
"292 477 CURVE SMOOTH",
"244 477 OFFCURVE",
"211 459 OFFCURVE",
"194 423 CURVE",
"190 423 LINE",
"190 665 LINE",
"-28 665 LINE",
"-28 557 LINE",
"-18 557 LINE SMOOTH",
"4 557 OFFCURVE",
"14 547 OFFCURVE",
"14 525 CURVE SMOOTH",
"14 0 LINE"
);
}
);
width = 441;
},
{
layerId = UUID0;
name = "Light Extended";
paths = (
{
closed = 1;
nodes = (
"179 28 OFFCURVE",
"120 99 OFFCURVE",
"120 227 CURVE SMOOTH",
"120 354 OFFCURVE",
"178 422 OFFCURVE",
"286 422 CURVE SMOOTH",
"390 422 OFFCURVE",
"438 360 OFFCURVE",
"438 227 CURVE SMOOTH",
"438 93 OFFCURVE",
"389 28 OFFCURVE",
"286 28 CURVE SMOOTH"
);
},
{
closed = 1;
nodes = (
"109 0 LINE",
"119 70 LINE",
"123 70 LINE",
"158 18 OFFCURVE",
"216 -10 OFFCURVE",
"289 -10 CURVE SMOOTH",
"417 -10 OFFCURVE",
"487 73 OFFCURVE",
"487 226 CURVE SMOOTH",
"487 378 OFFCURVE",
"418 460 OFFCURVE",
"289 460 CURVE SMOOTH",
"211 460 OFFCURVE",
"156 430 OFFCURVE",
"123 370 CURVE",
"119 370 LINE",
"119 665 LINE",
"-21 665 LINE",
"-21 640 LINE",
"48 640 LINE SMOOTH",
"67 640 OFFCURVE",
"75 631 OFFCURVE",
"75 608 CURVE SMOOTH",
"75 0 LINE"
);
}
);
width = 538;
},
{
layerId = "4355E1B8-19E6-44BD-A1D7-6E3C2DECA4C8";
name = Extended;
paths = (
{
closed = 1;
nodes = (
"237 85 OFFCURVE",
"191 138 OFFCURVE",
"191 226 CURVE SMOOTH",
"191 313 OFFCURVE",
"235 365 OFFCURVE",
"309 365 CURVE SMOOTH",
"380 365 OFFCURVE",
"419 315 OFFCURVE",
"419 223 CURVE SMOOTH",
"419 133 OFFCURVE",
"382 85 OFFCURVE",
"312 85 CURVE SMOOTH"
);
},
{
closed = 1;
nodes = (
"161 0 LINE",
"191 81 LINE",
"195 81 LINE",
"221 24 OFFCURVE",
"284 -10 OFFCURVE",
"361 -10 CURVE SMOOTH",
"487 -10 OFFCURVE",
"562 77 OFFCURVE",
"562 224 CURVE SMOOTH",
"562 374 OFFCURVE",
"486 460 OFFCURVE",
"354 460 CURVE SMOOTH",
"280 460 OFFCURVE",
"227 433 OFFCURVE",
"195 380 CURVE",
"191 380 LINE",
"191 665 LINE",
"-23 665 LINE",
"-23 585 LINE",
"34 585 LINE SMOOTH",
"53 585 OFFCURVE",
"61 576 OFFCURVE",
"61 553 CURVE SMOOTH",
"61 0 LINE"
);
}
);
width = 604;
},
{
layerId = "14C77FDB-037D-4842-9381-6D9ED15DD48C";
name = "Bold Extended";
paths = (
{
closed = 1;
nodes = (
"324 158 OFFCURVE",
"301 190 OFFCURVE",
"301 240 CURVE SMOOTH",
"301 290 OFFCURVE",
"324 325 OFFCURVE",
"368 325 CURVE SMOOTH",
"410 325 OFFCURVE",
"437 292 OFFCURVE",
"437 240 CURVE SMOOTH",
"437 188 OFFCURVE",
"410 158 OFFCURVE",
"368 158 CURVE SMOOTH"
);
},
{
closed = 1;
nodes = (
"271 0 LINE",
"301 83 LINE",
"305 83 LINE",
"337 20 OFFCURVE",
"398 -10 OFFCURVE",
"475 -10 CURVE SMOOTH",
"581 -10 OFFCURVE",
"685 47 OFFCURVE",
"685 239 CURVE SMOOTH",
"685 398 OFFCURVE",
"613 490 OFFCURVE",
"475 490 CURVE SMOOTH",
"389 490 OFFCURVE",
"336 454 OFFCURVE",
"305 398 CURVE",
"301 398 LINE",
"301 665 LINE",
"-10 665 LINE",
"-10 523 LINE",
"42 523 LINE SMOOTH",
"64 523 OFFCURVE",
"71 516 OFFCURVE",
"71 494 CURVE SMOOTH",
"71 0 LINE"
);
}
);
width = 701;
}
);
rightMetricsKey = "=o-2";
unicode = 0062;
},
{
glyphname = c;
lastChange = "2015-03-30 14:51:28 +0000";
layers = (
{
layerId = "E9E6D55E-9446-45F2-B66C-3272698B0216";
name = "Light Condensed";
paths = (
{
closed = 1;
nodes = (
"111 24 OFFCURVE",
"82 91 OFFCURVE",
"82 227 CURVE SMOOTH",
"82 362 OFFCURVE",
"111 426 OFFCURVE",
"173 426 CURVE SMOOTH",
"208 426 OFFCURVE",
"230 406 OFFCURVE",
"230 375 CURVE SMOOTH",
"230 346 OFFCURVE",
"209 344 OFFCURVE",
"209 317 CURVE SMOOTH",
"209 297 OFFCURVE",
"221 285 OFFCURVE",
"239 285 CURVE SMOOTH",
"263 285 OFFCURVE",
"278 308 OFFCURVE",
"278 348 CURVE SMOOTH",
"278 415 OFFCURVE",
"237 460 OFFCURVE",
"174 460 CURVE SMOOTH",
"88 460 OFFCURVE",
"38 377 OFFCURVE",
"38 223 CURVE SMOOTH",
"38 80 OFFCURVE",
"81 -10 OFFCURVE",
"167 -10 CURVE SMOOTH",
"242 -10 OFFCURVE",
"282 60 OFFCURVE",
"282 182 CURVE",
"249 182 LINE",
"246 74 OFFCURVE",
"221 24 OFFCURVE",
"170 24 CURVE SMOOTH"
);
}
);
width = 316;
},
{
layerId = "B25F85BC-C782-4067-8484-07202F80B8CD";
name = Condensed;
paths = (
{
closed = 1;
nodes = (
"171 80 OFFCURVE",
"158 117 OFFCURVE",
"158 222 CURVE SMOOTH",
"158 333 OFFCURVE",
"172 369 OFFCURVE",
"213 369 CURVE SMOOTH",
"237 369 OFFCURVE",
"251 358 OFFCURVE",
"251 337 CURVE SMOOTH",
"251 316 OFFCURVE",
"236 310 OFFCURVE",
"236 284 CURVE SMOOTH",
"236 253 OFFCURVE",
"259 233 OFFCURVE",
"294 233 CURVE SMOOTH",
"337 233 OFFCURVE",
"361 263 OFFCURVE",
"361 316 CURVE SMOOTH",
"361 403 OFFCURVE",
"298 460 OFFCURVE",
"204 460 CURVE SMOOTH",
"88 460 OFFCURVE",
"22 373 OFFCURVE",
"22 221 CURVE SMOOTH",
"22 72 OFFCURVE",
"86 -10 OFFCURVE",
"202 -10 CURVE SMOOTH",
"308 -10 OFFCURVE",
"365 58 OFFCURVE",
"365 182 CURVE",
"257 182 LINE",
"252 103 OFFCURVE",
"241 80 OFFCURVE",
"209 80 CURVE SMOOTH"
);
}
);
width = 383;
},
{
layerId = "B817C739-5D48-43E8-AAEE-CE891513D7BC";
name = "Bold Condensed";
paths = (
{
closed = 1;
nodes = (
"195 110 OFFCURVE",
"186 137 OFFCURVE",
"186 232 CURVE SMOOTH",
"186 326 OFFCURVE",
"195 355 OFFCURVE",
"223 355 CURVE SMOOTH",
"241 355 OFFCURVE",
"252 343 OFFCURVE",
"252 322 CURVE SMOOTH",
"252 299 OFFCURVE",
"239 292 OFFCURVE",
"239 267 CURVE SMOOTH",
"239 231 OFFCURVE",
"267 206 OFFCURVE",
"319 206 CURVE SMOOTH",
"381 206 OFFCURVE",
"409 240 OFFCURVE",
"409 305 CURVE SMOOTH",
"409 411 OFFCURVE",
"334 478 OFFCURVE",
"217 478 CURVE SMOOTH",
"82 478 OFFCURVE",
"6 388 OFFCURVE",
"6 228 CURVE SMOOTH",
"6 71 OFFCURVE",
"79 -12 OFFCURVE",
"218 -12 CURVE SMOOTH",
"344 -12 OFFCURVE",
"413 56 OFFCURVE",
"413 180 CURVE",
"265 180 LINE",
"263 128 OFFCURVE",
"253 110 OFFCURVE",
"227 110 CURVE SMOOTH"
);
}
);
width = 415;
},
{
layerId = UUID0;
name = "Light Extended";
paths = (
{
closed = 1;
nodes = (
"150 27 OFFCURVE",
"98 91 OFFCURVE",
"98 226 CURVE SMOOTH",
"98 361 OFFCURVE",
"149 423 OFFCURVE",
"261 423 CURVE SMOOTH",
"330 423 OFFCURVE",
"375 399 OFFCURVE",
"375 358 CURVE SMOOTH",
"375 330 OFFCURVE",
"354 326 OFFCURVE",
"354 300 CURVE SMOOTH",
"354 280 OFFCURVE",
"366 268 OFFCURVE",
"384 268 CURVE SMOOTH",
"408 268 OFFCURVE",
"423 291 OFFCURVE",
"423 330 CURVE SMOOTH",
"423 410 OFFCURVE",
"360 460 OFFCURVE",
"259 460 CURVE SMOOTH",
"127 460 OFFCURVE",
"53 374 OFFCURVE",
"53 222 CURVE SMOOTH",
"53 74 OFFCURVE",
"124 -10 OFFCURVE",
"249 -10 CURVE SMOOTH",
"363 -10 OFFCURVE",
"427 59 OFFCURVE",
"427 182 CURVE",
"394 182 LINE",
"391 76 OFFCURVE",
"345 27 OFFCURVE",
"254 27 CURVE SMOOTH"
);
}
);
width = 476;
},
{
layerId = "4355E1B8-19E6-44BD-A1D7-6E3C2DECA4C8";
name = Extended;
paths = (
{
closed = 1;
nodes = (
"217 80 OFFCURVE",
"180 126 OFFCURVE",
"180 227 CURVE SMOOTH",
"180 326 OFFCURVE",
"216 369 OFFCURVE",
"300 369 CURVE SMOOTH",
"350 369 OFFCURVE",
"373 354 OFFCURVE",
"373 331 CURVE SMOOTH",
"373 313 OFFCURVE",
"358 302 OFFCURVE",
"358 277 CURVE SMOOTH",
"358 249 OFFCURVE",
"378 223 OFFCURVE",
"424 223 CURVE SMOOTH",
"475 223 OFFCURVE",
"503 255 OFFCURVE",
"503 306 CURVE SMOOTH",
"503 397 OFFCURVE",
"416 460 OFFCURVE",
"290 460 CURVE SMOOTH",
"138 460 OFFCURVE",
"44 369 OFFCURVE",
"44 222 CURVE SMOOTH",
"44 76 OFFCURVE",
"137 -10 OFFCURVE",
"288 -10 CURVE SMOOTH",
"426 -10 OFFCURVE",
"507 61 OFFCURVE",
"507 182 CURVE",
"399 182 LINE",
"391 110 OFFCURVE",
"361 80 OFFCURVE",
"297 80 CURVE SMOOTH"
);
}
);
width = 547;
},
{
layerId = "14C77FDB-037D-4842-9381-6D9ED15DD48C";
name = "Bold Extended";
paths = (
{
closed = 1;
nodes = (
"275 124 OFFCURVE",
"248 159 OFFCURVE",
"248 240 CURVE SMOOTH",
"248 319 OFFCURVE",
"274 359 OFFCURVE",
"327 359 CURVE SMOOTH",
"366 359 OFFCURVE",
"399 336 OFFCURVE",
"399 310 CURVE SMOOTH",
"399 294 OFFCURVE",
"386 288 OFFCURVE",
"386 268 CURVE SMOOTH",
"386 233 OFFCURVE",
"421 213 OFFCURVE",
"479 213 CURVE SMOOTH",
"553 213 OFFCURVE",
"591 245 OFFCURVE",
"591 308 CURVE SMOOTH",
"591 416 OFFCURVE",
"478 490 OFFCURVE",
"312 490 CURVE SMOOTH",
"126 490 OFFCURVE",
"18 396 OFFCURVE",
"18 235 CURVE SMOOTH",
"18 76 OFFCURVE",
"125 -10 OFFCURVE",
"322 -10 CURVE SMOOTH",
"498 -10 OFFCURVE",
"595 57 OFFCURVE",
"595 180 CURVE",
"422 180 LINE",
"412 143 OFFCURVE",
"383 124 OFFCURVE",
"338 124 CURVE SMOOTH"
);
}
);
width = 609;
}
);
leftMetricsKey = o;
rightMetricsKey = "=o-4";
unicode = 0063;
},
{
glyphname = d;
lastChange = "2015-03-30 14:51:28 +0000";
layers = (
{
layerId = UUID0;
name = "Light Extended";
paths = (
{
closed = 1;
nodes = (
"329 -10 OFFCURVE",
"376 18 OFFCURVE",
"415 81 CURVE",
"419 81 LINE",
"419 0 LINE",
"559 0 LINE",
"559 27 LINE",
"486 27 LINE SMOOTH",
"468 27 OFFCURVE",
"463 40 OFFCURVE",
"463 58 CURVE SMOOTH",
"463 665 LINE",
"302 665 LINE",
"302 638 LINE",
"384 638 LINE SMOOTH",
"406 638 OFFCURVE",
"419 626 OFFCURVE",
"419 601 CURVE SMOOTH",
"419 378 LINE",
"415 378 LINE",
"374 433 OFFCURVE",
"323 460 OFFCURVE",
"249 460 CURVE SMOOTH",
"123 460 OFFCURVE",
"51 378 OFFCURVE",
"51 224 CURVE SMOOTH",
"51 62 OFFCURVE",
"130 -10 OFFCURVE",
"252 -10 CURVE SMOOTH"
);
},
{
closed = 1;
nodes = (
"145 28 OFFCURVE",
"100 94 OFFCURVE",
"100 220 CURVE SMOOTH",
"100 357 OFFCURVE",
"152 422 OFFCURVE",
"258 422 CURVE SMOOTH",
"336 422 OFFCURVE",
"418 378 OFFCURVE",
"418 224 CURVE SMOOTH",
"418 93 OFFCURVE",
"356 28 OFFCURVE",
"255 28 CURVE SMOOTH"
);
}
);
width = 561;
},
{
background = {
paths = (
{
closed = 1;
nodes = (
"627 80 LINE",
"566 80 LINE SMOOTH",
"548 80 OFFCURVE",
"543 91 OFFCURVE",
"543 107 CURVE SMOOTH",
"543 665 LINE",
"308 665 LINE",
"308 585 LINE",
"378 585 LINE SMOOTH",
"406 585 OFFCURVE",
"413 572 OFFCURVE",
"413 544 CURVE SMOOTH",
"413 379 LINE",
"409 379 LINE",
"378 436 OFFCURVE",
"320 460 OFFCURVE",
"249 460 CURVE SMOOTH",
"127 460 OFFCURVE",
"42 388 OFFCURVE",
"42 223 CURVE SMOOTH",
"42 54 OFFCURVE",
"131 -10 OFFCURVE",
"243 -10 CURVE SMOOTH",
"323 -10 OFFCURVE",
"376 22 OFFCURVE",
"409 82 CURVE",
"413 82 LINE",
"413 0 LINE",
"627 0 LINE"
);
},
{
closed = 1;
nodes = (
"231 85 OFFCURVE",
"185 119 OFFCURVE",
"185 223 CURVE SMOOTH",
"185 330 OFFCURVE",
"233 365 OFFCURVE",
"302 365 CURVE SMOOTH",
"373 365 OFFCURVE",
"413 329 OFFCURVE",
"413 227 CURVE SMOOTH",
"413 115 OFFCURVE",
"365 85 OFFCURVE",
"299 85 CURVE SMOOTH"
);
}
);
};
layerId = "4355E1B8-19E6-44BD-A1D7-6E3C2DECA4C8";
name = Extended;
paths = (
{
closed = 1;
nodes = (
"321 -10 OFFCURVE",
"374 19 OFFCURVE",
"409 82 CURVE",
"413 82 LINE",
"413 0 LINE",
"627 0 LINE",
"627 80 LINE",
"566 80 LINE SMOOTH",
"548 80 OFFCURVE",
"543 91 OFFCURVE",
"543 107 CURVE SMOOTH",
"543 665 LINE",
"308 665 LINE",
"308 585 LINE",
"378 585 LINE SMOOTH",
"406 585 OFFCURVE",
"413 572 OFFCURVE",
"413 544 CURVE SMOOTH",
"413 379 LINE",
"409 379 LINE",
"376 438 OFFCURVE",
"321 460 OFFCURVE",
"254 460 CURVE SMOOTH",
"130 460 OFFCURVE",
"42 385 OFFCURVE",
"42 223 CURVE SMOOTH",
"42 57 OFFCURVE",
"134 -10 OFFCURVE",
"247 -10 CURVE SMOOTH"
);
},
{
closed = 1;
nodes = (
"231 85 OFFCURVE",
"185 117 OFFCURVE",
"185 223 CURVE SMOOTH",
"185 331 OFFCURVE",
"233 365 OFFCURVE",
"301 365 CURVE SMOOTH",
"363 365 OFFCURVE",
"413 317 OFFCURVE",
"413 227 CURVE SMOOTH",
"413 127 OFFCURVE",
"355 85 OFFCURVE",
"298 85 CURVE SMOOTH"
);
}
);
width = 644;
},
{
background = {
paths = (
{
closed = 1;
nodes = (
"313 -10 OFFCURVE",
"364 38 OFFCURVE",
"396 83 CURVE",
"400 83 LINE",
"400 0 LINE",
"704 0 LINE",
"704 142 LINE",
"653 142 LINE SMOOTH",
"635 142 OFFCURVE",
"630 151 OFFCURVE",
"630 164 CURVE SMOOTH",
"630 665 LINE",
"300 665 LINE",
"300 523 LINE",
"373 523 LINE SMOOTH",
"391 523 OFFCURVE",
"400 519 OFFCURVE",
"400 482 CURVE SMOOTH",
"400 418 LINE",
"396 418 LINE",
"384 444 OFFCURVE",
"334 493 OFFCURVE",
"232 493 CURVE SMOOTH",
"110 493 OFFCURVE",
"15 422 OFFCURVE",
"15 233 CURVE SMOOTH",
"15 54 OFFCURVE",
"100 -10 OFFCURVE",
"214 -10 CURVE SMOOTH"
);
},
{
closed = 1;
nodes = (
"298 158 OFFCURVE",
"265 179 OFFCURVE",
"265 237 CURVE SMOOTH",
"265 289 OFFCURVE",
"291 325 OFFCURVE",
"335 325 CURVE SMOOTH",
"392 325 OFFCURVE",
"400 277 OFFCURVE",
"400 240 CURVE SMOOTH",
"400 184 OFFCURVE",
"381 158 OFFCURVE",
"333 158 CURVE SMOOTH"
);
}
);
};
layerId = "14C77FDB-037D-4842-9381-6D9ED15DD48C";
name = "Bold Extended";
paths = (
{
closed = 1;
nodes = (
"311 -10 OFFCURVE",
"368 31 OFFCURVE",
"396 83 CURVE",
"400 83 LINE",
"400 0 LINE",
"711 0 LINE",
"711 142 LINE",
"656 142 LINE SMOOTH",
"636 142 OFFCURVE",
"630 149 OFFCURVE",
"630 177 CURVE SMOOTH",
"630 665 LINE",
"300 665 LINE",
"300 523 LINE",
"374 523 LINE SMOOTH",
"394 523 OFFCURVE",
"400 516 OFFCURVE",
"400 488 CURVE SMOOTH",
"400 398 LINE",
"396 398 LINE",
"368 450 OFFCURVE",
"312 490 OFFCURVE",
"232 490 CURVE SMOOTH",
"112 490 OFFCURVE",
"16 426 OFFCURVE",
"16 240 CURVE SMOOTH",
"16 54 OFFCURVE",
"111 -10 OFFCURVE",
"231 -10 CURVE SMOOTH"
);
},
{
closed = 1;
nodes = (
"292 158 OFFCURVE",
"264 188 OFFCURVE",
"264 240 CURVE SMOOTH",
"264 292 OFFCURVE",
"292 325 OFFCURVE",
"332 325 CURVE SMOOTH",
"378 325 OFFCURVE",
"400 290 OFFCURVE",
"400 240 CURVE SMOOTH",
"400 190 OFFCURVE",
"378 158 OFFCURVE",
"332 158 CURVE SMOOTH"
);
}
);
width = 716;
},
{
background = {
paths = (
{
closed = 1;
nodes = (
"190 -10 OFFCURVE",
"227 5 OFFCURVE",
"247 61 CURVE",
"251 61 LINE",
"251 0 LINE",
"357 0 LINE",
"357 25 LINE",
"318 25 LINE SMOOTH",
"298 25 OFFCURVE",
"291 35 OFFCURVE",
"291 57 CURVE SMOOTH",
"291 665 LINE",
"176 665 LINE",
"176 640 LINE",
"224 640 LINE SMOOTH",
"244 640 OFFCURVE",
"251 630 OFFCURVE",
"251 608 CURVE SMOOTH",
"251 400 LINE",
"247 400 LINE",
"223 445 OFFCURVE",
"201 460 OFFCURVE",
"158 460 CURVE SMOOTH",
"75 460 OFFCURVE",
"36 385 OFFCURVE",
"36 225 CURVE SMOOTH",
"36 71 OFFCURVE",
"78 -10 OFFCURVE",
"153 -10 CURVE SMOOTH"
);
},
{
closed = 1;
nodes = (
"106 25 OFFCURVE",
"80 88 OFFCURVE",
"80 224 CURVE SMOOTH",
"80 360 OFFCURVE",
"106 425 OFFCURVE",
"162 425 CURVE SMOOTH",
"213 425 OFFCURVE",
"250 372 OFFCURVE",
"250 225 CURVE SMOOTH",
"250 87 OFFCURVE",
"208 25 OFFCURVE",
"162 25 CURVE SMOOTH"
);
}
);
};
layerId = "E9E6D55E-9446-45F2-B66C-3272698B0216";
name = "Light Condensed";
paths = (
{
closed = 1;
nodes = (
"188 -10 OFFCURVE",
"225 5 OFFCURVE",
"247 61 CURVE",
"251 61 LINE",
"251 0 LINE",
"357 0 LINE",
"357 25 LINE",
"318 25 LINE SMOOTH",
"298 25 OFFCURVE",
"291 35 OFFCURVE",
"291 57 CURVE SMOOTH",
"291 665 LINE",
"176 665 LINE",
"176 640 LINE",
"224 640 LINE SMOOTH",
"244 640 OFFCURVE",
"251 630 OFFCURVE",
"251 608 CURVE SMOOTH",
"251 400 LINE",
"247 400 LINE",
"221 445 OFFCURVE",
"199 460 OFFCURVE",
"158 460 CURVE SMOOTH",
"75 460 OFFCURVE",
"36 385 OFFCURVE",
"36 225 CURVE SMOOTH",
"36 71 OFFCURVE",
"78 -10 OFFCURVE",
"153 -10 CURVE SMOOTH"
);
},
{
closed = 1;
nodes = (
"106 25 OFFCURVE",
"80 88 OFFCURVE",
"80 224 CURVE SMOOTH",
"80 360 OFFCURVE",
"106 425 OFFCURVE",
"162 425 CURVE SMOOTH",
"209 425 OFFCURVE",
"250 382 OFFCURVE",
"250 225 CURVE SMOOTH",
"250 77 OFFCURVE",
"204 25 OFFCURVE",
"162 25 CURVE SMOOTH"
);
}
);
width = 361;
},
{
layerId = "B25F85BC-C782-4067-8484-07202F80B8CD";
name = Condensed;
paths = (
{
closed = 1;
nodes = (
"201 -10 OFFCURVE",
"232 8 OFFCURVE",
"252 54 CURVE",
"256 54 LINE",
"256 0 LINE",
"445 0 LINE",
"445 80 LINE",
"411 80 LINE SMOOTH",
"391 80 OFFCURVE",
"386 93 OFFCURVE",
"386 113 CURVE SMOOTH",
"386 665 LINE",
"191 665 LINE",
"191 585 LINE",
"231 585 LINE SMOOTH",
"251 585 OFFCURVE",
"256 572 OFFCURVE",
"256 552 CURVE SMOOTH",
"256 396 LINE",
"252 396 LINE",
"232 442 OFFCURVE",
"201 460 OFFCURVE",
"151 460 CURVE SMOOTH",
"63 460 OFFCURVE",
"20 385 OFFCURVE",
"20 225 CURVE SMOOTH",
"20 65 OFFCURVE",
"65 -10 OFFCURVE",
"151 -10 CURVE SMOOTH"
);
},
{
closed = 1;
nodes = (
"182 85 OFFCURVE",
"168 115 OFFCURVE",
"168 225 CURVE SMOOTH",
"168 335 OFFCURVE",
"182 365 OFFCURVE",
"212 365 CURVE SMOOTH",
"238 365 OFFCURVE",
"256 335 OFFCURVE",
"256 225 CURVE SMOOTH",
"256 115 OFFCURVE",
"238 85 OFFCURVE",
"212 85 CURVE SMOOTH"
);
}
);
width = 439;
},
{
background = {
paths = (
{
closed = 1;
nodes = (
"197 -12 OFFCURVE",
"227 14 OFFCURVE",
"247 53 CURVE",
"251 53 LINE",
"251 0 LINE",
"465 0 LINE",
"465 108 LINE",
"450 108 LINE SMOOTH",
"432 108 OFFCURVE",
"427 118 OFFCURVE",
"427 133 CURVE SMOOTH",
"427 665 LINE",
"190 665 LINE",
"190 557 LINE",
"220 557 LINE SMOOTH",
"245 557 OFFCURVE",
"251 548 OFFCURVE",
"251 516 CURVE SMOOTH",
"251 422 LINE",
"247 422 LINE",
"234 451 OFFCURVE",
"207 477 OFFCURVE",
"151 477 CURVE SMOOTH",
"57 477 OFFCURVE",
"4 406 OFFCURVE",
"4 225 CURVE SMOOTH",
"4 52 OFFCURVE",
"52 -12 OFFCURVE",
"141 -12 CURVE SMOOTH"
);
},
{
closed = 1;
nodes = (
"210 120 OFFCURVE",
"202 135 OFFCURVE",
"202 235 CURVE SMOOTH",
"202 335 OFFCURVE",
"210 345 OFFCURVE",
"228 345 CURVE SMOOTH",
"246 345 OFFCURVE",
"251 335 OFFCURVE",
"251 235 CURVE SMOOTH",
"251 135 OFFCURVE",
"246 120 OFFCURVE",
"228 120 CURVE SMOOTH"
);
},
{
closed = 1;
nodes = (
"197 -12 OFFCURVE",
"227 14 OFFCURVE",
"247 53 CURVE",
"251 53 LINE",
"251 0 LINE",
"465 0 LINE",
"465 108 LINE",
"450 108 LINE SMOOTH",
"432 108 OFFCURVE",
"427 118 OFFCURVE",
"427 133 CURVE SMOOTH",
"427 665 LINE",
"190 665 LINE",
"190 557 LINE",
"220 557 LINE SMOOTH",
"245 557 OFFCURVE",
"251 548 OFFCURVE",
"251 516 CURVE SMOOTH",
"251 422 LINE",
"247 422 LINE",
"234 451 OFFCURVE",
"207 477 OFFCURVE",
"151 477 CURVE SMOOTH",
"57 477 OFFCURVE",
"4 406 OFFCURVE",
"4 225 CURVE SMOOTH",
"4 52 OFFCURVE",
"52 -12 OFFCURVE",
"141 -12 CURVE SMOOTH"
);
},
{
closed = 1;
nodes = (
"210 120 OFFCURVE",
"202 135 OFFCURVE",
"202 235 CURVE SMOOTH",
"202 335 OFFCURVE",
"210 345 OFFCURVE",
"228 345 CURVE SMOOTH",
"246 345 OFFCURVE",
"251 335 OFFCURVE",
"251 235 CURVE SMOOTH",
"251 135 OFFCURVE",
"246 120 OFFCURVE",
"228 120 CURVE SMOOTH"
);
}
);
};
layerId = "B817C739-5D48-43E8-AAEE-CE891513D7BC";
name = "Bold Condensed";
paths = (
{
closed = 1;
nodes = (
"197 -12 OFFCURVE",
"227 14 OFFCURVE",
"247 53 CURVE",
"251 53 LINE",
"251 0 LINE",
"465 0 LINE",
"465 108 LINE",
"450 108 LINE SMOOTH",
"432 108 OFFCURVE",
"427 118 OFFCURVE",
"427 133 CURVE SMOOTH",
"427 665 LINE",
"190 665 LINE",
"190 557 LINE",
"220 557 LINE SMOOTH",
"245 557 OFFCURVE",
"251 548 OFFCURVE",
"251 516 CURVE SMOOTH",
"251 422 LINE",
"247 422 LINE",
"234 451 OFFCURVE",
"207 477 OFFCURVE",
"150 477 CURVE SMOOTH",
"55 477 OFFCURVE",
"4 406 OFFCURVE",
"4 228 CURVE SMOOTH",
"4 52 OFFCURVE",
"54 -12 OFFCURVE",
"141 -12 CURVE SMOOTH"
);
},
{
closed = 1;
nodes = (
"212 120 OFFCURVE",
"202 136 OFFCURVE",
"202 235 CURVE SMOOTH",
"202 333 OFFCURVE",
"213 345 OFFCURVE",
"227 345 CURVE SMOOTH",
"243 345 OFFCURVE",
"251 330 OFFCURVE",
"251 235 CURVE SMOOTH",
"251 139 OFFCURVE",
"243 120 OFFCURVE",
"227 120 CURVE SMOOTH"
);
}
);
width = 466;
}
);
leftMetricsKey = "=o-2";
unicode = 0064;
},
{
glyphname = e;
lastChange = "2015-03-30 14:51:28 +0000";
layers = (
{
layerId = UUID0;
name = "Light Extended";
paths = (
{
closed = 1;
nodes = (
"380 -10 OFFCURVE",
"458 57 OFFCURVE",
"458 175 CURVE",
"421 175 LINE",
"419 82 OFFCURVE",
"364 26 OFFCURVE",
"261 26 CURVE SMOOTH",
"157 26 OFFCURVE",
"99 83 OFFCURVE",
"98 221 CURVE",
"456 221 LINE",
"457 230 OFFCURVE",
"458 240 OFFCURVE",
"458 257 CURVE SMOOTH",
"458 383 OFFCURVE",
"382 460 OFFCURVE",
"262 460 CURVE SMOOTH",
"135 460 OFFCURVE",
"53 376 OFFCURVE",
"53 224 CURVE SMOOTH",
"53 76 OFFCURVE",
"130 -10 OFFCURVE",
"263 -10 CURVE SMOOTH"
);
},
{
closed = 1;
nodes = (
"99 254 LINE",
"107 372 OFFCURVE",
"163 424 OFFCURVE",
"260 424 CURVE SMOOTH",
"363 424 OFFCURVE",
"415 365 OFFCURVE",
"415 254 CURVE"
);
}
);
width = 509;
},
{
background = {
paths = (
{
closed = 1;
nodes = (
"469 -10 OFFCURVE",
"552 87 OFFCURVE",
"552 225 CURVE SMOOTH",
"552 363 OFFCURVE",
"470 460 OFFCURVE",
"298 460 CURVE SMOOTH",
"126 460 OFFCURVE",
"44 363 OFFCURVE",
"44 225 CURVE SMOOTH",
"44 87 OFFCURVE",
"125 -10 OFFCURVE",
"297 -10 CURVE SMOOTH"
);
},
{
closed = 1;
nodes = (
"215 85 OFFCURVE",
"183 140 OFFCURVE",
"183 224 CURVE SMOOTH",
"183 309 OFFCURVE",
"215 365 OFFCURVE",
"298 365 CURVE SMOOTH",
"380 365 OFFCURVE",
"412 309 OFFCURVE",
"412 224 CURVE SMOOTH",
"412 140 OFFCURVE",
"380 85 OFFCURVE",
"298 85 CURVE SMOOTH"
);
}
);
};
layerId = "4355E1B8-19E6-44BD-A1D7-6E3C2DECA4C8";
name = Extended;
paths = (
{
closed = 1;
nodes = (
"444 -10 OFFCURVE",
"529 75 OFFCURVE",
"529 175 CURVE",
"407 175 LINE",
"407 116 OFFCURVE",
"366 80 OFFCURVE",
"298 80 CURVE SMOOTH",
"226 80 OFFCURVE",
"189 120 OFFCURVE",
"182 201 CURVE",
"527 201 LINE",
"528 220 OFFCURVE",
"529 231 OFFCURVE",
"529 245 CURVE SMOOTH",
"529 371 OFFCURVE",
"443 460 OFFCURVE",
"292 460 CURVE SMOOTH",
"133 460 OFFCURVE",
"44 362 OFFCURVE",
"44 226 CURVE SMOOTH",
"44 87 OFFCURVE",
"136 -10 OFFCURVE",
"295 -10 CURVE SMOOTH"
);
},
{
closed = 1;
nodes = (
"183 268 LINE",
"192 337 OFFCURVE",
"229 369 OFFCURVE",
"298 369 CURVE SMOOTH",
"355 369 OFFCURVE",
"393 347 OFFCURVE",
"399 268 CURVE"
);
}
);
width = 571;
},
{
background = {
paths = (
{
closed = 1;
nodes = (
"488 -10 OFFCURVE",
"604 41 OFFCURVE",
"625 181 CURVE",
"404 181 LINE",
"392 151 OFFCURVE",
"371 138 OFFCURVE",
"335 138 CURVE SMOOTH",
"290 138 OFFCURVE",
"269 157 OFFCURVE",
"264 205 CURVE",
"630 205 LINE",
"630 239 LINE SMOOTH",
"630 413 OFFCURVE",
"514 490 OFFCURVE",
"333 490 CURVE SMOOTH",
"132 490 OFFCURVE",
"18 409 OFFCURVE",
"18 239 CURVE SMOOTH",
"18 69 OFFCURVE",
"137 -10 OFFCURVE",
"326 -10 CURVE SMOOTH"
);
},
{
closed = 1;
nodes = (
"264 277 LINE",
"264 318 OFFCURVE",
"288 347 OFFCURVE",
"328 347 CURVE SMOOTH",
"368 347 OFFCURVE",
"390 317 OFFCURVE",
"390 277 CURVE"
);
}
);
};
layerId = "14C77FDB-037D-4842-9381-6D9ED15DD48C";
name = "Bold Extended";
paths = (
{
closed = 1;
nodes = (
"478 -10 OFFCURVE",
"586 41 OFFCURVE",
"605 181 CURVE",
"421 181 LINE",
"414 146 OFFCURVE",
"382 124 OFFCURVE",
"338 124 CURVE SMOOTH",
"288 124 OFFCURVE",
"256 153 OFFCURVE",
"250 205 CURVE",
"610 205 LINE",
"610 216 OFFCURVE",
"610 228 OFFCURVE",
"610 239 CURVE SMOOTH",
"610 413 OFFCURVE",
"502 490 OFFCURVE",
"333 490 CURVE SMOOTH",
"132 490 OFFCURVE",
"18 409 OFFCURVE",
"18 239 CURVE SMOOTH",
"18 69 OFFCURVE",
"137 -10 OFFCURVE",
"326 -10 CURVE SMOOTH"
);
},
{
closed = 1;
nodes = (
"250 277 LINE",
"250 324 OFFCURVE",
"283 359 OFFCURVE",
"328 359 CURVE SMOOTH",
"372 359 OFFCURVE",
"402 325 OFFCURVE",
"402 277 CURVE"
);
}
);
width = 626;
},
{
background = {
paths = (
{
closed = 1;
nodes = (
"262 -10 OFFCURVE",
"314 75 OFFCURVE",
"314 225 CURVE SMOOTH",
"314 375 OFFCURVE",
"262 460 OFFCURVE",
"176 460 CURVE SMOOTH",
"90 460 OFFCURVE",
"38 375 OFFCURVE",
"38 225 CURVE SMOOTH",
"38 75 OFFCURVE",
"90 -10 OFFCURVE",
"176 -10 CURVE SMOOTH"
);
},
{
closed = 1;
nodes = (
"117 25 OFFCURVE",
"82 79 OFFCURVE",
"82 225 CURVE SMOOTH",
"82 371 OFFCURVE",
"117 425 OFFCURVE",
"176 425 CURVE SMOOTH",
"236 425 OFFCURVE",
"270 371 OFFCURVE",
"270 225 CURVE SMOOTH",
"270 79 OFFCURVE",
"236 25 OFFCURVE",
"176 25 CURVE SMOOTH"
);
}
);
};
layerId = "E9E6D55E-9446-45F2-B66C-3272698B0216";
name = "Light Condensed";
paths = (
{
closed = 1;
nodes = (
"249 -10 OFFCURVE",
"296 56 OFFCURVE",
"296 175 CURVE",
"263 175 LINE",
"261 80 OFFCURVE",
"235 24 OFFCURVE",
"173 24 CURVE SMOOTH",
"117 24 OFFCURVE",
"81 81 OFFCURVE",
"81 222 CURVE",
"295 222 LINE",
"296 230 OFFCURVE",
"296 240 OFFCURVE",
"296 258 CURVE SMOOTH",
"296 384 OFFCURVE",
"251 460 OFFCURVE",
"174 460 CURVE SMOOTH",
"93 460 OFFCURVE",
"38 377 OFFCURVE",
"38 223 CURVE SMOOTH",
"38 76 OFFCURVE",
"87 -10 OFFCURVE",
"173 -10 CURVE SMOOTH"
);
},
{
closed = 1;
nodes = (
"82 252 LINE",
"85 376 OFFCURVE",
"122 426 OFFCURVE",
"174 426 CURVE SMOOTH",
"233 426 OFFCURVE",
"257 356 OFFCURVE",
"257 252 CURVE"
);
}
);
width = 332;
},
{
background = {
paths = (
{
closed = 1;
nodes = (
"315 -10 OFFCURVE",
"381 61 OFFCURVE",
"381 175 CURVE",
"267 175 LINE",
"267 113 OFFCURVE",
"248 80 OFFCURVE",
"211 80 CURVE SMOOTH",
"176 80 OFFCURVE",
"160 111 OFFCURVE",
"160 201 CURVE",
"381 201 LINE",
"383 219 OFFCURVE",
"383 230 OFFCURVE",
"383 247 CURVE SMOOTH",
"383 383 OFFCURVE",
"323 460 OFFCURVE",
"210 460 CURVE SMOOTH",
"93 460 OFFCURVE",
"22 377 OFFCURVE",
"22 223 CURVE SMOOTH",
"22 73 OFFCURVE",
"89 -10 OFFCURVE",
"206 -10 CURVE SMOOTH"
);
},
{
closed = 1;
nodes = (
"160 268 LINE",
"160 346 OFFCURVE",
"179 369 OFFCURVE",
"211 369 CURVE SMOOTH",
"243 369 OFFCURVE",
"258 346 OFFCURVE",
"258 268 CURVE"
);
}
);
};
layerId = "B25F85BC-C782-4067-8484-07202F80B8CD";
name = Condensed;
paths = (
{
closed = 1;
nodes = (
"315 -10 OFFCURVE",
"381 61 OFFCURVE",
"381 175 CURVE",
"267 175 LINE",
"267 113 OFFCURVE",
"248 80 OFFCURVE",
"211 80 CURVE SMOOTH",
"176 80 OFFCURVE",
"160 111 OFFCURVE",
"160 201 CURVE",
"381 201 LINE",
"383 219 OFFCURVE",
"383 230 OFFCURVE",
"383 247 CURVE SMOOTH",
"383 383 OFFCURVE",
"323 460 OFFCURVE",
"210 460 CURVE SMOOTH",
"93 460 OFFCURVE",
"22 377 OFFCURVE",
"22 223 CURVE SMOOTH",
"22 73 OFFCURVE",
"89 -10 OFFCURVE",
"206 -10 CURVE SMOOTH"
);
},
{
closed = 1;
nodes = (
"160 270 LINE",
"160 346 OFFCURVE",
"179 369 OFFCURVE",
"211 369 CURVE SMOOTH",
"243 369 OFFCURVE",
"258 346 OFFCURVE",
"258 270 CURVE"
);
}
);
width = 403;
},
{
background = {
paths = (
{
closed = 1;
nodes = (
"346 -10 OFFCURVE",
"415 59 OFFCURVE",
"423 171 CURVE",
"262 171 LINE",
"262 137 OFFCURVE",
"254 112 OFFCURVE",
"226 112 CURVE SMOOTH",
"197 112 OFFCURVE",
"187 139 OFFCURVE",
"187 206 CURVE",
"424 206 LINE",
"425 216 OFFCURVE",
"425 221 OFFCURVE",
"425 246 CURVE SMOOTH",
"425 396 OFFCURVE",
"359 475 OFFCURVE",
"222 475 CURVE SMOOTH",
"80 475 OFFCURVE",
"6 391 OFFCURVE",
"6 230 CURVE SMOOTH",
"6 72 OFFCURVE",
"78 -10 OFFCURVE",
"218 -10 CURVE SMOOTH"
);
},
{
closed = 1;
nodes = (
"189 284 LINE",
"190 337 OFFCURVE",
"200 353 OFFCURVE",
"220 353 CURVE SMOOTH",
"242 353 OFFCURVE",
"249 333 OFFCURVE",
"249 284 CURVE"
);
}
);
};
layerId = "B817C739-5D48-43E8-AAEE-CE891513D7BC";
name = "Bold Condensed";
paths = (
{
closed = 1;
nodes = (
"346 -12 OFFCURVE",
"416 59 OFFCURVE",
"424 171 CURVE",
"264 171 LINE",
"264 137 OFFCURVE",
"254 110 OFFCURVE",
"226 110 CURVE SMOOTH",
"197 110 OFFCURVE",
"187 139 OFFCURVE",
"187 206 CURVE",
"425 206 LINE",
"426 216 OFFCURVE",
"426 221 OFFCURVE",
"426 246 CURVE SMOOTH",
"426 396 OFFCURVE",
"359 477 OFFCURVE",
"222 477 CURVE SMOOTH",
"80 477 OFFCURVE",
"6 391 OFFCURVE",
"6 230 CURVE SMOOTH",
"6 72 OFFCURVE",
"78 -12 OFFCURVE",
"218 -12 CURVE SMOOTH"
);
},
{
closed = 1;
nodes = (
"189 284 LINE",
"190 337 OFFCURVE",
"200 355 OFFCURVE",
"220 355 CURVE SMOOTH",
"242 355 OFFCURVE",
"250 333 OFFCURVE",
"250 284 CURVE"
);
}
);
width = 430;
}
);
leftMetricsKey = o;
rightMetricsKey = "=o-2";
unicode = 0065;
},
